<?xml version="1.0" encoding="utf-8"?>
<!-- Generator: Adobe Illustrator 26.5.0, SVG Export Plug-In . SVG Version: 6.00 Build 0)  -->
<svg version="1.1"
	 id="Layer_1" xmlns:cc="http://creativecommons.org/ns#" xmlns:dc="http://purl.org/dc/elements/1.1/" xmlns:rdf="http://www.w3.org/1999/02/22-rdf-syntax-ns#" xmlns:svg="http://www.w3.org/2000/svg"
	 xmlns="http://www.w3.org/2000/svg" xmlns:xlink="http://www.w3.org/1999/xlink" x="0px" y="0px" viewBox="0 0 1785.6 1785.6"
	 style="enable-background:new 0 0 1785.6 1785.6;" xml:space="preserve">
<style type="text/css">
	.st0{fill:#9ECFCA;}
	.st1{fill:#FFFFFF;}
	.st2{fill:#E84393;}
	.st3{fill:#FFFD81;}
	.st4{fill:#FFD2BB;}
	.st5{fill:#808080;}
</style>
<path id="color_x5F_1" class="st0" d="M1667.8,1503.5c0,2-1.6,3.6-3.6,3.6h-202.1l0.9-7.2h79.5h121.8
	C1666.2,1499.9,1667.8,1501.5,1667.8,1503.5z M1368.7,1499.9l0.9,7.2h-99.2v25.9c0,1-0.8,1.8-1.8,1.8h-87.3l-5.2,62.5
	c-0.1,0.9-0.8,1.6-1.8,1.6H833.5c-0.9,0-1.7-0.7-1.8-1.6l-5.2-62.5h-99.9c-1,0-1.8-0.8-1.8-1.8v-25.9h-6.8c-0.2,0.6-0.4,1.3-0.6,1.9
	c-8.4,21-46.8,30.8-108.2,27.5c-7,10.1-11.9,17.2-14,20.1c4.8,3,21.7,12.6,55,21.6c14.1,3.8,60,17.3,62,30.5
	c0.3,1.9-0.2,4.8-4.3,7.3c-9.2,5.6-34.1,7.2-59.1,7.2c-25.8,0-51.6-1.7-60-2.3c-45.6-3.3-81.5-6.7-81.9-6.8
	c-0.6-0.1-1.1-0.4-1.4-0.9c-0.3-0.5-0.3-1.1-0.1-1.6l32.4-78.8c-36.4-2.1-79.9-5.8-129.5-11.2c0,0,0,0,0,0
	c-50-5.4-94.8-11.3-119.7-14.6h-18.8c-0.6,8.1-1.7,25.6-2.1,39.8l0,1.9c0,0,0,0,0,0.1c-0.3,12.2,0.2,16.5,0.7,17.9
	c0.9,2.7,12.8,7.5,22.4,11.3c17.4,7,33.8,13.6,31.3,21.5c-0.2,0.7-0.8,1.2-1.5,1.2c-0.4,0-43.5,4-65.8,2.6
	c-35.2-2.2-43.7-48.3-50-96.4h-66.6c-2,0-3.6-1.6-3.6-3.6c0-2,1.6-3.6,3.6-3.6h65.7c-0.2-1.7-0.4-3.4-0.6-5.1
	c-1.3-10.6-2.7-21.6-4.3-31.7c-0.3-1.6,0.1-3.1,1.1-4.5c0.5-0.6,1.1-1.2,1.7-1.7c-1.4,0.1-2.2,0.1-2.3,0.1c-0.5,0-1-0.2-1.3-0.6
	c-0.3-0.4-0.5-0.9-0.5-1.4c0-0.4,1-10.5,3-27.3c3.9-34.2,11.7-96.5,23.3-163.6c8.2-47.5,18.3-97.4,30.2-141.2
	c1.4-5.1,2.8-10.2,4.3-15.1c32.3-110.6,67.2-171.1,79.4-190.3c-0.1-0.1-0.2-0.2-0.3-0.3c-7.1-9.8-13.7-116.5,12.6-167.8
	c9.5-18.5,22.2-28.2,37.8-28.9c0.4-11.3,5.4-72.3,71.4-80.3c19.9-2.4,75.8-3.9,95.1,18c6,6.8,7.9,15.3,5.6,25.2
	c8,10.7,8.5,26.8,9,43.7c0.6,21.1,1.2,42.9,15.1,59.4c6.2,7.3,3.8,12.7,1.8,15.3c-4,5.2-13.3,7.9-19,6.9c-0.8,9.2-4.1,44.5-6.4,52.6
	c-1.6,5.6-5.1,9.9-10.1,12.2c-9.4,4.4-24.2,2.3-43.8-6.3c-4.1-1.8-8.1-3.7-11.8-5.8l-16.3,35.2c28.1,41.1,59.2,135.9,76.7,194.3
	c7.3,24.4,12.3,42.7,13.7,47.7l155.7-6.8V802.4c0-1,0.8-1.8,1.8-1.8h53.3V662c0-22.7,22.7-35.2,38.3-35.2h3.5v-14.1
	c0-1,0.8-1.8,1.8-1.8h21.7c1,0,1.8,0.8,1.8,1.8v14.1c6.8,0.1,11.7,3.6,14.7,10.6c22.6,52.9,45.8,107.7,22.8,163.2h24.2l-4.5-72.6
	c0-0.5,0.1-1,0.5-1.3c0.3-0.4,0.8-0.6,1.3-0.6h53.1c0.5,0,1,0.2,1.3,0.6c0.3,0.4,0.5,0.8,0.5,1.3l-4.5,72.6h312.1
	c1,0,1.8,0.8,1.8,1.8v697.5L1368.7,1499.9L1368.7,1499.9z M912.4,800.6h40.6l4.4-70.9H908L912.4,800.6z M783.5,800.6h97.3
	c23.4-54.7,0.2-109.1-22.3-161.8c-2.4-5.7-6.2-8.4-11.7-8.4h-28.6c-14.2,0-34.8,11.3-34.8,31.6L783.5,800.6L783.5,800.6L783.5,800.6
	z M656,1138.5c0.2,0.9,0.4,1.8,0.6,2.8c0.9,4.4,1.7,9.3,2.3,14.4c2.1,16.4,2.4,31.5,0.9,42.1c52.3-12.4,100.8-25.8,101.3-26
	c0.4-0.1,0.9-0.1,1.3,0.1c17.4,9.2,32.5,10.1,51.5,10.2l-5.6-44.5c-3.8-0.5-7.2-0.9-10.4-1.2c0,0-0.1,0-0.1,0
	c-29.4-3.3-34.7-2.6-34.9-2.6l-36.1,1.6c0,0,0,0-0.1,0c0,0,0,0,0,0L656,1138.5z M1191,1179.3c0-106.6-86.8-193.4-193.4-193.4
	c-85.2,0-161,56.6-185.3,137.9c3.3-1.3,6.6-2,9.3-1.5c7.2,1.4,19.1,3.7,33.6,6.6c21-60.2,78-100.6,142.4-100.6
	c83.3,0,151,67.7,151,151c0,19.2-3.6,37.9-10.6,55.6h44.8C1188.3,1217,1191,1198.3,1191,1179.3z M802.6,1133.4
	c2.4,0.3,4.9,0.6,7.5,0.9c0.8,0.1,1.5,0.7,1.6,1.6L824,1235h160.9c-14.8-16.3-86.2-93.8-107.4-98c-24.4-4.9-45.8-9-56.5-11.1
	C816.2,1124.9,808,1129.5,802.6,1133.4z M820.4,1235l-6.2-49.3c-12.7,0-23.7-0.4-34.8-3.3c1,8.2,2.7,16.9,3.9,18.3
	c2.3,2.7,28,30,31.9,34.3H820.4z M801.9,1236.9c0-0.5,0.1-1,0.5-1.4c0.3-0.4,0.8-0.6,1.3-0.6h6.8c-4.8-5.1-14.6-15.6-21.7-23.3
	c3.6,10.7,4.4,25-2.4,43.6c-6.4,17.4-25.8,51.7-57.8,102.4v104.2h92.1L801.9,1236.9z M761.3,1175.4c-1.5,0.4-5.2,1.4-10.8,2.9
	c8,1.6,17,5.7,24.7,12.7c0.8,0.7,1.6,1.5,2.4,2.3c-0.9-4.4-1.5-9.2-1.8-12C771,1179.9,766.3,1178,761.3,1175.4z M658,1201.9
	C658,1201.9,657.9,1201.9,658,1201.9c-60.6,14.3-100.9,21.4-119.9,21c-13.2-0.3-29.9-13.7-49.6-39.8c-0.6,14.2-2.3,55.9-4.1,99
	c21.7-8.8,173.9-70.6,230.1-94.1C697.8,1192.2,678.1,1197.1,658,1201.9z M556.7,684.9c-3.2-4-7.5-6.9-13-8.7
	c-3.7,0.5-31.7,5.8-39,46.2c-2.2,11.9-5.2,22.1-9,30.3c-5.8,12.5-13.7,20.9-23.4,24.8c-4.7,1.9-9.8,2.8-15.4,2.7
	c-0.8,0-1.5-0.6-1.7-1.4c-0.1-0.2-5.4-23.3-21.9-22c-10.1,0.8-14.7,11.4-15.6,20.3c-1.3,13,4.5,29.1,20.2,33.4
	c4.1,1.1,8.8,1.4,13.8,0.8c0.5-0.1,1,0.1,1.3,0.4c0.4,0.3,0.6,0.8,0.6,1.3c0.6,9-2.1,17.9-8.1,26.3c-6.7,9.6-17.5,18.3-29.5,24.4
	c0.6,0,1.2,0,1.9,0c15.9,0,31.7,5.7,46.8,17.2c3.7,2.9,7.6,7.1,11.5,12.4l15.5-33.6c-24-14.1-30.9-28.9-32.1-31.7
	c-0.1-0.3-0.2-0.5-0.2-0.5c-0.3-0.9,0.2-1.9,1.1-2.3c0.9-0.3,1.9,0.2,2.3,1.1l0.1,0.3c1.1,2.7,7.9,17.1,31.9,30.8l0.6,0.4
	c3.9,2.2,8.1,4.3,12.5,6.2c18.6,8.2,32.3,10.3,40.8,6.3c4.1-1.9,6.8-5.3,8.2-9.9c2.5-8.9,6.4-53.7,6.5-54.1c0.1-0.6,0.4-1.1,0.9-1.4
	c0.5-0.3,1.1-0.3,1.7-0.1c3.4,1.6,13.3-0.4,17-5.2c2.3-3,1.7-6.6-1.7-10.8c-14.7-17.5-15.4-40.9-16-61.6
	C565,710.5,564.5,694.7,556.7,684.9z M216.3,1452.2c1.6-0.2,2.7-0.3,2.9-0.3c2.9-0.3,5.9-0.8,9-1.2c0,0,0,0,0,0
	c9.3-1.4,19-3.2,28.9-5.5c7.3-1.7,14.7-3.6,22.1-5.7c9.4-2.7,17.8-6,25.7-10.2c6-3.1,11.1-6.4,16-9.5c15.3-9.8,28.5-18.2,62.6-19.6
	c3.1-0.1,6.3-0.2,9.4-0.1c42.9,0.8,72.3,19.2,81.2,25.6c0.2-5.6,0.7-19.5,2.3-52.3l0.9-18c3.1-61.8,7.4-167.9,7.7-177
	c-39.7-54.8-78.8-142.7-79.2-143.6c-0.4-0.9,0-2,0.9-2.4c0.9-0.4,2,0,2.4,0.9c0.4,0.9,39.6,89,79.2,143.4
	c20.3,27.9,37,42.2,49.8,42.5c18.6,0.3,58.2-6.5,117.8-20.6c1.7-10.2,1.5-26-0.7-42.6c-0.6-5-1.4-9.8-2.3-14.1
	c-0.2-1.1-0.5-2.3-0.7-3.3l-84.5,3.7c-0.8,0-1.6-0.5-1.8-1.3c-0.1-0.2-5.5-20.3-14-49c-17.6-58.6-48.8-154.1-76.6-193.9
	c-0.2-0.2-0.3-0.4-0.4-0.6c-4.2-6-8.4-10.7-12.4-13.8c-21.2-16.2-40.9-18.9-57.8-15.2c-2.5,0.8-4.9,1.6-7.4,2.1c-0.1,0-0.2,0-0.3,0
	c-9.7,3.4-18.4,8.7-25.6,14.3c-9.2,7.2-18,16.5-26,27.5l-0.6,0.8c-4.5,6.5-45.5,66.8-83.1,195.5c-37.6,128.8-58.2,322.7-60.4,344.5
	C204,1453.2,209.1,1453,216.3,1452.2z M265,1567.9c-0.7-2.3-1-7.9-0.9-17c-3.8,0.5-11.6,1.6-15,1.4c-2.1-0.1-5.5-0.2-21.8-96.1
	l-0.3-1.8c-2.5,0.4-4.9,0.7-7.4,1c-1,0.1-2,0.2-2.9,0.3c-7.1,1-12.2,2.9-13.8,5c-0.4,0.6-0.6,1.1-0.5,1.8c1.6,10.2,3,21.2,4.4,31.9
	c6.4,50.8,13,103.3,48.3,105.6c19.7,1.2,55.9-1.8,63.7-2.5c-1.3-4.7-17.9-11.4-29.3-16C274.8,1575.6,266.3,1572,265,1567.9z
	 M316.4,1507.2c-26.3-10.1-43.1-27.7-53-41.6c-5.3-7.5-8.3-13.5-9.5-16.1c-7.9,1.7-15.8,3.2-23.3,4.4l0.3,1.7
	c8.8,51.4,16.3,88.3,19.1,93.1c3.6,0,11.1-1,14.3-1.5l0-0.4c0.5-19,2.4-44.2,2.4-44.5c0-0.5,0.3-0.9,0.7-1.3
	c0.4-0.3,0.9-0.5,1.4-0.4C269.1,1500.8,287.6,1503.4,316.4,1507.2z M408.6,1509c-11.2,2.9-21.7,4.7-31.6,5.6
	c9.7,1.1,19.8,2.3,30.1,3.4L408.6,1509z M410.4,1504.9c3.2-0.9,6.5-1.8,9.8-2.9c0.6-0.2,1.1-0.4,1.7-0.6l0.9-0.3
	c46.4-15.2,103.5-49,169.7-100.3c0,0,0,0,0,0c69.2-53.7,123.6-107.8,124.2-108.4c0.7-0.7,1.8-0.7,2.5,0c0.7,0.7,0.7,1.8,0,2.5
	c-0.5,0.5-55,54.7-124.2,108.4l-1.2,2.9l84.5,21.9c59.5-89.7,95.7-149.9,104.5-174.1c12.2-33.3-1.1-52.1-10.1-60.4
	c-12.3-11.3-29-14.8-36.9-11.1c-16.3,7.7-232.4,95.4-251.7,103.3c-1.1,24.7-2.2,49.5-3.2,69.7l-0.9,18c-2.4,47.9-2.4,55.5-2.4,55.6
	c0,0.7-0.4,1.3-1,1.6c-0.6,0.3-1.4,0.2-1.9-0.2c-0.3-0.3-31.4-25.9-81.8-26.9c-3.1-0.1-6.2,0-9.2,0.1c-33.1,1.3-45.9,9.5-60.8,19
	c-5,3.2-10.1,6.5-16.3,9.7c-8.1,4.2-16.8,7.6-26.4,10.4c-7.5,2.2-15,4.1-22.3,5.8c-0.2,0-0.3,0.1-0.5,0.1c1.3,2.8,4.2,8.2,8.8,14.8
	c18.2,25.6,60.6,63.8,144,41.4C410.3,1504.9,410.4,1504.9,410.4,1504.9z M592.5,1409.6l-16.1,39l70.7,26
	c10.1-14.9,19.9-29.5,29.1-43.4L592.5,1409.6z M539.3,1529.4l50.1-121.7c-64.3,49.3-119.9,81.9-165.5,96.8l-0.9,0.3
	c-0.6,0.2-1.2,0.4-1.7,0.6c-3,0.9-6,1.8-8.9,2.6l-1.7,10.4C459.9,1523.7,503.2,1527.4,539.3,1529.4z M636.1,1589.7
	c-2.1,7.2-12.7,6.8-31.7,3.7c-18-3-72.5-12.1-81.9-13.7l-12.8,31.2c8.8,0.8,40.6,3.8,79.4,6.5c45.4,3.2,103.3,4,117-4.4
	c2.9-1.8,2.7-3.2,2.6-3.7c-0.9-5.9-19.5-16.7-59.4-27.5c-3.5-0.9-6.8-1.9-9.9-2.8C638.6,1581.3,637.2,1585.9,636.1,1589.7z
	 M645.1,1477.7l-70-25.8l-32.9,80c0,0,0,0.1,0,0.1l-18.2,44.3c11.4,1.9,63.5,10.7,81.1,13.6c18.7,3.1,26.5,2.8,27.6-1.2
	c1.1-3.8,2.6-8.4,3.3-10.9c-31-9.7-43.7-18.8-44.3-19.3c-0.8-0.6-1-1.7-0.4-2.5C591.5,1555.8,615,1522.2,645.1,1477.7z
	 M674.1,1441.5l-0.3-0.2c-7.9,11.8-16.1,24-24.5,36.4c0,0-0.1,0.1-0.1,0.1c-14.7,21.7-27.9,41-37.7,55.2c57.7,2.8,95-6.4,102.5-25.4
	C720.4,1492,706.6,1469.1,674.1,1441.5z M724.9,1363.3c-12.8,20.2-27.6,42.8-44.2,67.8c0,0-0.1,0.1-0.1,0.1
	c-1.6,2.3-3.1,4.7-4.7,7.1c0,0,0.1,0,0.1,0.1l0.5,0.4c28.6,24.3,42.9,44.8,42.7,61.1h5.7L724.9,1363.3L724.9,1363.3z M826.3,1531.2
	l-5.5-65.8h-92.4v65.8H826.3z M1202.3,1238.5h-18.1h-48.8H822.5c0,0,0,0,0,0h-7.9h-8.9l29.6,356.9h337.5L1202.3,1238.5z
	 M1266.8,1465.4H1187l-5.5,65.8h85.2L1266.8,1465.4L1266.8,1465.4z M1266.8,949H728.4v182.8l34-1.5c0,0,5-0.8,35,2.5
	c1.5-1.2,5.7-4.4,10.6-7c0-0.1,0-0.1,0-0.2c23.8-84.4,101.8-143.3,189.6-143.3c108.6,0,197,88.4,197,197c0,18.9-2.7,37.6-8,55.6
	h17.7c0.5,0,1,0.2,1.3,0.6c0.3,0.4,0.5,0.9,0.5,1.4l-18.7,225h79.4L1266.8,949L1266.8,949z M1266.8,804.2H954.6h-43.9h-28.8H781.7
	h-53.3v141.2h538.4L1266.8,804.2L1266.8,804.2z M1149.7,1285.4v112.3c0,8.7-7.2,15.7-16.1,15.7c-8.9,0-16.1-7-16.1-15.7v-112.3
	c0-8.7,7.2-15.7,16.1-15.7C1142.5,1269.7,1149.7,1276.8,1149.7,1285.4z M1146.1,1285.4c0-6.7-5.6-12.1-12.5-12.1
	c-6.9,0-12.5,5.4-12.5,12.1v112.3c0,6.7,5.6,12.1,12.5,12.1c6.9,0,12.5-5.4,12.5-12.1V1285.4z M1063.3,1285.4v112.3
	c0,8.7-7.2,15.7-16.1,15.7c-8.9,0-16.1-7-16.1-15.7v-112.3c0-8.7,7.2-15.7,16.1-15.7C1056.1,1269.7,1063.3,1276.8,1063.3,1285.4z
	 M1059.7,1285.4c0-6.7-5.6-12.1-12.5-12.1c-6.9,0-12.5,5.4-12.5,12.1v112.3c0,6.7,5.6,12.1,12.5,12.1c6.9,0,12.5-5.4,12.5-12.1
	V1285.4z M1106.5,1285.4v112.3c0,8.7-7.2,15.7-16.1,15.7s-16.1-7-16.1-15.7v-112.3c0-8.7,7.2-15.7,16.1-15.7
	S1106.5,1276.8,1106.5,1285.4z M1102.9,1285.4c0-6.7-5.6-12.1-12.5-12.1c-6.9,0-12.5,5.4-12.5,12.1v112.3c0,6.7,5.6,12.1,12.5,12.1
	c6.9,0,12.5-5.4,12.5-12.1V1285.4z M976.7,1285.4v112.3c0,8.7-7.2,15.7-16.1,15.7c-8.9,0-16.1-7-16.1-15.7v-112.3
	c0-8.7,7.2-15.7,16.1-15.7C969.5,1269.7,976.7,1276.8,976.7,1285.4z M973.1,1285.4c0-6.7-5.6-12.1-12.5-12.1
	c-6.9,0-12.5,5.4-12.5,12.1v112.3c0,6.7,5.6,12.1,12.5,12.1c6.9,0,12.5-5.4,12.5-12.1V1285.4z M890.3,1285.4v112.3
	c0,8.7-7.2,15.7-16,15.7c-8.8,0-16-7-16-15.7v-112.3c0-8.7,7.2-15.7,16-15.7C883.1,1269.7,890.3,1276.8,890.3,1285.4z M886.7,1285.4
	c0-6.7-5.6-12.1-12.5-12.1c-6.9,0-12.5,5.4-12.5,12.1v112.3c0,6.7,5.6,12.1,12.5,12.1c6.9,0,12.5-5.4,12.5-12.1V1285.4z
	 M1149.7,1436.2v112.3c0,8.7-7.2,15.7-16.1,15.7c-8.9,0-16.1-7-16.1-15.7v-112.3c0-8.7,7.2-15.7,16.1-15.7
	C1142.5,1420.5,1149.7,1427.6,1149.7,1436.2z M1146.1,1436.2c0-6.7-5.6-12.1-12.5-12.1c-6.9,0-12.5,5.4-12.5,12.1v112.3
	c0,6.7,5.6,12.1,12.5,12.1c6.9,0,12.5-5.4,12.5-12.1V1436.2z M550.4,827.3c-0.1,0-5.8,0.2-12.7-1c-6.8-1.2-16.1-5.2-16.2-5.2
	c-0.9-0.4-2,0-2.4,0.9s0,2,0.9,2.3c0.4,0.2,9.8,4.3,17.1,5.5c5.6,1,10.5,1.1,12.4,1.1c0.5,0,0.9,0,0.9,0c1,0,1.8-0.9,1.7-1.8
	C552.2,828.1,551.4,827.4,550.4,827.3z M933.5,1285.4v112.3c0,8.7-7.2,15.7-16.1,15.7c-8.9,0-16.1-7-16.1-15.7v-112.3
	c0-8.7,7.2-15.7,16.1-15.7C926.3,1269.7,933.5,1276.8,933.5,1285.4z M929.9,1285.4c0-6.7-5.6-12.1-12.5-12.1
	c-6.9,0-12.5,5.4-12.5,12.1v112.3c0,6.7,5.6,12.1,12.5,12.1c6.9,0,12.5-5.4,12.5-12.1V1285.4z M1019.9,1285.4v112.3
	c0,8.7-7.2,15.7-16.1,15.7c-8.9,0-16.1-7-16.1-15.7v-112.3c0-8.7,7.2-15.7,16.1-15.7C1012.7,1269.7,1019.9,1276.8,1019.9,1285.4z
	 M1016.3,1285.4c0-6.7-5.6-12.1-12.5-12.1s-12.5,5.4-12.5,12.1v112.3c0,6.7,5.6,12.1,12.5,12.1s12.5-5.4,12.5-12.1V1285.4z
	 M1019.9,1436.2v112.3c0,8.7-7.2,15.7-16.1,15.7c-8.9,0-16.1-7-16.1-15.7v-112.3c0-8.7,7.2-15.7,16.1-15.7
	C1012.7,1420.5,1019.9,1427.6,1019.9,1436.2z M1016.3,1436.2c0-6.7-5.6-12.1-12.5-12.1s-12.5,5.4-12.5,12.1v112.3
	c0,6.7,5.6,12.1,12.5,12.1s12.5-5.4,12.5-12.1V1436.2z M976.7,1436.2v112.3c0,8.7-7.2,15.7-16.1,15.7c-8.9,0-16.1-7-16.1-15.7
	v-112.3c0-8.7,7.2-15.7,16.1-15.7C969.5,1420.5,976.7,1427.6,976.7,1436.2z M973.1,1436.2c0-6.7-5.6-12.1-12.5-12.1
	c-6.9,0-12.5,5.4-12.5,12.1v112.3c0,6.7,5.6,12.1,12.5,12.1c6.9,0,12.5-5.4,12.5-12.1V1436.2z M890.3,1436.2v112.3
	c0,8.7-7.2,15.7-16,15.7c-8.8,0-16-7-16-15.7v-112.3c0-8.7,7.2-15.7,16-15.7C883.1,1420.5,890.3,1427.6,890.3,1436.2z M886.7,1436.2
	c0-6.7-5.6-12.1-12.5-12.1c-6.9,0-12.5,5.4-12.5,12.1v112.3c0,6.7,5.6,12.1,12.5,12.1c6.9,0,12.5-5.4,12.5-12.1V1436.2z
	 M933.5,1436.2v112.3c0,8.7-7.2,15.7-16.1,15.7c-8.9,0-16.1-7-16.1-15.7v-112.3c0-8.7,7.2-15.7,16.1-15.7
	C926.3,1420.5,933.5,1427.6,933.5,1436.2z M929.9,1436.2c0-6.7-5.6-12.1-12.5-12.1c-6.9,0-12.5,5.4-12.5,12.1v112.3
	c0,6.7,5.6,12.1,12.5,12.1c6.9,0,12.5-5.4,12.5-12.1V1436.2z M1106.5,1436.2v112.3c0,8.7-7.2,15.7-16.1,15.7s-16.1-7-16.1-15.7
	v-112.3c0-8.7,7.2-15.7,16.1-15.7S1106.5,1427.6,1106.5,1436.2z M1102.9,1436.2c0-6.7-5.6-12.1-12.5-12.1c-6.9,0-12.5,5.4-12.5,12.1
	v112.3c0,6.7,5.6,12.1,12.5,12.1c6.9,0,12.5-5.4,12.5-12.1V1436.2z M1063.3,1436.2v112.3c0,8.7-7.2,15.7-16.1,15.7
	c-8.9,0-16.1-7-16.1-15.7v-112.3c0-8.7,7.2-15.7,16.1-15.7C1056.1,1420.5,1063.3,1427.6,1063.3,1436.2z M1059.7,1436.2
	c0-6.7-5.6-12.1-12.5-12.1c-6.9,0-12.5,5.4-12.5,12.1v112.3c0,6.7,5.6,12.1,12.5,12.1c6.9,0,12.5-5.4,12.5-12.1V1436.2z
	 M512.4,741.5l-0.5,0.4c-1.5,1.3-1.7,3.6-0.4,5.1c0.7,0.8,1.7,1.3,2.7,1.3c0.8,0,1.7-0.3,2.3-0.9l0.5-0.4c5.8-5,14.6-12.6,37.5-8.6
	c1.9,0.3,3.8-1,4.2-2.9s-1-3.8-2.9-4.2C529.6,726.7,518.8,735.9,512.4,741.5z M549.4,775.2c0-4.6-1.6-8.3-3.6-8.3
	c-2,0-3.6,3.7-3.6,8.3c0,4.6,1.6,8.3,3.6,8.3C547.8,783.5,549.4,779.8,549.4,775.2z M823.8,641.4c1.2,1.6,1.3,3.9,0.3,7.6L809,705.2
	c-0.9,3.3-2.4,7.2-5.9,7.3c-0.4,0-0.7,0-1.1,0c-4.1,0-7.1-1-9.2-3c-4.8-4.7-4.7-14.3-4.5-31.8l0.1-6.2c0.1-14.5,5.4-31.9,29.7-31.9
	h0.4C820.2,639.6,822.5,639.6,823.8,641.4z M821,643.6c-0.2-0.3-1.3-0.4-2.2-0.4c-0.1,0-0.2,0-0.3,0h-0.4
	c-17.1,0-25.9,9.5-26.1,28.3l-0.1,6.2c-0.2,16-0.3,25.6,3.4,29.2c1.5,1.5,4,2.1,7.7,2c0.9,0,1.8-1.7,2.6-4.7l15.2-56.2
	C821.6,644.6,821.1,643.7,821,643.6z M1516,1340.5c1.1,0.1,1.8-0.7,1.9-1.7c0.1-1-0.7-1.8-1.7-1.9c-1.1-0.1-27.7-1.8-55.1,10.6
	c-19.1,8.6-37.6,20.4-47,26.7c-1.3,0.8-2.4,1.6-3.3,2.2c1.4-16.1,2.9-32.7,4.6-49.7c0-0.3,0.1-0.7,0.1-1c0.1-0.6,0.1-1.1,0.2-1.7
	c0-0.2,0.1-0.3,0.1-0.5c0.7-6.2,1.4-12.4,2.1-18.7c1.1-0.5,3.2-1.6,6.3-3.1c9-4.1,26.1-11.3,50-17.9c35.8-9.9,63.2-3.2,63.4-3.2
	c1,0.3,1.9-0.3,2.2-1.3c0.2-1-0.3-1.9-1.3-2.2c-1.1-0.3-28.5-7-65.2,3.2c-24,6.6-41.3,13.8-50.5,18c-1.8,0.8-3.3,1.5-4.4,2.1
	c0.6-4.7,1.2-9.5,1.8-14.3c0.1-0.3,0.2-0.6,0.1-0.9c1.2-9.1,2.6-18.3,4.1-27.5c0,0,0-0.1,0-0.1c0-0.1,1.2-2.4,4.4-6.3
	c6.9-8.3,23.3-23.8,58.9-41c52.3-25.2,84-10,84.3-9.8c0.9,0.4,2,0.1,2.4-0.8c0.4-0.9,0.1-2-0.8-2.4c-1.3-0.7-33.4-16.3-87.5,9.8
	c-25.5,12.3-41.4,23.8-51,32.5c-4.2,3.8-7.3,7.1-9.4,9.8c2.5-14.2,5.3-28.3,8.6-42.3c0.3-0.4,0.5-0.9,0.4-1.5
	c2.5-10.6,5.3-21.2,8.5-31.6c0.1-0.1,0.1-0.1,0.2-0.2c0,0,0.9-1.2,3.8-3.4c4.6-3.6,14.5-10.1,34.3-19.6
	c32.6-15.6,79.6-13.3,80.1-13.3c1.1,0,1.8-0.7,1.9-1.7c0.1-1-0.7-1.8-1.7-1.9c-2-0.1-48.4-2.4-81.8,13.6c-10.3,4.9-17.9,9-23.6,12.4
	c-5.1,3.1-8.7,5.5-11.1,7.4c2-6.4,4.2-12.7,6.5-19c0.8-2.3,1.6-4.5,2.5-6.8c0.3-0.7,0.5-1.5,0.8-2.2c0.3-0.3,0.6-0.6,0.7-1.1
	c0-0.1,0.1-0.4,0.2-1c0.3-0.8,0.7-1.6,1-2.3c5.7-14.3,12.3-28.1,19.7-41.4c24.9-44.6,60-82.1,110-106.2c0.9-0.4,1.3-1.5,0.8-2.4
	c-0.4-0.9-1.5-1.3-2.4-0.8c-53.2,25.6-89.7,66.1-115.1,114c-4.6,8.7-8.9,17.6-12.8,26.7c-0.3,0.8-0.7,1.5-1,2.3
	c-0.5-10.2-3-27.5-12.3-52c-15.8-41.8-27.6-48.8-28-49.1c-0.9-0.5-1.9-0.2-2.4,0.7c-0.5,0.8-0.2,1.9,0.6,2.4
	c0.1,0.1,11.3,7.2,26.5,47.3c13.2,34.9,12.4,54.9,11.8,59.9c-0.8,2-1.5,4-2.3,6.1c-7,18.5-12.8,37.7-17.6,57.2
	c-0.1-0.3-0.2-0.6-0.4-0.9c-3.2-7.3-10-21.1-24.1-43c-12.5-19.5-27.2-34-43.8-43.2c-0.3-0.1-0.5-0.3-0.7-0.4c-0.8-1-2.9-0.7-3.3,0.7
	c-0.4,1.4,0.7,2,2.2,2.8c16,8.8,30.3,23,42.5,42c19.2,30,24.8,44.6,26,48c-0.1,0.3-0.2,0.7-0.2,1.1c-5.4,22.9-9.5,46.2-12.8,69.3
	c0,0.3-0.1,0.6-0.1,0.9c-3.4-9.7-11.1-27.2-26.7-47.1c-23.4-29.8-48.7-42.1-49.8-42.7c-0.9-0.4-2-0.1-2.4,0.8
	c-0.4,0.9-0.1,2,0.8,2.4c0.3,0.1,25.6,12.6,48.5,41.6c20.5,26,27,48.3,28.2,52.9c0,0.2,0.1,0.3,0.1,0.5c-1.6,11.6-2.9,23.1-4.2,34.5
	c-0.8-0.6-1.9-1.4-3.1-2.3c-6.3-4.4-18.3-11.8-39.5-22c-34.8-16.8-69.2-17.3-69.5-17.3c0,0,0,0,0,0c-1,0-1.8,0.8-1.8,1.8
	c0,1,0.8,1.8,1.8,1.8c0.3,0,33.9,0.5,68,16.9c29.3,14.1,41,23,43.7,25.3c0,0.4-0.1,0.9-0.1,1.3c-2.3,22.2-4.1,43.8-5.9,64.3
	l-0.5,6.1c0,0.1,0,0.1,0,0.2c0,0.9,0.7,1.7,1.6,1.8c0.1,0,0.1,0,0.2,0c0.9,0,1.7-0.7,1.8-1.6l0-0.1l0.5-6c0.3-3,0.5-6.1,0.8-9.1
	c0.8-0.5,2.2-1.5,4.1-2.8c8.7-5.9,28.1-18.4,48.1-27.4C1489.1,1338.8,1515.7,1340.4,1516,1340.5z"/>
<path id="color_x5F_w" class="st1" d="M377,1514.6c9.8-0.9,20.3-2.7,31.6-5.6l-1.5,9C396.8,1516.9,386.7,1515.8,377,1514.6z
	 M645.1,1477.7l-70-25.8l-32.9,80c0,0,0,0.1,0,0.1l-18.2,44.3c11.4,1.9,63.5,10.7,81.1,13.6c18.7,3.1,26.5,2.8,27.6-1.2
	c1.1-3.8,2.6-8.4,3.3-10.9c-31-9.7-43.7-18.8-44.3-19.3c-0.8-0.6-1-1.7-0.4-2.5C591.5,1555.8,615,1522.2,645.1,1477.7z
	 M263.4,1465.6c-5.3-7.5-8.3-13.5-9.5-16.1c-7.9,1.7-15.8,3.2-23.3,4.4l0.3,1.7c8.8,51.4,16.3,88.3,19.1,93.1c3.6,0,11.1-1,14.3-1.5
	l0-0.4c0.5-19,2.4-44.2,2.4-44.5c0-0.5,0.3-0.9,0.7-1.3c0.4-0.3,0.9-0.5,1.4-0.4c0.3,0.1,18.9,2.7,47.7,6.4
	C290.1,1497.1,273.3,1479.5,263.4,1465.6z M1202.3,1238.5l-29.6,356.9H835.2l-29.6-356.9h8.9h7.9c0,0,0,0,0,0h312.9h48.8H1202.3z
	 M890.3,1436.2c0-8.7-7.2-15.7-16-15.7c-8.8,0-16,7-16,15.7v112.3c0,8.7,7.2,15.7,16,15.7c8.9,0,16-7,16-15.7V1436.2z M890.3,1285.4
	c0-8.7-7.2-15.7-16-15.7c-8.8,0-16,7-16,15.7v112.3c0,8.7,7.2,15.7,16,15.7c8.9,0,16-7,16-15.7V1285.4z M933.5,1436.2
	c0-8.7-7.2-15.7-16.1-15.7c-8.9,0-16.1,7-16.1,15.7v112.3c0,8.7,7.2,15.7,16.1,15.7c8.9,0,16.1-7,16.1-15.7V1436.2z M933.5,1285.4
	c0-8.7-7.2-15.7-16.1-15.7c-8.9,0-16.1,7-16.1,15.7v112.3c0,8.7,7.2,15.7,16.1,15.7c8.9,0,16.1-7,16.1-15.7V1285.4z M976.7,1436.2
	c0-8.7-7.2-15.7-16.1-15.7c-8.9,0-16.1,7-16.1,15.7v112.3c0,8.7,7.2,15.7,16.1,15.7c8.9,0,16.1-7,16.1-15.7V1436.2z M976.7,1285.4
	c0-8.7-7.2-15.7-16.1-15.7c-8.9,0-16.1,7-16.1,15.7v112.3c0,8.7,7.2,15.7,16.1,15.7c8.9,0,16.1-7,16.1-15.7V1285.4z M1019.9,1436.2
	c0-8.7-7.2-15.7-16.1-15.7c-8.9,0-16.1,7-16.1,15.7v112.3c0,8.7,7.2,15.7,16.1,15.7c8.9,0,16.1-7,16.1-15.7V1436.2z M1019.9,1285.4
	c0-8.7-7.2-15.7-16.1-15.7c-8.9,0-16.1,7-16.1,15.7v112.3c0,8.7,7.2,15.7,16.1,15.7c8.9,0,16.1-7,16.1-15.7V1285.4z M1063.3,1436.2
	c0-8.7-7.2-15.7-16.1-15.7c-8.9,0-16.1,7-16.1,15.7v112.3c0,8.7,7.2,15.7,16.1,15.7c8.9,0,16.1-7,16.1-15.7V1436.2z M1063.3,1285.4
	c0-8.7-7.2-15.7-16.1-15.7c-8.9,0-16.1,7-16.1,15.7v112.3c0,8.7,7.2,15.7,16.1,15.7c8.9,0,16.1-7,16.1-15.7V1285.4z M1106.5,1436.2
	c0-8.7-7.2-15.7-16.1-15.7s-16.1,7-16.1,15.7v112.3c0,8.7,7.2,15.7,16.1,15.7s16.1-7,16.1-15.7V1436.2z M1106.5,1285.4
	c0-8.7-7.2-15.7-16.1-15.7s-16.1,7-16.1,15.7v112.3c0,8.7,7.2,15.7,16.1,15.7s16.1-7,16.1-15.7V1285.4z M1149.7,1436.2
	c0-8.7-7.2-15.7-16.1-15.7c-8.9,0-16.1,7-16.1,15.7v112.3c0,8.7,7.2,15.7,16.1,15.7c8.9,0,16.1-7,16.1-15.7V1436.2z M1149.7,1285.4
	c0-8.7-7.2-15.7-16.1-15.7c-8.9,0-16.1,7-16.1,15.7v112.3c0,8.7,7.2,15.7,16.1,15.7c8.9,0,16.1-7,16.1-15.7V1285.4z M952.9,800.6
	l4.4-70.9H908l4.4,70.9H952.9z M874.2,1273.3c-6.9,0-12.5,5.4-12.5,12.1v112.3c0,6.7,5.6,12.1,12.5,12.1c6.9,0,12.5-5.4,12.5-12.1
	v-112.3C886.7,1278.7,881.1,1273.3,874.2,1273.3z M954.6,804.2h-43.9h-28.8H781.7h-53.3v141.2h538.4V804.2H954.6z M658.9,1155.6
	c2.1,16.4,2.4,31.5,0.9,42.1c52.3-12.4,100.8-25.8,101.3-26c0.4-0.1,0.9-0.1,1.3,0.1c17.4,9.2,32.5,10.1,51.5,10.2l-5.6-44.5
	c-3.8-0.5-7.2-0.9-10.4-1.2c0,0-0.1,0-0.1,0c-29.4-3.3-34.7-2.6-34.9-2.6l-36.1,1.6c0,0,0,0-0.1,0c0,0,0,0,0,0l-70.6,3.1
	c0.2,0.9,0.4,1.8,0.6,2.8C657.4,1145.7,658.2,1150.6,658.9,1155.6z M1133.7,1424.1c-6.9,0-12.5,5.4-12.5,12.1v112.3
	c0,6.7,5.6,12.1,12.5,12.1c6.9,0,12.5-5.4,12.5-12.1v-112.3C1146.1,1429.5,1140.5,1424.1,1133.7,1424.1z M1182.9,1235
	c5.4-18,8.1-36.7,8.1-55.6c0-106.6-86.8-193.4-193.4-193.4c-85.2,0-161,56.6-185.3,137.9c3.3-1.3,6.6-2,9.3-1.5
	c7.2,1.4,19.1,3.7,33.6,6.6c21-60.2,78-100.6,142.4-100.6c83.3,0,151,67.7,151,151c0,19.2-3.6,37.9-10.6,55.6L1182.9,1235
	L1182.9,1235z M1133.7,1273.3c-6.9,0-12.5,5.4-12.5,12.1v112.3c0,6.7,5.6,12.1,12.5,12.1c6.9,0,12.5-5.4,12.5-12.1v-112.3
	C1146.1,1278.7,1140.5,1273.3,1133.7,1273.3z M728.4,1131.8l34-1.5c0,0,5-0.8,35,2.5c1.5-1.2,5.7-4.4,10.6-7c0-0.1,0-0.1,0-0.2
	c23.8-84.4,101.8-143.3,189.6-143.3c108.6,0,197,88.4,197,197c0,18.9-2.7,37.6-8,55.6h17.7c0.5,0,1,0.2,1.3,0.6
	c0.3,0.4,0.5,0.9,0.5,1.4l-18.7,225h79.4V949H728.4V1131.8z M803.6,1235h6.8c-4.8-5.1-14.6-15.6-21.7-23.3c3.6,10.7,4.4,25-2.4,43.6
	c-6.4,17.4-25.8,51.7-57.8,102.4v104.2h92.1l-18.7-225c0-0.5,0.1-1,0.5-1.4C802.7,1235.2,803.1,1235,803.6,1235z M775.7,1181.3
	c-4.7-1.4-9.5-3.4-14.5-5.9c-1.5,0.4-5.2,1.4-10.8,2.9c8,1.6,17,5.7,24.7,12.7c0.8,0.7,1.6,1.5,2.4,2.3
	C776.7,1189,776.1,1184.2,775.7,1181.3z M728.4,1465.4v65.8h97.9l-5.5-65.8H728.4z M576.4,1448.6l70.7,26
	c10.1-14.9,19.9-29.5,29.1-43.4l-83.7-21.7L576.4,1448.6z M917.4,1273.3c-6.9,0-12.5,5.4-12.5,12.1v112.3c0,6.7,5.6,12.1,12.5,12.1
	c6.9,0,12.5-5.4,12.5-12.1v-112.3C929.9,1278.7,924.3,1273.3,917.4,1273.3z M1090.4,1273.3c-6.9,0-12.5,5.4-12.5,12.1v112.3
	c0,6.7,5.6,12.1,12.5,12.1c6.9,0,12.5-5.4,12.5-12.1v-112.3C1102.9,1278.7,1097.3,1273.3,1090.4,1273.3z M508.2,864
	c-4.4-1.9-8.6-4-12.5-6.2l-0.6-0.4c-24.1-13.7-30.8-28.1-31.9-30.8l-0.1-0.3c-0.3-0.9-1.3-1.4-2.3-1.1c-0.9,0.3-1.4,1.3-1.1,2.3
	c0,0,0.1,0.2,0.2,0.5c1.2,2.9,8.1,17.7,32.1,31.7l-15.5,33.6c-3.9-5.3-7.8-9.5-11.5-12.4c-15.1-11.5-30.9-17.2-46.8-17.2
	c-0.6,0-1.2,0-1.9,0c11.9-6.1,22.7-14.8,29.5-24.4c6-8.5,8.7-17.3,8.1-26.3c0-0.5-0.3-0.9-0.6-1.3s-0.9-0.5-1.3-0.4
	c-5,0.6-9.7,0.3-13.8-0.8c-15.7-4.3-21.4-20.3-20.2-33.4c0.9-8.9,5.5-19.5,15.6-20.3c16.4-1.3,21.8,21.8,21.9,22
	c0.2,0.8,0.9,1.4,1.7,1.4c5.5,0.1,10.7-0.8,15.4-2.7c9.7-3.9,17.6-12.3,23.4-24.8c3.8-8.2,6.8-18.4,9-30.3
	c7.3-40.4,35.3-45.7,39-46.2c5.6,1.8,9.8,4.6,13,8.7c7.8,9.8,8.2,25.6,8.7,42.3c0.6,20.7,1.3,44.1,16,61.6c3.5,4.1,4.1,7.8,1.7,10.8
	c-3.7,4.8-13.6,6.8-17,5.2c-0.5-0.2-1.1-0.2-1.7,0.1c-0.5,0.3-0.8,0.8-0.9,1.4c0,0.4-3.9,45.2-6.5,54.1c-1.3,4.7-4.1,8-8.2,9.9
	C540.5,874.3,526.8,872.2,508.2,864z M517.1,746.9c5.8-5,14.6-12.6,37.5-8.6c1.9,0.3,3.8-1,4.2-2.9s-1-3.8-2.9-4.2
	c-26.2-4.5-36.9,4.7-43.4,10.3l-0.5,0.4c-1.5,1.3-1.7,3.6-0.4,5.1c0.7,0.8,1.7,1.3,2.7,1.3c0.8,0,1.7-0.3,2.3-0.9L517.1,746.9z
	 M545.9,766.9c-2,0-3.6,3.7-3.6,8.3c0,4.6,1.6,8.3,3.6,8.3c2,0,3.6-3.7,3.6-8.3C549.4,770.6,547.8,766.9,545.9,766.9z M537.1,829.8
	c5.6,1,10.5,1.1,12.4,1.1c0.5,0,0.9,0,0.9,0c1,0,1.8-0.9,1.7-1.8c0-1-0.8-1.7-1.8-1.7c-0.1,0-5.8,0.2-12.7-1
	c-6.8-1.2-16.1-5.2-16.2-5.2c-0.9-0.4-2,0-2.4,0.9s0,2,0.9,2.3C520.5,824.5,529.9,828.6,537.1,829.8z M960.6,1273.3
	c-6.9,0-12.5,5.4-12.5,12.1v112.3c0,6.7,5.6,12.1,12.5,12.1c6.9,0,12.5-5.4,12.5-12.1v-112.3
	C973.1,1278.7,967.5,1273.3,960.6,1273.3z M1047.2,1273.3c-6.9,0-12.5,5.4-12.5,12.1v112.3c0,6.7,5.6,12.1,12.5,12.1
	c6.9,0,12.5-5.4,12.5-12.1v-112.3C1059.7,1278.7,1054.1,1273.3,1047.2,1273.3z M1003.8,1273.3c-6.9,0-12.5,5.4-12.5,12.1v112.3
	c0,6.7,5.6,12.1,12.5,12.1c6.9,0,12.5-5.4,12.5-12.1v-112.3C1016.3,1278.7,1010.7,1273.3,1003.8,1273.3z M874.2,1424.1
	c-6.9,0-12.5,5.4-12.5,12.1v112.3c0,6.7,5.6,12.1,12.5,12.1c6.9,0,12.5-5.4,12.5-12.1v-112.3
	C886.7,1429.5,881.1,1424.1,874.2,1424.1z M1047.2,1424.1c-6.9,0-12.5,5.4-12.5,12.1v112.3c0,6.7,5.6,12.1,12.5,12.1
	c6.9,0,12.5-5.4,12.5-12.1v-112.3C1059.7,1429.5,1054.1,1424.1,1047.2,1424.1z M1003.8,1424.1c-6.9,0-12.5,5.4-12.5,12.1v112.3
	c0,6.7,5.6,12.1,12.5,12.1c6.9,0,12.5-5.4,12.5-12.1v-112.3C1016.3,1429.5,1010.7,1424.1,1003.8,1424.1z M1090.4,1424.1
	c-6.9,0-12.5,5.4-12.5,12.1v112.3c0,6.7,5.6,12.1,12.5,12.1c6.9,0,12.5-5.4,12.5-12.1v-112.3
	C1102.9,1429.5,1097.3,1424.1,1090.4,1424.1z M960.6,1424.1c-6.9,0-12.5,5.4-12.5,12.1v112.3c0,6.7,5.6,12.1,12.5,12.1
	c6.9,0,12.5-5.4,12.5-12.1v-112.3C973.1,1429.5,967.5,1424.1,960.6,1424.1z M917.4,1424.1c-6.9,0-12.5,5.4-12.5,12.1v112.3
	c0,6.7,5.6,12.1,12.5,12.1c6.9,0,12.5-5.4,12.5-12.1v-112.3C929.9,1429.5,924.3,1424.1,917.4,1424.1z M1181.6,1531.2h85.2v-65.8
	H1187L1181.6,1531.2z"/>
<path id="color_x5F_3" class="st2" d="M423.9,1504.5c45.6-14.9,101.2-47.5,165.5-96.8l-50.1,121.7c-36.1-2-79.4-5.7-128.7-11
	l1.7-10.4c2.9-0.8,5.9-1.7,8.9-2.6c0.6-0.2,1.2-0.4,1.7-0.6L423.9,1504.5z M674.1,1441.5l-0.3-0.2c-7.9,11.8-16.1,24-24.5,36.4
	c0,0-0.1,0.1-0.1,0.1c-14.7,21.7-27.9,41-37.7,55.2c57.7,2.8,95-6.4,102.5-25.4C720.4,1492,706.6,1469.1,674.1,1441.5z
	 M772.8,1193.7c-12.3-11.3-29-14.8-36.9-11.1c-16.3,7.7-232.4,95.4-251.7,103.3c-1.1,24.7-2.2,49.5-3.2,69.7l-0.9,18
	c-2.4,47.9-2.4,55.5-2.4,55.6c0,0.7-0.4,1.3-1,1.6c-0.6,0.3-1.4,0.2-1.9-0.2c-0.3-0.3-31.4-25.9-81.8-26.9c-3.1-0.1-6.2,0-9.2,0.1
	c-33.1,1.3-45.9,9.5-60.8,19c-5,3.2-10.1,6.5-16.3,9.7c-8.1,4.2-16.8,7.6-26.4,10.4c-7.5,2.2-15,4.1-22.3,5.8
	c-0.2,0-0.3,0.1-0.5,0.1c1.3,2.8,4.2,8.2,8.8,14.8c18.2,25.6,60.6,63.8,144,41.4c0,0,0.1,0,0.1,0c3.2-0.9,6.5-1.8,9.8-2.9
	c0.6-0.2,1.1-0.4,1.7-0.6l0.9-0.3c46.4-15.2,103.5-49,169.7-100.3c0,0,0,0,0,0c69.2-53.7,123.6-107.8,124.2-108.4
	c0.7-0.7,1.8-0.7,2.5,0c0.7,0.7,0.7,1.8,0,2.5c-0.5,0.5-55,54.7-124.2,108.4l-1.2,2.9l84.5,21.9c59.5-89.7,95.7-149.9,104.5-174.1
	C795.1,1220.7,781.8,1201.9,772.8,1193.7z M880.7,800.6h-97.3V662c0-20.4,20.6-31.6,34.8-31.6h28.6c5.4,0,9.2,2.8,11.7,8.4
	C880.9,691.5,904.1,746,880.7,800.6z M823.8,641.4c-1.4-1.8-3.6-1.8-5.4-1.7h-0.4c-24.3,0-29.5,17.3-29.7,31.9l-0.1,6.2
	c-0.2,17.5-0.3,27.1,4.5,31.8c2.1,2.1,5.1,3,9.2,3c0.4,0,0.7,0,1.1,0c3.5-0.1,5-4,5.9-7.3l15.2-56.2
	C825.1,645.3,825,643,823.8,641.4z"/>
<path id="color_x5F_4" class="st3" d="M680.7,1431.1c16.6-25.1,31.4-47.7,44.2-67.8v136.6h-5.7c0.2-16.3-14.1-36.8-42.7-61.1
	l-0.5-0.4c0,0-0.1,0-0.1-0.1c1.6-2.4,3.2-4.7,4.7-7.1C680.6,1431.2,680.6,1431.2,680.7,1431.1z M1412,1325.6
	c-11.6-3.5-44.7-12.5-87.4-15.1c-53.5-3.2-61.5-49.8-2.3-43.4c43.6,4.7,74.2,35.1,87.2,50.7c1.3,0.9,2.3,1.6,3.1,2.3
	c1.2-11.4,2.6-22.9,4.2-34.5c0-0.1-0.1-0.3-0.1-0.5c-7.5-11.4-29.6-41.4-67.3-61.3c-47.4-25-35.3-70.7,15.8-40.5
	c37.8,22.3,49.4,69.6,52.8,92.9c3.3-23.1,7.4-46.4,12.8-69.3c-7.2-11.1-29.4-41.6-67.6-61.7c-47.4-25-35.3-70.7,15.8-40.5
	c38.5,22.7,49.8,71.5,53.1,94.3c0.1,0.3,0.3,0.6,0.4,0.9c4.8-19.5,10.7-38.7,17.6-57.2c-2.7-9.5-8.5-26.8-18.6-46.1
	c-0.1-0.3-0.3-0.6-0.4-0.8c-6-11.4-13.5-23.5-22.9-35.1c-25.8-32.1-14.5-61.4,7.9-51.5c26.8-161.2,306.4-313.1,173.4-627.4
	C1509.2,191.5,1192.3,98.1,783.2,213C216.1,372.3-45.8,733.9,228.4,1073.7c13.5,16.8,21.7,33.1,25.8,49.3c1.4-5.1,2.8-10.2,4.3-15.1
	c32.3-110.6,67.2-171.1,79.4-190.3c-0.1-0.1-0.2-0.2-0.3-0.3c-7.1-9.8-13.7-116.5,12.6-167.8c9.5-18.5,22.2-28.2,37.8-28.9
	c0.4-11.3,5.4-72.3,71.4-80.3c19.9-2.4,75.8-3.9,95.1,18c6,6.8,7.9,15.3,5.6,25.2c8,10.7,8.5,26.8,9,43.7
	c0.6,21.1,1.2,42.9,15.1,59.4c6.2,7.3,3.8,12.7,1.8,15.3c-4,5.2-13.3,7.9-19,6.9c-0.8,9.2-4.1,44.5-6.4,52.6
	c-1.6,5.6-5.1,9.9-10.1,12.2c-9.4,4.4-24.2,2.3-43.8-6.3c-4.1-1.8-8.1-3.7-11.8-5.8l-16.3,35.2c28.1,41.1,59.2,135.9,76.7,194.3
	c7.3,24.4,12.3,42.7,13.7,47.7l155.7-6.8V802.4c0-1,0.8-1.8,1.8-1.8h53.3V662c0-22.7,22.7-35.2,38.3-35.2h3.5v-14.1
	c0-1,0.8-1.8,1.8-1.8h21.7c1,0,1.8,0.8,1.8,1.8v14.1c6.8,0.1,11.7,3.6,14.7,10.6c22.6,52.9,45.8,107.7,22.8,163.2h24.2l-4.5-72.6
	c0-0.5,0.1-1,0.5-1.3c0.3-0.4,0.8-0.6,1.3-0.6h53.1c0.5,0,1,0.2,1.3,0.6c0.3,0.4,0.5,0.8,0.5,1.3l-4.5,72.6h312.1
	c1,0,1.8,0.8,1.8,1.8v697.5h98.4l-10-81.9h-13.2v-22h60c0-0.1,0-0.1,0-0.2l0.5-6.1C1407.9,1369.3,1409.7,1347.7,1412,1325.6z
	 M818.8,643.2c-0.1,0-0.2,0-0.3,0h-0.4c-17.1,0-25.9,9.5-26.1,28.3l-0.1,6.2c-0.2,16-0.3,25.6,3.4,29.2c1.5,1.5,4,2.1,7.7,2
	c0.9,0,1.8-1.7,2.6-4.7l15.2-56.2c0.9-3.5,0.4-4.3,0.3-4.5C820.8,643.3,819.7,643.2,818.8,643.2z M1424.5,1257.9
	c-1.5,9.2-2.9,18.4-4.1,27.5c0,0.3,0,0.6-0.1,0.9c-0.6,4.8-1.2,9.5-1.8,14.3c1.2-0.6,2.7-1.3,4.4-2.1c12.2-11.3,50.3-42.1,98.9-39.1
	c19.7,1.2,31.1,7,35.6,13.9c-8.3-17.2-18.3-33.1-29-48.2c-39-2-89.1,21.5-99.4,26.5C1425.7,1255.4,1424.5,1257.7,1424.5,1257.9
	C1424.5,1257.8,1424.5,1257.9,1424.5,1257.9z M200.6,1427.7c3.9-34.2,11.7-96.5,23.3-163.6C202.8,1313.7,182.8,1366.5,200.6,1427.7z
	 M1468.4,1149.9c-4-4.9-7.8-9.8-11.5-14.7c-0.3,0.8-0.7,1.6-1,2.3c-0.1,0.6-0.1,0.9-0.2,1c-0.1,0.4-0.3,0.8-0.7,1.1
	c-0.3,0.7-0.5,1.5-0.8,2.2c-1.2,5.4-2.1,8.5-2.1,8.5s-0.1-0.6-0.4-1.7c-2.3,6.3-4.5,12.6-6.5,19c2.4-1.9,6-4.3,11.1-7.4
	C1459.8,1157.1,1463.8,1153.5,1468.4,1149.9z M658,1201.9C658,1201.9,657.9,1201.9,658,1201.9c-60.6,14.3-100.9,21.4-119.9,21
	c-13.2-0.3-29.9-13.7-49.6-39.8c-0.6,14.2-2.3,55.9-4.1,99c21.7-8.8,173.9-70.6,230.1-94.1C697.8,1192.2,678.1,1197.1,658,1201.9z
	 M1443.5,1174c-0.1,0.1-0.1,0.2-0.2,0.2c-3.1,10.4-5.9,20.9-8.5,31.6c0.1,0.5,0,1.1-0.4,1.5c-3.3,14-6.1,28.1-8.6,42.3
	c2.1-2.6,5.2-5.9,9.4-9.8c8.7-11.8,24.9-29.9,50.7-46.5c4-2.6,8.2-4.9,12.5-6.9c-6.6-8-13.2-15.9-19.6-23.6
	c-15.9,2.9-27.4,6.5-31.6,7.9C1444.4,1172.8,1443.5,1174,1443.5,1174z M1559.1,1276.8c4.1,13.3-14.4,28.6-46.9,25
	c-41.5-4.6-75.1-1.6-87.9,0c-3.1,1.4-5.3,2.5-6.3,3.1c-0.7,6.3-1.4,12.5-2.1,18.7c0,0.2,0,0.3-0.1,0.5c-0.1,0.6-0.1,1.1-0.2,1.7
	c0.6,0.9,0.9,1.3,0.9,1.3s-0.3-0.1-1-0.3c-1.8,17-3.3,33.7-4.6,49.7c0.9-0.6,2-1.4,3.3-2.2c10.7-13.7,42.8-49.4,90.3-54.5
	c59.1-6.3,51.1,40.3-2.3,43.4c-42.8,2.5-76,11.6-87.5,15.1c-1.9,1.3-3.3,2.3-4.1,2.8c-0.3,3.1-0.5,6.1-0.8,9.1l-0.5,6h6.6h70.2v22
	h-13.2l-10,81.9h79.5c29.5-36.2,44.1-84.1,37.8-147.3C1577.4,1324.5,1569.7,1299.5,1559.1,1276.8z"/>
<path id="color_x5F_5" class="st4" d="M708.7,1609.3c0.1,0.5,0.3,1.9-2.6,3.7c-13.7,8.5-71.6,7.7-117,4.4
	c-38.8-2.8-70.6-5.7-79.4-6.5l12.8-31.2c9.4,1.6,63.9,10.7,81.9,13.7c18.9,3.2,29.6,3.5,31.7-3.7c1.1-3.8,2.5-8.4,3.3-10.8
	c3.1,0.9,6.4,1.9,9.9,2.8C689.2,1592.5,707.9,1603.3,708.7,1609.3z M289.5,1581.5c-14.8-5.9-23.2-9.5-24.5-13.6
	c-0.7-2.3-1-7.9-0.9-17c-3.8,0.5-11.6,1.6-15,1.4c-2.1-0.1-5.5-0.2-21.8-96.1l-0.3-1.8c-2.5,0.4-4.9,0.7-7.4,1c-1,0.1-2,0.2-2.9,0.3
	c-7.1,1-12.2,2.9-13.8,5c-0.4,0.6-0.6,1.1-0.5,1.8c1.6,10.2,3,21.2,4.4,31.9c6.4,50.8,13,103.3,48.3,105.6
	c19.7,1.2,55.9-1.8,63.7-2.5C317.5,1592.7,300.9,1586,289.5,1581.5z M779.5,1182.4c1,8.2,2.7,16.9,3.9,18.3c2.3,2.7,28,30,31.9,34.3
	h5.2l-6.2-49.3C801.6,1185.7,790.6,1185.3,779.5,1182.4z M877.5,1136.9c-24.4-4.9-45.8-9-56.5-11.1c-4.8-1-13,3.7-18.4,7.5
	c2.4,0.3,4.9,0.6,7.5,0.9c0.8,0.1,1.5,0.7,1.6,1.6L824,1235h160.9C970.1,1218.7,898.7,1141.2,877.5,1136.9z M406.8,1032.5
	c0.9-0.4,2,0,2.4,0.9c0.4,0.9,39.6,89,79.2,143.4c20.3,27.9,37,42.2,49.8,42.5c18.6,0.3,58.2-6.5,117.8-20.6
	c1.7-10.2,1.5-26-0.7-42.6c-0.6-5-1.4-9.8-2.3-14.1c-0.2-1.1-0.5-2.3-0.7-3.3l-84.5,3.7c-0.8,0-1.6-0.5-1.8-1.3
	c-0.1-0.2-5.5-20.3-14-49c-17.6-58.6-48.8-154.1-76.6-193.9c-0.2-0.2-0.3-0.4-0.4-0.6c-4.2-6-8.4-10.7-12.4-13.8
	c-21.2-16.2-40.9-18.9-57.8-15.2c-2.5,0.8-4.9,1.6-7.4,2.1c-0.1,0-0.2,0-0.3,0c-9.7,3.4-18.4,8.7-25.6,14.3
	c-9.2,7.2-18,16.5-26,27.5l-0.6,0.8c-4.5,6.5-45.5,66.8-83.1,195.5c-37.6,128.8-58.2,322.7-60.4,344.5c2.6-0.1,7.7-0.4,14.9-1.1
	c1.6-0.2,2.7-0.3,2.9-0.3c2.9-0.3,5.9-0.8,9-1.2c0,0,0,0,0,0c9.3-1.4,19-3.2,28.9-5.5c7.3-1.7,14.7-3.6,22.1-5.7
	c9.4-2.7,17.8-6,25.7-10.2c6-3.1,11.1-6.4,16-9.5c15.3-9.8,28.5-18.2,62.6-19.6c3.1-0.1,6.3-0.2,9.4-0.1
	c42.9,0.8,72.3,19.2,81.2,25.6c0.2-5.6,0.7-19.5,2.3-52.3l0.9-18c3.1-61.8,7.4-167.9,7.7-177c-39.7-54.8-78.8-142.7-79.2-143.6
	C405.5,1033.9,405.9,1032.9,406.8,1032.5z M1504.4,1319.7c-47.5,5.1-79.6,40.7-90.3,54.5c9.4-6.3,28-18,47-26.7
	c27.3-12.4,53.9-10.7,55.1-10.6c1,0.1,1.7,0.9,1.7,1.9c-0.1,1-0.9,1.7-1.9,1.7c-0.3,0-26.8-1.7-53.3,10.3
	c-20,9.1-39.4,21.6-48.1,27.4c11.5-3.5,44.7-12.5,87.5-15.1C1555.6,1359.9,1563.6,1313.4,1504.4,1319.7z M1557.4,1273.2
	c-4.5-6.9-15.9-12.7-35.6-13.9c-48.6-3-86.7,27.8-98.9,39.1c9.2-4.2,26.5-11.4,50.5-18c36.8-10.2,64.1-3.5,65.2-3.2
	c1,0.2,1.5,1.2,1.3,2.2c-0.2,1-1.2,1.6-2.2,1.3c-0.3-0.1-27.6-6.7-63.4,3.2c-23.9,6.6-41.1,13.7-50,17.9c12.8-1.6,46.3-4.6,87.9,0
	c32.6,3.6,51.1-11.7,46.9-25C1558.7,1275.6,1558.1,1274.4,1557.4,1273.2z M1600.1,1195.1c-11.2-22.4-60.6-28.4-101.6-8.8
	c-4.3,2-8.4,4.3-12.5,6.9c-25.8,16.6-42,34.8-50.7,46.5c9.7-8.7,25.5-20.2,51-32.5c54.1-26.1,86.1-10.5,87.5-9.8
	c0.9,0.4,1.2,1.5,0.8,2.4c-0.4,0.9-1.5,1.2-2.4,0.8c-0.3-0.2-32-15.4-84.3,9.8c-35.6,17.2-52,32.7-58.9,41
	c10.3-5.1,60.4-28.5,99.4-26.5c3.6,0.2,7.1,0.6,10.5,1.2C1583.3,1234.7,1612.5,1219.9,1600.1,1195.1z M1480,1147.7
	c33.5-16,79.9-13.7,81.8-13.6c1,0.1,1.7,0.9,1.7,1.9c-0.1,1-0.8,1.7-1.9,1.7c-0.5,0-47.5-2.3-80.1,13.3c-19.8,9.5-29.6,16-34.3,19.6
	c4.2-1.4,15.7-5,31.6-7.9c17.8-3.2,41-5.4,65.9-2.7c53.2,5.9,69-38.7,9.6-42.4c-34.6-2.2-65.9,16.4-85.9,32.3
	c-4.6,3.7-8.7,7.2-12,10.3C1462.1,1156.7,1469.7,1152.6,1480,1147.7z M1585.1,984.4c0.9-0.4,2-0.1,2.4,0.8c0.4,0.9,0.1,2-0.8,2.4
	c-50.1,24.1-85.1,61.6-110,106.2c13.5-16.3,44.2-48,86.4-60.2c58-16.8,50.3-78.3-12.7-56.1c-54.4,19.1-75.5,99.3-80.3,120.9
	C1495.4,1050.5,1531.8,1009.9,1585.1,984.4z M1451.8,1148.6c0.3,1.1,0.4,1.7,0.4,1.7s0.9-3.2,2.1-8.5
	C1453.4,1144,1452.6,1146.3,1451.8,1148.6z M1431.2,1095.6c0.1,0.3,0.3,0.6,0.4,0.8c10.1,19.3,15.8,36.6,18.6,46.1
	c0.8-2,1.5-4.1,2.3-6.1c0.5-5.1,1.3-25.1-11.9-59.9c-15.2-40.1-26.4-47.2-26.5-47.3c-0.8-0.5-1.1-1.6-0.6-2.4
	c0.5-0.8,1.6-1.1,2.4-0.7c0.5,0.3,12.2,7.3,28,49.1c9.3,24.5,11.8,41.8,12.3,52c0.3-0.8,0.7-1.5,1-2.3c3.3-25.5,3.7-65.3-18.3-95.4
	c-8.1-11.1-15.9-17.6-22.6-20.6c-22.5-9.9-33.8,19.4-7.9,51.5C1417.6,1072.1,1425.2,1084.2,1431.2,1095.6z M1363.3,1145.2
	c38.2,20.2,60.4,50.7,67.6,61.7c0.1-0.3,0.1-0.7,0.2-1c-1.2-3.4-6.8-18-26-48c-12.2-19-26.5-33.1-42.5-42c-1.5-0.8-2.6-1.4-2.2-2.8
	c0.3-1.3,2.5-1.7,3.3-0.7c0.2,0.1,0.4,0.2,0.7,0.4c16.6,9.1,31.3,23.7,43.8,43.2c14,21.9,20.9,35.7,24.1,43
	c-3.2-22.8-14.5-71.5-53.1-94.3C1328,1074.4,1315.9,1120.1,1363.3,1145.2z M1349.4,1223.8c37.7,19.9,59.8,49.9,67.3,61.3
	c-1.2-4.6-7.7-26.8-28.2-52.9c-22.9-29.1-48.2-41.5-48.5-41.6c-0.9-0.4-1.3-1.5-0.8-2.4c0.4-0.9,1.5-1.3,2.4-0.8
	c1.1,0.5,26.3,12.9,49.8,42.7c15.6,19.9,23.3,37.4,26.7,47.1c0-0.3,0.1-0.6,0.1-0.9c-3.5-23.3-15.1-70.6-52.8-92.9
	C1314,1153,1302,1198.7,1349.4,1223.8z M1300.4,1282c-1,0-1.8-0.8-1.8-1.8c0-1,0.8-1.8,1.8-1.8c0,0,0,0,0,0
	c0.3,0,34.7,0.5,69.5,17.3c21.2,10.2,33.2,17.7,39.5,22c-13-15.6-43.6-46-87.2-50.7c-59.1-6.3-51.1,40.3,2.3,43.4
	c42.7,2.5,75.8,11.5,87.4,15.1c0-0.4,0.1-0.9,0.1-1.3c-2.7-2.3-14.4-11.2-43.7-25.3C1334.3,1282.5,1300.8,1282,1300.4,1282z
	 M1416.5,1327c0,0-0.3-0.5-0.9-1.3c0,0.3-0.1,0.7-0.1,1C1416.2,1326.9,1416.5,1327,1416.5,1327z"/>
<path id="color_x5F_6" class="st5" d="M1486.1,1396.1v22h-13.2l-10,81.9l-0.9,7.2l-3.4,28.4H1373l-3.4-28.4l-0.9-7.2l-10-81.9h-13.2
	v-22h60c0,0.9,0.7,1.7,1.6,1.8c0.1,0,0.1,0,0.2,0c0.9,0,1.7-0.7,1.8-1.6l0-0.2h6.6H1486.1z"/>
</svg>
