<?xml version="1.0" encoding="utf-8"?>
<!-- Generator: Adobe Illustrator 26.5.0, SVG Export Plug-In . SVG Version: 6.00 Build 0)  -->
<svg version="1.1" id="Layer_1" xmlns="http://www.w3.org/2000/svg" xmlns:xlink="http://www.w3.org/1999/xlink" x="0px" y="0px"
	 viewBox="0 0 1785.8 1785.8" style="enable-background:new 0 0 1785.8 1785.8;" xml:space="preserve">
<style type="text/css">
	.st0{fill:#FFFD81;}
	.st1{fill:#9ECFCA;}
</style>
<path id="color_x5F_2" class="st0" d="M868.1,1276.6c15.4,2.7,30.8,5.9,46.1,9.1c-17.4,47-35.6,93.8-48.8,142.1l-74.6-1.8
	c0,0,0,0,0,0c-2.1-3.6,2.7-16.9,3.4-20.7c3-14.9,6.4-29.7,9.4-44.6c6.1-29.8,12.8-60.8,12.1-91.4c2.1,0.2,4.3,0.4,6.4,0.6l17.6,2.6
	c-0.1,0.9,2.1,1,4.2,0.6L868.1,1276.6z M806.9,1282l-9.1,65.2C802.2,1325.7,806.2,1303.8,806.9,1282z M597.3,1284
	c-22.4-4.5-45.5-4.5-68.1-7.9c12,8.4,22.2,19.2,29,31.5c0.9,0.5,1.4,1.2,1.1,2c0.1,0.1,0.1,0.2,0.2,0.3c0.2,0.3-0.2,0.7-0.9,1.1
	c0.5,0.3,1,0.6,1.3,1.2c6.6,12.8,19.7,25.8,35.2,35.2c1.5-12.2,2.1-24.6,3.9-36.8c1-7.1,2.2-14,4.3-20.9
	C605,1284.2,603.6,1285.3,597.3,1284z M610.3,1294.7c-1.4,5-2.4,10.1-3.1,15.4L610.3,1294.7z M827.3,790c0.4,0,0.8,0,1.2,0l1.9-4.7
	C829.5,786.9,828.4,788.4,827.3,790z M801.2,795.8c-7.3,0-14.6,0-21.9,0c0,0,0,0.1,0,0.1h22.4C801.5,795.9,801.3,795.9,801.2,795.8z
	 M838,767.1l1.5-3.6c-0.3,0-0.6-0.1-0.9-0.1C838.4,764.6,838.2,765.8,838,767.1z M941.6,766.2c-15.2,0.3-30.7,0.9-46.3,0.9
	c5,0.5,9.1,0.8,11.5,0.8c12,0,40-2,40-2l1-3.7c-0.1,0.3-0.2,0.5-0.3,0.8C946.7,765.4,944,766.2,941.6,766.2z M764.4,666.2
	c0.1-7.5-0.2-15.1-1.2-22.5l-3.7-13.5c-5.7,0.7-11.5,1.5-17.1,2.8c1.2,0.8,2.4,1.7,3.5,2.7C754.6,643.8,760.5,654.6,764.4,666.2z
	 M974.7,662.9l0.2-0.9l-0.3,0C974.6,662.3,974.6,662.6,974.7,662.9z M834.5,648.6c0,0-0.1,0.1-0.1,0.1c4.6,0.8,9.2,1.6,13.8,2.2
	L834.5,648.6z M782.8,710.3L779,708c1,0.8,2,1.6,3.2,2.1C782.4,710.2,782.6,710.2,782.8,710.3z M760.1,787.5
	c-6.6,22.4-14.2,40.2-19.4,51c8-10.8,12.9-24.8,16.1-36.9C758.1,797,759.2,792.2,760.1,787.5z M805,795.8c-0.2,0-0.5,0.1-0.7,0.1
	c0,0,0,0,0,0h0.6l1.6-0.1C806,795.8,805.5,795.8,805,795.8z M729.2,850c-2.4-0.1-5.3-0.2-8.5-0.5c2.5,0.5,5.1,0.8,7.7,1.1
	C728.6,850.4,728.9,850.2,729.2,850z M806.9,683c-2.8,4.9-5.4,10-7.7,15.3c0.1,0.3,0.2,0.6,0.2,1c-0.2,7.6-4.1,14.1-10.4,16.4
	c4.4,4.7,13.6,8.8,20.7,11C809.9,712.1,807.3,697.6,806.9,683z M809,787c0-2.6-0.6-5-1.7-7.3c-0.1,0-0.3,0-0.4,0c0,3.2,0,6.3,0,9.5
	c0,0.3-0.1,0.5-0.3,0.8c0.6,0,1.2,0,1.8,0C808.8,789,809,787.9,809,787z M828.2,654.5c-4.8,4.8-9.1,10-13,15.4
	c0.4,0.4,0.6,0.9,0.5,1.6c-1.3,19.8,3.8,39.4,2.5,59.2c-0.2,2.9-4.9,3.4-7,3.1c-9-1.5-27.6-8.6-32.6-17.8c-2.1-0.6-4.1-1.5-5.7-2.7
	c2.1,27.3,0.4,55.3-6.3,81.8c-5.2,20.3-13.4,44.1-32.2,55.7c4,0-4,3.4-5.7,3.5c-20.3,0.2-39.8-8.3-56.4-19.6
	c-9.7-6.6-26.2-16.3-30.8-28c-0.2-0.4,0.4-1,1.3-1.5c-1.1-0.1-1.6-0.4-0.9-1.1c38.7-37.8,80.2-108.3,50-162c-0.1-0.1-0.1-0.3,0-0.4
	c-18-6.7-40-2.7-57.8,2.2c-7,1.9-14,4.1-21,6.8c-3.6,1.5-7.1,3.1-10.6,4.6c-7.5,3.6-14.6,7.9-20.8,13.3c-11.2,24-11.6,73.4,12,89.1
	c18.3-1.7,36.9-7.5,53.8-14.4c14.3-5.9,38.9-15.1,41.2-33c0.4-2.9,9.1-4.5,8.7-1.1c-2.5,19-27.9,30-43.2,36.3
	c-19.7,8.1-41.1,15.2-62.5,17c-0.2,0-0.4,0-0.6,0c-1.5,0.4-3,0.5-3.9-0.1c-1.3-0.8-2.5-1.8-3.6-2.8c-14.9,17.8-29.7,35.8-43.2,54.6
	c-5.5,7.9-10.8,15.7-15.6,22.9c-24.5,38.5-42.1,80.2-43.9,128c1.1,0.1,0.9,0.6,0.1,1.1c0.3-0.1,0.6-0.2,0.9-0.3
	c-0.4,0.6-0.7,1.3-1,2c0,0.9-0.1,1.8-0.1,2.7c0,0.6-0.4,1.1-1.1,1.5c-0.1,0.8-0.3,1.6-0.4,2.4c0.4,0.1,0.8,0.3,1.1,0.6
	c3,2.7,6.1,5.3,9.4,7.6c3.6,2.6,7.4,5,11.4,7.3c19.4,6.8,48.4,16.6,74.1,23.5c3,0.5,6,1,9,1.4c22.9,3.3,53.3,6.3,79.1,0
	c4.9-1.4,9.4-2.9,13.5-4.4c9.2-3.9,17.4-9.4,23.9-17c0.4-0.5,1.1-0.9,1.9-1.2c-0.3-0.2-0.5-0.5-0.5-0.9c0-0.4,0-0.9,0-1.3
	c-1.7-59.5,23.8-114.7,66.3-155.6c0.9-13,2.9-26,2.1-39.1c-0.1-1.4,1.8-2.6,3.8-3.1c1.2-1.2,3-2.2,4.6-2.2c6.4,0,12.9,0,19.3,0
	c0-3.7,0-7.3,0-11c0,0,0,0,0,0c-0.1-0.2,0-0.5,0.4-0.9c1.3-1.4,3.9-2.2,5.8-2.2c2.9,0,5.9,0,8.8,0c0.8,0,2.1-0.1,2.5,0.8
	c1.7,3.6,3.2,8.8,0.8,12.6c-0.2,0.3-0.4,0.5-0.6,0.8c0.6,0,1.3,0,1.9,0c11.6-14.7,17-32.3,7.1-49.7c-2.3-4.1,5.9-7.5,7.9-3.9
	c4,7.1,5.8,14.2,5.9,21.2c0.4-0.1,0.8-0.1,1.1,0c32.3,5.9,67.1,4.1,100,3.3c4.9-12.8,9.4-25.7,13.5-38.7
	c5.5-17.4,13.1-37.6,12.4-56.3C919.8,665.7,873.7,662.6,828.2,654.5z M1256.6,888.3c0,0.2,0,0.4,0.1,0.6c0.1-0.4,0.1-0.9,0.2-1.3
	c-0.2,0.1-0.3,0.1-0.5,0.1C1256.5,887.9,1256.6,888.1,1256.6,888.3z M1256.3,875.5c0.1,1.2,0.9,2.1,1.9,2.7
	c-0.2,1.9-0.5,3.9-0.7,5.8c-2.2,0-4.5,0-6.7,0c-1.9,0-4.5,0.7-5.8,2.2c-1.4,1.5,1.2,1.9,2.2,1.9c0.7,0,1.3,0,2,0
	c-0.7,0.6-1.2,1.5-1.1,2.5c0.3,3.1,3.3,4.8,6.1,5c0.5,0,1,0,1.5-0.1c-1.1,6.2-2.5,12.7-3.9,19.2c-0.2,0-0.5,0-0.7,0
	c-0.6,0-1.1,0-1.7,0c-1.9,0-4.5,1.5-4.8,3.6c0,0.3,0,0.6,0.1,0.9c-1.5,0.5-3.4,1.3-3.4,2.7c0,0.6,0,1.1,0,1.7c0,2,2.2,2.2,3.8,2
	c0.7-0.1,1.9-0.4,3-0.9c0.4,0.1,0.8,0.2,1.3,0.3c-0.2,1-0.5,2-0.7,3c-0.1-0.3-0.2-0.7-0.2-1c-0.2-2.4-8.9-0.6-8.7,2.3
	c0.2,2.5,2.6,4.1,5,4.3c0.8,0.1,1.7,0,2.5-0.1c0,0.2-0.1,0.4-0.1,0.5c-0.1,0.2-0.1,0.5-0.2,0.7c-2.5-0.1-7.1,1.1-7.1,3
	c0,0.6,0,1.1,0,1.7c0,0.9,3.3,0.8,5.8,0c-0.9,2.9-1.9,5.8-2.9,8.8c-1.4-0.6-4,0.2-5.2,0.6c-0.2,0.1-0.7,0.3-1.3,0.6
	c0.3-0.4,0.5-0.9,0.5-1.4c0.2-2.3-2.3-3-4.1-3c-1.7,0-3.4,0-5,0c-1.9,0-4.5,1.5-4.8,3.6c-0.2,2.3,2.3,3,4.1,3c1.7,0,3.4,0,5,0
	c0.9,0,1.9-0.3,2.7-0.8c-0.1,0.3,0,0.5,0.3,0.8c1.5,1.4,3.7,1.6,5.5,2.5c-1.8,4.7-3.7,9.3-5.6,13.7c-1.2-0.1-2.6,0.1-3.1,0.2
	c-1.6,0.4-3.8,1.4-3.8,3.3c0,1.8,0.4,3.6,1.4,5.2c0.3,0.5,0.6,0.9,1,1.3c-4.3,9.1-8.1,16.4-9.9,19.9h-31.6
	c-12.1-0.9-24.4-1.6-29.7-1.6c-7.4,0-10.2-5.4-13.2-18.9c0.7-0.4,1.2-0.9,1.6-1.6c0.7-1.4,1.4-2.7,2.2-4c0.6-1,1.6-2.1,2.3-2.5
	c1.3-0.7,3.5-2.4,2.2-4.1c-1.3-1.6-4.3-1.3-5.9-0.4c-1.7,0.9-3,1.9-4.2,3.2c-0.3-1.7-0.7-3.6-1-5.5c0.1,0,0.2,0,0.3,0
	c1.9,0,4.5-0.7,5.8-2.2c1.3-1.6-1.2-2-2.2-2c-0.8,0-1.6,0-2.5,0c0.2-0.2,0.5-0.4,0.8-0.6c1.3-1.2,1.1-2.6-0.8-2.9
	c-0.8-0.2-1.8-0.1-2.8,0.1c0-0.1-0.1-0.3-0.1-0.4c1.8-0.6,3.6-1.3,5.3-2.2c1.1-0.5,3.7-2.1,2.3-3.6c-1.3-1.4-4.3-0.9-5.8-0.2
	c-0.9,0.5-1.8,0.9-2.7,1.3c-0.5-2.4-0.9-4.8-1.4-7.4c-0.5-2.3-0.8-4.6-1.1-7c0.1,0,0.2-0.1,0.3-0.1c0.3-0.2,1.2-0.7,1-1.2
	c-0.1-0.5-1.2-0.5-1.5-0.5c0,0,0,0,0,0c-0.2-1.8-0.4-3.5-0.5-5.3c0.2-0.3,0.4-0.6,0.4-0.9c0-0.6,0-1.1,0-1.7c0-0.2-0.2-0.4-0.6-0.5
	c-0.2-2.7-0.2-5.4-0.2-8.2c0.5,0,0.9,0,1.4,0c1.9,0,4.5-0.8,5.8-2.2c1.4-1.5-1.2-1.7-2.1-1.7c-0.6,0-1.1,0-1.7,0
	c-0.4,0-0.8,0.1-1.3,0.1c0.6-0.9,0.3-1.8-1.2-2c-0.3,0-0.6,0-0.8,0c0.1-3.3,0.3-6.5,0.5-9.8c1.3,0,2.6,0,3.9,0c0.9,0,2-0.3,3-0.9
	c-0.2,0.8,0.2,1.5,1.5,1.7c1.9,0.3,4.7-0.2,6.2-1.6c0.6-0.6,1.1-1.1,1.7-1.7c1.2-1.2,1.1-2.5-0.8-2.9c-1.9-0.3-4.7,0.2-6.2,1.6
	c-0.2,0.2-0.4,0.4-0.6,0.6c0-0.1,0.1-0.2,0.1-0.3c0.3-2.3-2.3-2.8-4-2.8c-1.4,0-2.7,0-4.1,0c0.3-2.8,0.6-5.5,1-8.3
	c2-0.4,4-0.9,6.1-1.9c1-0.5,3.7-2,2.3-3.5c-0.1-0.1-0.2-0.2-0.3-0.2c0.8-0.8,0.6-1.5-0.9-1.5c-2.1,0.1-4.2,0.5-6.2,0.9
	c0.4-2.7,0.9-5.3,1.4-7.9c1.1,0,2.1,0,3.2,0c1.8,0,4.5-1.4,4.8-3.4c0.1-0.6-0.1-1-0.3-1.4c0.4-1.2-0.1-2.4-2.5-2.9
	c-1.2-0.2-2.3-0.4-3.4-0.7c0.3-1.2,0.5-2.3,0.8-3.5c0.1,0.1,0.2,0.2,0.3,0.3c1.5,1.5,7.5-0.6,8.3-2.3c1.2-0.1,2.4-0.2,3.6-0.4
	c1.6-0.3,4.4-1,5-2.8c0.5-1.8-2.7-1.8-3.7-1.7c-4.2,0.7-8-0.3-11-2.7c0.9-3.3,1.8-6.5,2.7-9.5c1.8-0.5,3.5-1.6,3.7-2.7
	c0.7,0.3,1.4,0.6,2.2,0.8c2,0.7,4.3,0.3,6.2-0.8c1-0.6,2.8-2.7,0.8-3.4c-3.2-1.1-6.4-2.4-9.6-3.6c1-2.8,1.9-5.4,2.8-7.7
	c0.2-0.5,0.4-1,0.6-1.5c0,0,0,0,0,0c-0.3,1.6,1.3,2.7,2.8,2.8c-0.3,0,0.3,0.1,0.5,0.2c0.3,0.2,1.1,1,0.4,0.3c1.6,1.5,4,1.4,5.9,0.5
	c1.2-0.6,3.7-2.8,2.1-4.3c-1.3-1.3-2.9-2.2-4.7-2.6c-0.1-0.2-0.3-0.5-0.8-0.6c-1.3-0.4-2.6-0.8-3.8-1.2c1.4-2.3,2.9-4.3,4.6-6.2
	c0.8,0.3,1.5,0.6,2.3,0.9c1.9,0.6,4.4-0.1,6.1-1c0.9-0.5,2.9-2.1,0.9-2.8c-1.5-0.5-3-1.1-4.4-1.8c2.8-2.2,5.6-4,8.5-5.4
	c0.8,0.3,1.6,0.7,2.4,0.9c2,0.7,4.4,0.1,6.1-0.9c1-0.5,2.8-2.4,0.9-3.1c-0.3-0.1-0.6-0.2-0.9-0.4c0.6-0.2,1.2-0.4,1.8-0.5
	c5.1-1.4,8.7-1.6,8.7-1.6l3.6-0.3c-0.3,2.2-0.7,4.4-1,6.6c-0.4,3.2,8.3,1.6,8.7-1.2c0.3-2,0.6-4.1,0.9-6.1l13.8-1.1l2.6,3.2
	c-0.2,3.4,0.7,6,2.9,7.6c-0.7,8,3.5,10.3,9,10c0,0.2,0,0.4,0,0.7c1.1,8,8.3,9.3,15.3,8.4c0.5,1.3,1.2,2.8,1.8,4.6
	c-1.1,0.4-2,1-2.6,2c-0.9,1.6,0.5,2.7,1.9,2.9c-0.9,0.1-1.9,0.3-2.8,0.3c-1.9,0.1-4.5,0.7-5.8,2.2c-0.6,0.7-0.4,1.2,0.1,1.5
	c0,0-0.1,0.1-0.1,0.1c-1.3,1.6,1.1,2.1,2.2,2.1c1.8-0.1,3.6-0.3,5.3-0.8c0.2-0.1,2.7-0.9,1.8-0.6c0.9-0.3,0.6-0.3,1.3-0.3
	c0.5,0,1.1-0.1,1.7-0.2c1.1,3.9,2.1,8.2,2.8,12.6c-0.4,0.2-0.7,0.5-1,0.7c-0.4,0-0.9,0-1.3,0.1c-1.1,0-2.5,0.5-3.5,1.3
	c-0.3,0-0.6,0-0.8,0c-2.1,0-4.4,0.6-6.1,1.6c-1.4,0.8-1.2,1.8,0.5,1.8c1.1,0,2.2,0,3.4,0c0.7,0,1.3-0.1,2-0.2
	c0.6,1.2,2.5,1.5,3.8,1.5c1.4,0,2.7-0.2,3.9-0.6c0.3,4.5,0.2,9.6-0.3,15.3C1257.4,872.7,1256.2,873.8,1256.3,875.5z M1241.6,842.7
	c-0.6,0.6-1.1,1.1-1.7,1.7c-1.4,1.4,1.2,1.7,2.1,1.6c1.9-0.1,4.4-0.7,5.8-2.1c0.6-0.6,1.1-1.1,1.7-1.7c1.4-1.4-1.2-1.7-2.1-1.6
	C1245.5,840.7,1243,841.3,1241.6,842.7z M1235.5,843.3c0.6,0,1.1,0,1.7,0c2,0,4.6-0.6,5.7-2.4c1.1-1.7-0.9-2.7-2.4-2.7
	c-0.6,0-1.1,0-1.7,0c-2,0-4.6,0.6-5.7,2.4C1232,842.3,1234,843.3,1235.5,843.3z M1228.2,854.4c-1.4,1.5,1.2,1.8,2.1,1.8
	c2.2,0,4.5,0,6.7,0c1.9,0,4.5-0.8,5.8-2.2c1.4-1.5-1.2-1.8-2.1-1.8c-2.2,0-4.5,0-6.7,0C1232.1,852.2,1229.5,853,1228.2,854.4z
	 M1241.7,859.1c-1.7,0-3.4,0-5,0c-0.3,0-0.6,0-0.9,0.1c-1.7-0.4-5.8,0.3-7.3,1.9c-1.4,0.3-2.7,0.9-3.5,1.8c-1.4,1.5,1.2,1.7,2.1,1.7
	c2.1,0,5.5-0.4,7.6-1.8c0.5,0,1,0,1.5,0c2.1,0,4.4-0.5,6.1-1.6C1243.5,860.2,1243.4,859.1,1241.7,859.1z M1202.5,812.5
	c-0.3,2.3,2.3,2.9,4,2.9c1.1,0,2.2,0,3.4,0c1.3,0,3-0.7,4-1.9c1.1-0.3,2.1-0.7,3.1-1.3c1.4-0.8,1.2-1.8-0.5-1.8c-0.6,0-1.1,0-1.7,0
	c-0.1,0-0.2,0-0.4,0c-0.7-1.2-2.5-1.5-3.8-1.5c-1.1,0-2.2,0-3.4,0C1205.4,809,1202.8,810.5,1202.5,812.5z M1195.9,826.8
	c0,1.7,0,3.4,0,5c0,1.9,8.7,0.5,8.7-2.3c0-1.7,0-3.4,0-5C1204.6,822.6,1195.9,824,1195.9,826.8z M1197.9,909.2
	c0-2.1-2.2-2.5-3.9-2.3c-1.5,0.1-4.9,1.2-4.9,3.2c0,1.3,0.1,2.6-0.9,3.6c-1.3,1.4-0.9,3.1,1,3.6c2,0.6,4.7-0.1,6.1-1.6
	C1197.1,913.8,1197.9,911.8,1197.9,909.2z M1190.8,944.4c0,0.6,0,1.1,0,1.7c0,1.9,8.7,0.5,8.7-2.3c0-0.6,0-1.1,0-1.7
	C1199.5,940.2,1190.8,941.6,1190.8,944.4z M1195.2,848.5c2,0,4.6-0.6,5.7-2.5c1.1-1.7-0.9-2.9-2.4-2.9c-0.6,0-1.1,0-1.7,0
	c-2,0-4.6,0.6-5.7,2.5c-1.1,1.7,0.9,2.9,2.4,2.9C1194.1,848.5,1194.7,848.5,1195.2,848.5z M1187.3,802.2c1.1,0,2.2,0,3.4,0
	c2.1,0,4.4-0.5,6.1-1.6c1.4-0.9,1.2-1.9-0.5-1.9c-1.1,0-2.2,0-3.4,0c-2.1,0-4.4,0.5-6.1,1.6C1185.5,801.2,1185.6,802.2,1187.3,802.2
	z M1175.1,831.9c1.2,0,1.7-0.2,2.6,0.6c1.6,1.5,4,1.3,5.8,0.4c1.1-0.5,3.8-2.6,2.2-4.1c-2.2-2-4.6-2.7-7.5-2.7
	c-2.1,0-4.6,0.6-5.7,2.5C1171.6,830.5,1173.4,831.9,1175.1,831.9z M1182.1,852.7c-1.1,0-2.2,0-3.4,0c-1.9,0-4.5,1.4-4.8,3.5
	c-0.3,2.3,2.3,2.8,4,2.8c1.1,0,2.2,0,3.4,0c1.9,0,4.5-1.4,4.8-3.5C1186.4,853.3,1183.8,852.7,1182.1,852.7z M1170.7,871.5
	c0,2,2.2,2.2,3.8,2c1.3-0.2,4.9-1.2,4.9-3.1c0-0.6,0-1.1,0-1.7c0-2-2.2-2.2-3.8-2c-1.3,0.2-4.9,1.2-4.9,3.1
	C1170.7,870.4,1170.7,871,1170.7,871.5z M1167.3,897.4c0.1,0.5,1.2,0.5,1.5,0.5c1.1,0,2.2,0,3.4,0c1.9,0,4-0.5,5.8-1.5
	c1.9,1.4,4.8,2,7.1,2.1c1.9,0,4.5-0.7,5.8-2.3c1.3-1.7-1.1-2.3-2.3-2.3c-0.6,0-1.8-0.2-2.6-0.8c-1.1-0.8-1.4-1.8-1.5-3.1
	c-0.1-2.5-8.8-0.8-8.7,2.3c0,0.8,0.3,1.5,0.6,2.2c-0.6,0-1.2,0-1.8,0c-2.1,0-4.4,0.6-6.1,1.6
	C1168.1,896.3,1167.2,896.8,1167.3,897.4z M1175.6,931.2c1.4-1.5-1.2-1.7-2.1-1.7c-1.1,0-2.2,0-3.4,0c-1.9,0-4.5,0.8-5.8,2.1
	c-1.4,1.5,1.2,1.7,2.1,1.7c1.1,0,2.2,0,3.4,0C1171.7,933.4,1174.3,932.6,1175.6,931.2z M1170.4,948.5c-1.7,0.1-4.8,1.3-4.8,3.5
	c0,0.6,0,1.1,0,1.7c0,2.2,2.1,2.9,4,2.8c1.7-0.1,4.8-1.3,4.8-3.5c0-0.6,0-1.1,0-1.7C1174.4,949.1,1172.3,948.3,1170.4,948.5z
	 M1169.9,914.7c1.4-0.8,1.2-1.8-0.5-1.8c-0.6,0-1.1,0-1.7,0c-2.1,0-4.4,0.6-6.1,1.6c-1.4,0.8-1.2,1.8,0.5,1.8c0.6,0,1.1,0,1.7,0
	C1165.9,916.4,1168.2,915.8,1169.9,914.7z M1163.6,889.5c-0.6,0-1.1,0-1.7,0c-2,0-4.5,1.5-4.8,3.6c-0.2,2.3,2.3,3,4.1,3
	c0.6,0,1.1,0,1.7,0c2,0,4.5-1.5,4.8-3.6C1167.9,890.2,1165.4,889.5,1163.6,889.5z M1154.8,863.1c2-0.2,3.6-0.6,5.4-1.4
	c0.4-0.2,0.9-0.6,1.3-0.9c0,0,0,0,0,0c0.9-0.3,1.8-0.8,2.4-1.6c1.3-1.5-1.1-2.1-2.2-2c-2,0.2-3.6,0.6-5.4,1.4
	c-0.4,0.2-0.9,0.6-1.3,0.9c0,0,0,0,0,0c-0.9,0.3-1.8,0.8-2.4,1.6C1151.3,862.6,1153.6,863.1,1154.8,863.1z M1158.9,874.4
	c-0.6-0.6-1.1-1.1-1.7-1.7c-2-2-10.1,1.2-8.1,3.3c0.6,0.6,1.1,1.1,1.7,1.7C1152.8,879.6,1160.9,876.4,1158.9,874.4z M1160.9,912
	C1160.9,912,1160.9,912,1160.9,912C1160.9,912,1160.9,912,1160.9,912c0.5-0.3,1-0.6,1.3-1c1.4-1.4-1.2-1.7-2.1-1.6
	c-2.7,0.2-7.8,1.2-7.9,4.7C1152.2,915.7,1160.4,914.6,1160.9,912z M1157.9,943.2c1.8-0.1,4.8-1.4,4.8-3.6c0-0.6,0-1.1,0-1.7
	c0-2.2-2.1-3.2-4.1-3c-1.8,0.1-4.8,1.4-4.8,3.6c0,0.6,0,1.1,0,1.7C1153.8,942.4,1155.9,943.3,1157.9,943.2z M1165.1,976.4
	c-2,0.1-4.4,0.7-5.8,2.2c-3.5,3.7-3.7,8-3.7,12.8c0,2,8.7,0.6,8.7-2.3c0-4,0.1-7.7,3-10.7C1168.7,976.9,1166,976.4,1165.1,976.4z
	 M1167.9,976.8c2.1,1.3,4.4,1.6,6.8,1.7c1.9,0.1,4.5-1.5,4.8-3.6c0.2-2.3-2.3-3-4.1-3c0.4,0-0.3-0.1-0.3-0.1
	c-0.2-0.1-0.4-0.1-0.6-0.2c0.2,0.2,0.2,0.1-0.2-0.1c-0.4-0.3-0.8-0.6-1.2-0.9c-0.5-0.4-0.4-0.4-0.7-0.7c-0.9-0.9-2-1.3-3.2-1.3
	c-0.1-0.1-0.1-0.2-0.2-0.4c-1.3-1.8-4.1-1.7-5.9-0.8c-1.3,0.6-1.6,0.7-2.9,1c0.8-0.2-0.9,0-1.1,0c-0.7,0-1.4,0-2.1,0
	c-2,0-4.5,1.5-4.8,3.7c-0.2,2.3,2.3,3.1,4.1,3.1c2.9,0,5.6-0.4,8.3-1.3C1165.5,974.9,1166.6,976,1167.9,976.8z M1185,990.6
	c-0.3-0.2-0.3-0.2-0.5-0.5c-0.9-1-1.5-2.2-2.1-3.4c-1-1.9-4.5-1.3-5.9-0.6c-1.8,0.8-3.1,2.4-2.1,4.4c1.5,3,3.8,6,7.5,6.2
	c2.1,0.1,4.7-0.6,5.7-2.6C1188.5,992.2,1186.8,990.7,1185,990.6z M1192.8,937c0-1.1,0-2.2,0-3.4c0-2.1-8.7-0.7-8.7,2.3
	c0,1.1,0,2.2,0,3.4C1184.1,941.5,1192.8,940,1192.8,937z M1194.6,981.1c1.4-0.2,4.9-1.2,4.9-3.1c0-0.4,0-0.8,0-1.2c0,0,0-0.1,0-0.1
	c0.8-0.5,1.5-1.2,1.6-2c0.2-0.8-0.2-1.3-0.7-1.6c0.6-0.6,1.1-1.1,1.7-1.7c1.5-1.5,0.7-3.6-1.1-4.2c-2.2-0.8-4.6,0.1-6.1,1.6
	c-0.6,0.6-1.1,1.1-1.7,1.7c-1.1,1.1-0.9,2.5-0.1,3.5c-0.6,0.4-1.2,0.9-1.6,1.5c-0.7,1.1-0.8,2.3-0.8,3.6
	C1190.8,981,1193,981.3,1194.6,981.1z M1207.7,990.4c-1.7-1.7-3.4-3.4-5-5c-1.6-1.6-9.6,1.6-8.2,3c1.7,1.7,3.4,3.4,5,5
	C1201.1,995.1,1209.1,991.9,1207.7,990.4z M1207.5,894.2c-1.1-1.1-2.2-2.2-3.4-3.4c-1.6-1.6-3.9-1.8-5.9-0.8c-1.4,0.7-3.6,3.1-2,4.7
	c1.1,1.1,2.2,2.2,3.4,3.4c1.6,1.6,3.9,1.8,5.9,0.8C1206.9,898.2,1209.2,895.8,1207.5,894.2z M1211.6,862.6c1.7,0,3.4,0,5,0
	c2,0,4.5-1.5,4.8-3.6c0.2-2.3-2.3-3-4.1-3c-1.7,0-3.4,0-5,0c-2,0-4.5,1.5-4.8,3.6C1207.3,861.8,1209.8,862.6,1211.6,862.6z
	 M1223.6,977.2c-0.1,0-0.2,0-0.3,0c-0.1,0-0.1,0-0.3-0.1c-0.7-0.2-1.3-0.4-1.9-0.6c-1.3-0.4-2.7-0.9-4.2-1c-2-0.1-4.6,0.6-5.7,2.6
	c-1,1.8,0.8,3.2,2.6,3.3c0.1,0,0.2,0,0.3,0c0.1,0,0.1,0,0.3,0.1c0.7,0.2,1.3,0.4,1.9,0.6c1.3,0.4,2.7,0.9,4.2,1
	c2,0.1,4.6-0.6,5.7-2.6C1227.2,978.7,1225.3,977.3,1223.6,977.2z M1212.8,920.8c2.1,0.7,4.6-0.1,6.1-1.6c0.6-0.6,1.1-1.1,1.7-1.7
	c1.4-1.4,0.8-3.3-1.1-3.9c-2.1-0.7-4.6,0.1-6.1,1.6c-0.6,0.6-1.1,1.1-1.7,1.7C1210.3,918.3,1211,920.2,1212.8,920.8z M1221.5,959.9
	c-2.1,0-4.4,0.5-6.1,1.6c-1.3,0.9-1.2,2,0.5,2c2.2,0,4.5,0,6.7,0c2.1,0,4.4-0.5,6.1-1.6c1.3-0.9,1.2-2-0.5-2
	C1226,959.9,1223.7,959.9,1221.5,959.9z M1220.4,898.7c-1.1,0-2.2,0-3.4,0c-2,0-4.6,0.6-5.7,2.4c-1.1,1.7,1,2.6,2.4,2.6
	c1.1,0,2.2,0,3.4,0c2,0,4.6-0.6,5.7-2.4C1223.9,899.6,1221.8,898.7,1220.4,898.7z M1225.5,836.1c1.1-0.5,3.7-2.3,2.2-3.8
	c-2.2-2.2-4.3-4-7.4-4.3c-2-0.2-4.6,0.7-5.7,2.5c-1.1,1.8,0.9,2.8,2.4,2.9c-0.5,0,0.4,0.4,0.6,0.5c0.8,0.6,1.4,1.3,2.1,2
	C1221.2,837.3,1223.8,836.8,1225.5,836.1z M1224.4,894.8c0,2.2,2.1,3.1,4,3c1.8-0.1,4.8-1.4,4.8-3.6c0-1.1,0-2.2,0-3.4
	c0-2.2-2.1-3.1-4-3c-1.8,0.1-4.8,1.4-4.8,3.6C1224.4,892.6,1224.4,893.7,1224.4,894.8z M1233.9,930.8c-1.1,0-2.2,0-3.4,0
	c-1.9,0-4.5,0.7-5.7,2.3c-1.2,1.7,1,2.4,2.3,2.4c1.1,0,2.2,0,3.4,0c1.9,0,4.5-0.7,5.7-2.3C1237.4,931.5,1235.2,930.8,1233.9,930.8z
	 M1249.1,907.7c-0.6,0-1.1,0-1.7,0c-1.9,0-4.5,0.8-5.8,2.2c-0.1,0.1-0.1,0.1-0.1,0.2c-0.5-1.4-2.5-1.7-3.9-1.7c-1.1,0-2.2,0-3.4,0
	c-1.8,0-4.5,1.4-4.8,3.4c-0.3,2.2,2.4,2.7,4,2.7c1.1,0,2.2,0,3.4,0c1.8,0,4.4-1.3,4.8-3.2c0.6,0.4,1.7,0.5,2.2,0.5
	c0.6,0,1.1,0,1.7,0c1.9,0,4.5-0.8,5.8-2.2C1252.6,907.9,1250,907.7,1249.1,907.7z M1243.3,899.7c-1.4,1.5,1.2,1.9,2.2,1.9
	c1.1,0,2.2,0,3.4,0c1.9,0,4.5-0.7,5.8-2.2c1.4-1.5-1.2-1.9-2.2-1.9c-1.1,0-2.2,0-3.4,0C1247.2,897.5,1244.6,898.3,1243.3,899.7z
	 M1243.2,893.9c-1.9-0.4-4.7,0.2-6.1,1.6c-0.1,0.1-0.1,0.1-0.2,0.2c-1.6,0.3-3.6,1.2-4,2.7c-0.5,1.9,2.7,1.8,3.7,1.7
	c2.7-0.2,5.5-1.5,7.4-3.3C1245.3,895.6,1245.1,894.3,1243.2,893.9z M1244.9,874.1c0.3-2.3-2.3-2.9-4-2.9c-2.2,0-4.5,0-6.7,0
	c-1.9,0-4.5,1.5-4.8,3.6c-0.3,2.3,2.3,2.9,4,2.9c2.2,0,4.5,0,6.7,0C1242.1,877.6,1244.7,876.2,1244.9,874.1z M1245.6,868.4
	c2,0,4.6-0.6,5.7-2.4c1.2-1.7-1-2.6-2.4-2.6c-0.6,0-1.1,0-1.7,0c-2,0-4.6,0.6-5.7,2.4c-1.2,1.7,1,2.6,2.4,2.6
	C1244.4,868.4,1245,868.4,1245.6,868.4z M1258,869.4c-0.6-0.6-1.1-1.1-1.7-1.7c-2-1.9-10.1,1.2-8.1,3.2c0.6,0.6,1.1,1.1,1.7,1.7
	C1251.9,874.6,1260,871.4,1258,869.4z"/>
<path class="st1" d="M1230.1,977.7c0.9,1,2.1,1.4,3.7,1.6c1.9,0.2,4.6-0.8,5.7-2.4c1-1.4-0.3-2.1-1.5-2.4c0.2,0,0.2,0,0-0.3
	c-0.3-0.4-0.5-0.8-0.7-1.3c-0.5-1.3-0.7-2.6-0.8-4c0-0.8-0.8-1.2-1.8-1.3c-1.2-0.1-2.6,0.1-3.1,0.2c-1.6,0.4-3.8,1.4-3.8,3.3
	c0,1.8,0.4,3.6,1.4,5.2C1229.4,977,1229.8,977.4,1230.1,977.7z"/>
<path class="st1" d="M1228.2,959.9c-2.2,0-4.5,0-6.7,0c-2.1,0-4.4,0.5-6.1,1.6c-1.3,0.9-1.2,2,0.5,2c2.2,0,4.5,0,6.7,0
	c2.1,0,4.4-0.5,6.1-1.6C1230.1,961,1229.9,959.9,1228.2,959.9z"/>
<path class="st1" d="M1241.5,954.9c1.3,1.1,4.3,0.2,5.6-0.3c0.7-0.3,3.8-1.6,2.5-2.8c-1.9-1.7-4.8-1.6-6.7-3.4
	c-0.1-0.1-0.3-0.2-0.5-0.3c-1.4-0.6-4,0.2-5.2,0.6c-0.2,0.1-0.7,0.3-1.3,0.6c0.3-0.4,0.5-0.9,0.5-1.4c0.2-2.3-2.3-3-4.1-3
	c-1.7,0-3.4,0-5,0c-1.9,0-4.5,1.5-4.8,3.6c-0.2,2.3,2.3,3,4.1,3c1.7,0,3.4,0,5,0c0.9,0,1.9-0.3,2.7-0.8c-0.1,0.3,0,0.5,0.3,0.8
	c1.5,1.4,3.7,1.6,5.5,2.5C1240.7,954.3,1241.1,954.5,1241.5,954.9z"/>
<path class="st1" d="M489.5,1307.1c-25.3,12.1-53.5,17.4-76.6,34.1c-4.8,3.5,2.4,5.8,5.6,3.5c22.4-16.2,50-21.3,74.6-33
	C498.7,1309.1,493.8,1305.1,489.5,1307.1z"/>
<path class="st1" d="M470,1271.1c-4.7,0.5-6.8,6.6-0.9,6c22.2-2.4,40.9,12,55.2,27.4c2.5,2.7,10.8-0.7,8-3.7
	C516.1,1283.3,495,1268.5,470,1271.1z"/>
<path class="st1" d="M1268.2,924.4c5.3-1.6,3.7-7.7-1.6-6c-4,1.2-8,1.2-12.1,0.6c0.2-0.4,0.4-0.8,0.5-1.3c0.2-2-1.7-2.8-3.4-2.9
	c-0.2,0-0.5,0-0.7,0c-0.6,0-1.1,0-1.7,0c-1.9,0-4.5,1.5-4.8,3.6c0,0.3,0,0.6,0.1,0.9c-1.5,0.5-3.4,1.3-3.4,2.7c0,0.6,0,1.1,0,1.7
	c0,2,2.2,2.2,3.8,2c0.7-0.1,1.9-0.4,3-0.9c0.4,0.1,0.8,0.2,1.3,0.3C1255.5,926.2,1262,926.3,1268.2,924.4z"/>
<path class="st1" d="M1250,929.4c-0.8-0.1-1.3-0.7-1.5-1.4c-0.1-0.3-0.2-0.7-0.2-1c-0.2-2.4-8.9-0.6-8.7,2.3c0.2,2.5,2.6,4.1,5,4.3
	c0.8,0.1,1.7,0,2.5-0.1c1.3-0.2,2.6-0.7,3.6-1.5C1252,930.9,1251.8,929.5,1250,929.4z"/>
<path class="st1" d="M1174.5,790.1c-1.3,0.4-3.2,1.1-3.7,2.5c-1.3,0.7-2.2,1.6-1.8,2.4c0.8,1.7,1.8,3.2,3.2,4.5
	c1.1,0.9,2.3,1.6,3.6,2.1c0.8,0.3,1.6,0.7,2.4,0.9c2,0.7,4.4,0.1,6.1-0.9c1-0.5,2.8-2.4,0.9-3.1c-0.3-0.1-0.6-0.2-0.9-0.4
	c-0.6-0.2-1.3-0.5-1.8-0.8c-0.1-0.2-0.3-0.4-0.6-0.6c-1-0.5-1.8-1.1-2.2-2.1c-0.4-1.2-0.3-2.5-0.3-3.7
	C1179.4,789.2,1175.3,789.9,1174.5,790.1z"/>
<path class="st1" d="M1174.7,978.5c1.9,0.1,4.5-1.5,4.8-3.6c0.2-2.3-2.3-3-4.1-3c0.4,0-0.3-0.1-0.3-0.1c-0.2-0.1-0.4-0.1-0.6-0.2
	c0.2,0.2,0.2,0.1-0.2-0.1c-0.4-0.3-0.8-0.6-1.2-0.9c-0.5-0.4-0.4-0.4-0.7-0.7c-0.9-0.9-2-1.3-3.2-1.3c-0.1-0.1-0.1-0.2-0.2-0.4
	c-1.3-1.8-4.1-1.7-5.9-0.8c-1.3,0.6-1.6,0.7-2.9,1c0.8-0.2-0.9,0-1.1,0c-0.7,0-1.4,0-2.1,0c-2,0-4.5,1.5-4.8,3.7
	c-0.2,2.3,2.3,3.1,4.1,3.1c2.9,0,5.6-0.4,8.3-1.3c1.1,1.1,2.1,2.1,3.4,2.9C1170,978,1172.2,978.4,1174.7,978.5z"/>
<path class="st1" d="M1165.1,976.4c-2,0.1-4.4,0.7-5.8,2.2c-3.5,3.7-3.7,8-3.7,12.8c0,2,8.7,0.6,8.7-2.3c0-4,0.1-7.7,3-10.7
	C1168.7,976.9,1166,976.4,1165.1,976.4z"/>
<path class="st1" d="M1245.5,839.6c1.8-0.1,3.6-0.3,5.3-0.8c0.2-0.1,2.7-0.9,1.8-0.6c0.9-0.3,0.6-0.3,1.3-0.3c0.5,0,1.1-0.1,1.7-0.2
	c1.4-0.3,2.9-0.9,3.9-1.9c1.4-0.3,2.7-0.9,3.6-1.9c1.3-1.6-1.1-2-2.2-2c-0.8,0-1.5,0.1-2.3,0.2c0.5-0.3,0.9-0.7,1.2-1.2
	c1.1-1.7-0.9-2.9-2.5-2.9c-0.6,0-1.1,0-1.7,0c-1,0-2.1,0.1-3.1,0.5c-1.1,0.4-2,1-2.6,2c-0.9,1.6,0.5,2.7,1.9,2.9
	c-0.9,0.1-1.9,0.3-2.8,0.3c-1.9,0.1-4.5,0.7-5.8,2.2c-0.6,0.7-0.4,1.2,0.1,1.5c0,0-0.1,0.1-0.1,0.1
	C1242,839.1,1244.3,839.6,1245.5,839.6z"/>
<path class="st1" d="M1241.5,911.1c0.6,0.4,1.7,0.5,2.2,0.5c0.6,0,1.1,0,1.7,0c1.9,0,4.5-0.8,5.8-2.2c1.4-1.5-1.2-1.8-2.1-1.8
	c-0.6,0-1.1,0-1.7,0c-1.9,0-4.5,0.8-5.8,2.2c-0.1,0.1-0.1,0.1-0.1,0.2c-0.5-1.4-2.5-1.7-3.9-1.7c-1.1,0-2.2,0-3.4,0
	c-1.8,0-4.5,1.4-4.8,3.4c-0.3,2.2,2.4,2.7,4,2.7c1.1,0,2.2,0,3.4,0C1238.5,914.4,1241.1,913,1241.5,911.1z"/>
<path class="st1" d="M1245.3,939.4c1.6-0.5,2.9-1.3,2.9-2.3c0-0.6,0-1.1,0-1.7c0-0.4-0.6-0.6-1.6-0.7c-2.5-0.1-7.1,1.1-7.1,3
	c0,0.6,0,1.1,0,1.7C1239.5,940.3,1242.8,940.2,1245.3,939.4z"/>
<path class="st1" d="M1211.6,862.6c1.7,0,3.4,0,5,0c2,0,4.5-1.5,4.8-3.6c0.2-2.3-2.3-3-4.1-3c-1.7,0-3.4,0-5,0c-2,0-4.5,1.5-4.8,3.6
	C1207.3,861.8,1209.8,862.6,1211.6,862.6z"/>
<path class="st1" d="M1213.8,981.4c0.1,0,0.2,0,0.3,0c0.1,0,0.1,0,0.3,0.1c0.7,0.2,1.3,0.4,1.9,0.6c1.3,0.4,2.7,0.9,4.2,1
	c2,0.1,4.6-0.6,5.7-2.6c1-1.8-0.8-3.2-2.6-3.3c-0.1,0-0.2,0-0.3,0c-0.1,0-0.1,0-0.3-0.1c-0.7-0.2-1.3-0.4-1.9-0.6
	c-1.3-0.4-2.7-0.9-4.2-1c-2-0.1-4.6,0.6-5.7,2.6C1210.2,980,1212.1,981.4,1213.8,981.4z"/>
<path class="st1" d="M792.9,812.9c-1.3,0.9-1.2,2.1,0.6,2.1c8.8,0,17.6,0,26.5,0c2.1,0,4.4-0.5,6.1-1.6c1.3-0.9,1.2-2.1-0.6-2.1
	c-8.8,0-17.6,0-26.5,0C797,811.2,794.7,811.7,792.9,812.9z"/>
<path class="st1" d="M818.2,823c-7.5,1.3-15.1,3.5-22.8,2.5c-3.6-0.5-9.1,4.6-3.3,5.4c8.5,1.1,16.8-1.1,25-2.6
	c1.7-0.3,4.5-1.1,4.9-3.1C822.4,823.2,819.5,822.8,818.2,823z"/>
<path class="st1" d="M1207.5,894.2c-1.1-1.1-2.2-2.2-3.4-3.4c-1.6-1.6-3.9-1.8-5.9-0.8c-1.4,0.7-3.6,3.1-2,4.7
	c1.1,1.1,2.2,2.2,3.4,3.4c1.6,1.6,3.9,1.8,5.9,0.8C1206.9,898.2,1209.2,895.8,1207.5,894.2z"/>
<path class="st1" d="M1251.6,674.1c9-56.4,20.7-112.5,29.8-168.8c2.7-16.6,16.3-64.4-7.2-71.5c-29-8.8-36.2,25.4-37.3,47.9
	c-0.1,0.2-0.1,0.4-0.2,0.6c-8.6,63.1-12.8,126.7-20,190c-49.6-5.5-100.1-4.1-149.9-2.5c-20.4,0.7-40.8,1.6-61.2,2.7
	c-9.1,0.5-20.5-0.7-29.3,1.9c-0.6,0.2-1.3,0.5-1.9,0.9c0.4-4.2,0.6-8.3,0.4-12.4c0-0.3,0-0.6-0.1-0.9c0-0.7-0.1-1.4-0.1-2.1
	c-0.2-2.3-4.6-2-7-0.4c-39.9-0.2-79.8-2.6-119.2-8.6c-4.6-0.7-9.2-1.5-13.8-2.2c0,0,0.1-0.1,0.1-0.1c2.6-2.3,5.4-4.5,8.3-6.7
	c20.2-14.8,44.3-21.9,62.6-39.7c5.1-4.9,8.7-10.4,11.1-16.2l-11,2.4c-4.1,9.1-10.9,17.7-21.7,25.3c-18.1,12.8-39.3,19.7-56.3,34
	c-2.4,0.3-4.5,2.3-4.5,4.1c-17.3,16.6-28.4,36.2-37,58.6c0,0.1,0,0.1,0,0.2c-0.9,0.2-2,0.2-3.3-0.3c-0.2-0.1-0.4-0.1-0.6-0.2
	c-1.2-0.5-2.3-1.3-3.2-2.1c-4.4-3.7-6.3-9.8-6-15.5c0.1-1.5-1-2.2-2.4-2.5c3.8-20.5,4-43.8-1.7-64.5c0,0,0,0,0,0
	c-0.7-2.4-1.4-4.7-2.2-7l-8.9,1.9c0.5,1.6,1,3.1,1.5,4.6c-6.7,0.8-13.3,1.8-19.9,3.4c-1.3,0.3-2.2,0.8-2.7,1.4
	c-13.3-5.2-29-0.2-41.2,7.2c-18.7-5.3-39.8-1.4-58.3,2.9c-19.3,4.5-39.7,11.8-56.2,23.6c-2.2-0.3-5.4,0.6-6.3,2.2
	c-0.8,1.4-1.5,2.9-2.1,4.5c-61.4,14.8-123.8,40.7-174.3,79.3c-14.5-101.6-23-204.6-33.5-306.5c0,0,0,0,0,0c1.3-0.7,2.1-1.5,1.4-2
	c-9.7-7.4-19.9-9.6-30.8-3.6c-10.8,6-4.9,22.4-3.9,32c4.1,39,8.3,78.1,12.6,117.1c7.5,67.8,14.1,136.1,25.5,203.3
	c-1.1,0-2.2,0-3.4,0.2c-2.7,0.5-5.5,3-4.3,3.8c-1.6,0.3-3.2,0.9-3.7,1.7c-3.3,4.7-4.1,10.2-3.2,15.7c-9.7,4.6-20.6,12.6-18.8,24.5
	c-1.4,0.5-2.5,1.3-2.8,2.3c-0.8,3.2-0.9,6.3-0.6,9.2c-7.7,10.8-0.8,27.6,7.2,36.3c10.2,11,23.1,6.2,30.5-4.1
	c2.9,0.5,5.8,0.6,8.6,0.4c-1.6,0.6-2.9,1.5-2.8,2.5c13.4,119.8,28,240.3,50.1,358.9c-3,1.7-5.9,3.5-8.5,5.7
	c-2.1,1.7-4.6,4.6-3.5,7.4c1.3,3.5,6.9,4.3,10.6,4.8c0,4.3-0.1,8.9,1.7,12.9c-25.2,28-37.7,58.8-34.3,96c-0.4,0.4-0.7,0.9-0.7,1.5
	c-1,28.2,11.6,53.2,34.3,69.9c2.6,1.9,10.5-1.8,6.8-4.5c-20-14.6-31.8-36.7-32.4-61.2c0.9-0.5,1.5-1,1.4-1.5c-0.1-1-0.2-2-0.3-3.1
	c0.5,0,1,0,1.7-0.2c24.7-5.4,45.9-19.3,69-29c25.6-10.7,53-16.8,79-26.4c-0.1,0.3,0,0.7,0.2,1c17.5,34.2,71.2,64.1,108.7,46.5
	c5.4-2.5,0.5-6.6-3.7-4.6c-15.7,7.4-35.3,4-53-4.7c0-0.1,0.1-0.1,0.1-0.2c2-13.3,2.1-27.7,4-41.5c0.7-5.2,1.7-10.4,3.1-15.4
	c1-3.5,2.1-6.8,3.6-10.1c0.7-1.5-0.1-2.6-1.6-3.1c-9.5-3.7-19.6-5.6-29.8-6.8c0.8-0.5,1.3-1,1.3-1.7c0-16.5,0-33.1,0-49.7
	c1,0,1.9,0,2.9,0c0.3,0,0.6,0,0.9-0.1c2.5,0,6.1-1.2,6.2-2.7c2.3-19.7,5.6-39.3,11.8-58c1.9-5.1,4-10.4,6-15.4
	c0.8-1.8,1.5-3.6,2.4-5.3c5.3-10.8,12.1-20.6,19.9-29.6c6.8,2.7,19.7,8.6,42.8,21.8c42,24,76,64,76,64s0.2-0.1,0.4-0.3
	c0.4,0.5,0.8,1,1.1,1.5c2.1,3,10.2-0.1,8.1-3.6c0.1-0.1,0.2-0.2,0.2-0.3c2.8-4.5,6-8.7,9.4-12.7c7.6-6.4,16.4-14,24-21.6
	c14.5,14,30.4,27.7,40.5,45.3c10.7,18.6,8.6,40.7,4.3,61c-8.6-1.1-17.2-2-25.8-2.7c-2-2.6-8.3-1.1-8.2,2.3c0.2,5,0.2,10.1,0,15.1
	c-0.8,21.8-4.7,43.7-9.1,65.2c-1.5,7.1-3,14.3-4.4,21.3c-2.9,14.1-6.1,28.2-8.9,42.3c-1,4.9-4.4,14.2-1.6,19.1c2,3.5,10.2,0.2,8-3.8
	c0,0,0,0,0,0c-2.1-3.6,2.7-16.9,3.4-20.7c3-14.9,6.4-29.7,9.4-44.6c6.1-29.8,12.8-60.8,12.1-91.4c2.1,0.2,4.3,0.4,6.4,0.6
	c5.9,0.6,11.8,1.4,17.6,2.2c0,0.1,0,0.2-0.1,0.3c0,0,0,0.1,0,0.1c-0.1,0.9,2.1,1,4.2,0.6c0.4-0.1,0.7-0.1,1.1-0.2
	c7.7,1.1,15.4,2.4,23,3.7c15.4,2.7,30.8,5.9,46.1,9.1c-17.4,47-35.6,93.8-48.8,142.1c-0.3,1-0.6,2-0.8,2.9c-0.4,1.5,8,0.4,8.6-1.6
	c13.2-49.2,31.7-96.8,49.4-144.6c1.2-0.8,1.8-1.6,0.8-2.1c0.2-0.5,0.4-1.1,0.6-1.6c0.3-0.9-3.9-0.8-6.5,0.2
	c-5.5-1.2-11-2.3-16.5-3.4c1.4-0.4,2.6-1,2.8-1.8c9.4-29,14.5-60.5,9.3-90.9c-4.3-25.3-24.8-43-35-65.8c0.7-0.9,0.9-2,0.1-3.2
	c-37-58.2-102.1-104.6-167.8-124.5c-0.3-0.1-0.6-0.1-0.9-0.1c-0.1,0-0.1-0.1-0.2-0.1c0.8-0.6,1.3-1.3,1.3-2.1
	c-1.9-53.7,19.1-104.5,55-143.5c-0.3,0.7,0.3,1.2,2.3,1.2c21-0.1,42-1.5,63-2.5c1.4-0.1,5.9-0.8,6.1-2.9c1.1-16.1,2.4-32.3,2.5-48.4
	c0-0.3-0.1-0.5-0.4-0.7c0.6-1.2,0.1-2.3-2.4-2.3c-2.8,0-5.6,0-8.3,0c-0.4,0-0.8,0-1.2,0c1.1-1.5,2.2-3.1,3.1-4.7
	c3.6-5.8,6.2-11.9,7.5-18.2c0.3-1.2,0.5-2.5,0.6-3.8c0.3,0,0.6,0.1,0.9,0.1c18.2,2.9,37.1,3.7,55.9,3.6c15.6,0,31.1-0.6,46.3-0.9
	c2.4,0,5.1-0.8,6-3.2c0.1-0.3,0.2-0.5,0.3-0.8c2.5-6.5,4.9-13,7.2-19.6c42.7-10.3,90.8-7.5,134.4-7.7c25.9-0.1,51.8,0.1,77.6,0.9
	c11.2,0.3,22.9,0.1,34.2,1.4c-14.3,8.5-24.9,17.9-18.2,26.2c4.3,5.3,12.1,4.9,19.2,3.2c-0.8,9.7-2.4,19.5-3.8,29.2
	c-0.3,2.2-0.7,4.4-1,6.6c-0.4,3.2,8.3,1.6,8.7-1.2c0.3-2,0.6-4.1,0.9-6.1c1.5-10.4,3.3-20.8,4-31.2c0.6-0.2,1.2-0.4,1.8-0.6
	c11.3-3.9,21.3-10.8,32.2-15.4c0.1,0.1,0.1,0.3,0.2,0.4c-0.6,0.4-1,0.8-1.1,1.2c-1.7,7.1-20,33.5-20.7,47.7c-0.2,3.4,0.7,6,2.9,7.6
	c-0.7,8,3.5,10.3,9,10c0,0.2,0,0.4,0,0.7c1.1,8,8.3,9.3,15.3,8.4c3.5-0.5,6.9-1.5,9.4-2.5c18.1-7.4,32.8-21.5,42.9-38.1
	C1326.8,744.1,1298.4,679.5,1251.6,674.1z M863,1123.9c2.5-0.8,4.7-1.4,6.7-2c9.5,21.4,27,37.9,33.7,60.8
	c8.7,29.4,1.3,65.4-7.8,93.8c-15.5-3.1-31-5.9-46.6-8.1c4.8-21.8,7-44-3.6-64.4c-9.8-18.8-28-33.3-43-47.9
	C821.2,1143.2,842.5,1133.3,863,1123.9z M1244.5,487.8c0.5-0.5,0.8-1,0.8-1.6c0.1-13.6,1.1-27.9,7.3-40.2
	c5.4-10.6,17.7-10.2,22.7-0.1c3.4,6.8,2.9,15.9,2.5,23.2c-1.2,22.4-6.5,45.3-10.3,67.3c-10.5,60.3-23,120.5-30.9,181.2
	c0,0.4,0,0.7,0.2,1c-5.1,2.7-11.9,5.9-19,9.5C1230.1,648.6,1234,567.8,1244.5,487.8z M799.4,699.3c0-0.4-0.1-0.7-0.2-1
	c2.4-5.3,4.9-10.4,7.7-15.3c0.4,14.6,3,29.2,2.8,43.8c-7.1-2.3-16.2-6.3-20.7-11C795.3,713.3,799.2,706.8,799.4,699.3z M759.5,630.2
	c0.3,0,0.7-0.1,1-0.1c1.1,4.5,2,9,2.7,13.7c1,7.4,1.4,14.9,1.2,22.5c-4-11.6-9.8-22.4-18.6-30.5c-1.1-1-2.3-1.9-3.5-2.7
	C748.1,631.7,753.8,630.9,759.5,630.2z M701.3,637.5c37.2-23.2,53.7,21.6,60.1,57.1c-0.2,0.8-0.3,1.7-0.5,2.5
	c-0.1,0.4,0.3,0.6,1,0.7c1.6,9.5,2.4,18.1,2.8,24.3c1.2,21.8-0.3,43.9-4.6,65.4c-1,4.7-2,9.5-3.3,14.1c-3.3,12.1-8.1,26-16.1,36.9
	c-3.3,4.5-7.1,8.4-11.6,11.5c-0.3,0.2-0.5,0.4-0.8,0.6c-2.6-0.2-5.2-0.6-7.7-1.1c-15.6-3-30-10.9-43.2-19.9
	c-8.6-5.8-23.2-15.1-27.2-25.3c-0.1-0.3-0.3-0.4-0.6-0.5c0.1-0.1,0.2-0.1,0.2-0.2c39-38.1,80.8-108.9,51.2-163.1
	c0.9-0.5,1.3-1,1-1.1c-1-0.4-2-0.8-3.1-1.2C700.1,638,700.9,637.7,701.3,637.5z M572.6,744.7c2,4.2,4.4,8.1,7.3,11.4
	c-0.8,0.3-1.4,0.6-1.7,1C525.3,819.8,473.2,886.5,472,972.3c-0.1,0.6-0.2,1.3-0.4,1.9c-2.8,14.5-4.2,29.2-5.4,43.9
	c-5.2,60.2-3.1,121.1,3.2,181.1c0,0.2,0,0.4,0.1,0.5c0,0,0,0,0,0c0.2,0.7,0.7,1.4,1.9,1.9c9.2,4.1,18.7,7.5,28.4,10.3
	c0.1,16.6,0.7,33.3,0.8,49.9c-10.4-3.3-21.2-4.9-31.8-4.5c0.2-0.4,0.3-0.8,0.2-1.1c-1-2-1.6-4.2-2.4-6.3c6.5-2.3,12.9-6,8-11.1
	c-3.2-3.5-8.6-5-14.1-5.4c0.1-0.2,0.2-0.5,0.1-0.7c-11.5-61.5-18.3-124-25.9-186.1c-8.4-68.5-16.3-137.1-23.9-205.6
	c3.2-2.2,5.9-5.3,7.3-9.2c1.5-4.1,1.5-8.8-1.6-12.2c-2.2-2.4-5.3-3.4-8.5-3.8c0.4-0.4,0.7-0.9,0.6-1.3c0,0,0,0,0,0
	C461.8,787.6,514,758.5,572.6,744.7z M478.4,983.8c-0.1,0.3-0.1,0.6-0.2,0.9c0,0,0-0.1,0-0.1c0-0.3,0.1-0.6,0.1-0.9
	C478.4,983.8,478.4,983.8,478.4,983.8z M401.4,838.8c-1.1,0.2-2.3,0.2-3.5,0c1.7-1,3.2-2.2,4.7-3.9c3.6-3.9,3.7-8.6,2.1-13.2
	c3.8,0.9,6.2,3.6,5,8.9c-0.4,1.9-1.2,3.4-2.2,4.7c-2.6,0.1-6.3,1.5-6.2,3.2C401.4,838.6,401.4,838.7,401.4,838.8z M570.3,676.4
	c-5.8,18.1-6.8,43.2,0,62.5c-58,13.8-110,42.3-162.9,68.9c-2.9-17.1-5.6-34.2-8.1-51.4C448.4,717.6,509.6,691.5,570.3,676.4z
	 M357.7,628.3c-3.8-33.6-7.5-67.2-11.2-100.8c-1.8-16.3-3.5-32.6-5.2-49c-0.8-7.5-1.6-14.9-2.4-22.4c-0.4-3.5-0.7-7-1.1-10.5
	c-1.2-11.7,13.6-6,19.4-1.9c-0.8,0.5-1.3,1.1-1.3,1.8c10.7,103.3,19.2,207.7,34.1,310.7c-0.8,1.1-0.5,2,0.4,2.6
	c2.6,17.5,5.3,35,8.3,52.5c-1.6-2.1-3.2-4-4.6-5.6c-3.8-4.2-9.2-9.6-15.2-12.8c0-0.1,0-0.2,0-0.3C369.6,738.2,364,683.1,357.7,628.3
	z M365.7,793.9c5.8,0.1,14.5,9.2,17.9,12.5c6.2,6,12.8,14,13.4,22.9c1.2,15.1-17.5,3.2-22.2-1.2c-8.3-7.9-16.5-21.9-8.8-32.8
	C366.5,794.5,366.3,794.1,365.7,793.9z M356.8,817.7C362,830,375,841,387.3,841.5c1.6,3.7,4.4,10.9,2.1,14.8
	c-0.7,0.4-1.2,0.9-1.4,1.5c-0.5,0.3-1,0.6-1.7,0.8c-7.3,2.1-16.5-2-22.8-5.2c-7.2-3.6-15.2-9.5-18-17.4
	C342.3,827.3,349.8,821.4,356.8,817.7z M354.8,884.2c-4.5-0.9-7.9-5.2-10.3-8.7c-2.6-3.8-5-9-5.8-14.3c5.9,7.7,15.4,13.3,24.7,16.4
	C361.4,881,358.5,885,354.8,884.2z M373.1,874c-0.3-1.3-2.6-1.7-4.7-1.2c-1.7-0.6-3.4-1.2-5.1-2c-10-4.5-19.3-13-21.5-23.5
	c4.6,5.3,11,9.3,16.7,12.2c8.7,4.6,20.6,8.2,30.4,5.1C389.1,873.9,381.6,875.7,373.1,874z M384.9,879.9c-0.1-0.5-0.7-0.8-1.6-0.9
	c9.4-2.2,16.1-9,13.8-20.7c2.1-3.9,2-8.7,0.8-13.6c1.4,0,2.8-0.2,4.2-0.4c7.6,68.2,15.5,136.4,23.8,204.5
	c7.5,61.6,14.3,123.6,25.6,184.6c-2.4,0.2-4.7,0.6-6.6,0.9c-3.4,0.7-6.8,1.7-10.2,2.9C412.7,1119.3,398.3,999.2,384.9,879.9z
	 M473.2,1334.2c-24.2,9.2-45.9,24.4-71.4,29.9c-0.4,0.1-0.6,0.2-0.9,0.3c-3.1-37.4,10.2-68.3,36-96.2c0.1-0.1-0.9-0.2-2.2-0.1
	c-1.3-3.8-1.1-8-1.1-12c0-0.2-0.2-0.3-0.4-0.4c-0.2-0.2-0.6-0.3-1.2-0.4c-4.4-0.6-12.5-2.4-7.5-7.9c1.4-1.6,3.2-2.9,5.1-4.1
	c2.4-0.3,5.3-1.4,5.6-2.8c2.1-0.9,4.3-1.6,6.2-2.2c6.4-1.9,13.4-1.5,19.7,0.5c2.3,0.8,5.3,2.2,6.2,4.6c0.6,1.6-0.7,2.8-2.4,3.6
	c-2-1.5-7.4,0.2-8.2,2.1c-1.4,0.4-2.8,1-3.3,2.1c-0.7,1.5,3,1.2,3.5,1.1c0.2,0,0.4-0.1,0.7-0.1c0.8,2.1,1.5,4.2,2.4,6.3
	c0.2,0.4,0.6,0.7,1.1,0.9c-1.1,0.8-1.3,1.4,1.3,1.2c33.1-2.2,70,19.7,86.5,48.4C524.1,1318.4,498.1,1324.8,473.2,1334.2z
	 M508.4,1214.9c2.7,1,5.5,2.1,8.5,3.1c11.3,3.8,24.4,4.4,36.3,3.7c7.4,0.7,14.7,1.1,22.1,1.4c0,16.9,0,33.8,0,50.8
	c-18-1.6-36.5-1.7-53.8-5.6c-1.1-0.3-2.6,0.1-3.9,0.8c-2.8-1.5-5.7-2.9-8.7-4.1c0.3-0.3,0.4-0.7,0.4-1.1
	C509.2,1247.5,508.6,1231.2,508.4,1214.9z M597.3,1284c6.3,1.3,7.7,0.1,6.1,5.8c-2.1,6.8-3.3,13.8-4.3,20.9
	c-1.8,12.2-2.4,24.5-3.9,36.8c-15.5-9.3-28.6-22.4-35.2-35.2c-0.3-0.5-0.7-0.9-1.3-1.2c0.7-0.4,1.1-0.8,0.9-1.1
	c-0.1-0.1-0.1-0.2-0.2-0.3c0.3-0.8-0.2-1.5-1.1-2c-6.8-12.4-17-23.1-29-31.5C551.8,1279.5,574.9,1279.5,597.3,1284z M625.2,1113.9
	c1-2.5,1.7-4,1.7-4s0.4,0,1.5,0.3C627.3,1111.4,626.3,1112.7,625.2,1113.9z M767.2,844c0.3-0.3,0.5-0.6,0.8-0.9c0,0,0,0,0,0.1
	c0,0.1,0,0.2,0.1,0.3C767.7,843.7,767.4,843.8,767.2,844z M830.9,795.8c-0.1,14.8-1.3,29.5-2.3,44.2c-17.5,0.9-35,1.9-52.6,2.1
	c0.4-0.4,0.6-0.8,0.6-1.3c0-2.2,0.1-4.5,0.3-6.7c0,0,0,0,0,0c1.3-1.2,1-1.9,0.1-2.3c0.8-11.9,2.5-23.8,2.2-35.8c0,0,0-0.1,0-0.1
	c7.3,0,14.6,0,21.9,0c0.1,0.1,0.3,0.1,0.4,0.1c0.9,0.2,2.3,0.1,2.7,0c0,0,0,0,0,0c0.2,0,0.5-0.1,0.7-0.1c0.5,0,1,0,1.4,0
	c4,0,7.9,0,11.9,0c0.9,0.2,2,0.2,2.9,0C824.5,795.8,827.7,795.8,830.9,795.8z M806.6,790c0.2-0.2,0.3-0.5,0.3-0.8c0-3.2,0-6.3,0-9.5
	c0.1,0,0.3,0,0.5,0c1,2.3,1.7,4.7,1.7,7.3c0,0.9-0.3,2-0.7,2.9C807.7,790,807.2,790,806.6,790z M953.6,722.2
	c-4.1,13-8.6,26-13.5,38.7c-32.9,0.8-67.7,2.6-100-3.3c-0.3-0.1-0.7-0.1-1.1,0c-0.1-7-1.9-14.1-5.9-21.2c-2-3.6-10.3-0.2-7.9,3.9
	c9.8,17.4,4.5,35-7.1,49.7c-0.6,0-1.3,0-1.9,0c0.2-0.3,0.4-0.5,0.6-0.8c2.4-3.7,0.9-9-0.8-12.6c-0.4-0.9-1.7-0.8-2.5-0.8
	c-2.9,0-5.9,0-8.8,0c-1.9,0-4.5,0.8-5.8,2.2c-0.4,0.4-0.5,0.7-0.4,0.9c0,0,0,0,0,0c0,3.7,0,7.3,0,11c-6.4,0-12.9,0-19.3,0
	c-1.6,0-3.5,1-4.6,2.2c-2,0.6-3.9,1.7-3.8,3.1c0.7,13.1-1.2,26.1-2.1,39.1c-42.5,40.9-68,96.1-66.3,155.6c0,0.4,0,0.9,0,1.3
	c0,0.4,0.2,0.7,0.5,0.9c-0.8,0.3-1.5,0.7-1.9,1.2c-6.5,7.7-14.7,13.2-23.9,17c-4.1,1.5-8.6,3-13.5,4.4c-25.8,6.3-56.2,3.3-79.1,0
	c-2.9-0.4-5.9-0.9-9-1.4c-25.7-6.9-54.7-16.7-74.1-23.5c-4-2.2-7.8-4.7-11.4-7.3c-3.3-2.4-6.5-4.9-9.4-7.6c-0.3-0.3-0.7-0.5-1.1-0.6
	c0.1-0.8,0.2-1.6,0.4-2.4c0.6-0.4,1-0.9,1.1-1.5c0-0.9,0.1-1.8,0.1-2.7c0.3-0.7,0.6-1.4,1-2c-0.3,0.1-0.6,0.2-0.9,0.3
	c0.8-0.5,1-1-0.1-1.1c1.8-47.7,19.4-89.5,43.9-128c4.9-7.8,10.2-15.4,15.6-22.9c13.5-18.8,28.3-36.8,43.2-54.6
	c1.2,1,2.4,1.9,3.6,2.8c0.9,0.6,2.5,0.5,3.9,0.1c0.2,0,0.4,0,0.6,0c21.4-1.9,42.8-9,62.5-17c15.3-6.3,40.8-17.3,43.2-36.3
	c0.4-3.4-8.3-1.7-8.7,1.1c-2.3,17.9-26.9,27.2-41.2,33c-16.9,6.9-35.5,12.6-53.8,14.4c-23.6-15.7-23.2-65.1-12-89.1
	c6.3-5.4,13.3-9.7,20.8-13.3c3.5-1.7,7-3.2,10.6-4.6c6.9-2.7,14-4.9,21-6.8c17.8-4.9,39.9-8.9,57.8-2.2c0,0.1,0,0.3,0,0.4
	c30.1,53.7-11.3,124.2-50,162c-0.7,0.7-0.2,1.1,0.9,1.1c-0.9,0.5-1.5,1-1.3,1.5c4.6,11.7,21.1,21.4,30.8,28
	c16.6,11.3,36,19.7,56.4,19.6c1.8,0,9.8-3.5,5.7-3.5c18.7-11.6,27-35.4,32.2-55.7c6.7-26.5,8.4-54.5,6.3-81.8
	c1.7,1.2,3.6,2.1,5.7,2.7c5,9.2,23.6,16.3,32.6,17.8c2,0.3,6.8-0.2,7-3.1c1.3-19.8-3.8-39.5-2.5-59.2c0-0.7-0.2-1.2-0.5-1.6
	c3.9-5.4,8.2-10.6,13-15.4c45.5,8,91.6,11.1,137.8,11.4C966.7,684.6,959,704.8,953.6,722.2z M1170.2,729.6
	c-25.5-0.8-50.9-1-76.4-0.9c-44.2,0.1-92.7-2.5-136.4,7.3c1.7-4.9,3.3-9.8,4.9-14.7c4.3-13.4,9.5-28.3,11.6-43c0.3,0,0.6,0.1,1,0.1
	c0.1,0,0.1,0,0.2,0c0.6,0,1.3-0.1,2.1-0.4c0,0,0,0,0,0.1c-2.5,0.8,5.4-0.2,6.9-0.3c7-0.4,14-0.8,21-1.1c19.4-1,38.7-1.8,58.1-2.5
	c49.6-1.7,100.1-3.1,149.5,2.6c0.8,0.1,2.2-0.3,3.6-0.9c-2.1,18.3-4.5,36.5-7.3,54.7c-0.1,0.6,0.1,1,0.3,1.3
	C1196.5,729.6,1183,730,1170.2,729.6z M1302.2,763.8c-3.3,16.8-15,31.4-27.9,42.1c-4.6,3.8-28.4,20.6-30.3,7.3
	c0-0.2-0.1-0.3-0.1-0.5c2.2-0.9,4.3-1.9,6.1-2.9c12.1-7,28.6-19.8,33.1-33.7c1.2-3.6-7.7-2.5-8.8,0.9c-3.1,9.4-13.8,17.7-21.3,23.5
	c-4.5,3.5-16.6,13.3-17.9,6c19.4-1.4,30.1-28,36.5-43.2c0.8-1.8-7.6-0.9-8.6,1.4c-2.9,6.7-5.9,13.3-9.4,19.7
	c-1.7,3.1-12.5,19.1-18.5,18.3c0,0,0-0.1,0-0.1c0.2-1.7-1.1-2.4-2.8-2.4c-0.3-0.6-0.5-1.3-0.7-2.1c-1.7-7.9,6.3-19.4,9.7-25.9
	c2.9-5.5,6.4-11.2,9-17.1c1.8-0.4,3.5-1.2,3.7-2.4c0.6-4.5,1.5-5-1.3-8.8c-1.1-1.5-4.5-0.3-5.8,0.2c-6.3,2.1-22.4,12.4-36,17.2
	c-1.3-2.1-8.3-0.4-8.4,2c0,0,0,0.1,0,0.2c-6.5,0.9-11.4-0.8-12.6-7.4c-1.3-7,8-13.3,17.1-18c0,0,0,0,0,0c2.2,0.4,4.5-1,5.4-2.6
	c3.8-1.7,7.1-3.2,9.1-4.2c10.3-5.1,22.6-9.7,30.8-18c1.5-1.5-3.9-1.1-6.6,0c1.5-10.9,3.1-21.8,4.8-32.7
	C1285.1,686.3,1308.5,731.5,1302.2,763.8z"/>
<path class="st1" d="M758,600.4c-7.4-11.6-16.9-12.6-29.4-14.4c-13.1-1.9-16-17.5-10.6-27.4c1.8-2.7,4.1-5,7-6.6
	c0.4-0.2,0.8-0.4,1.2-0.6c4.7-1.7,10.8-1,18.2,3.6c0.4,0.2,0.9,0.3,1.5,0.2c0,0.2,0,0.4-0.1,0.6c-0.3,3.3,8.4,1.6,8.7-1.2
	c1.5-16.2,2.4-31.8-5.3-46c17.6-4.6,29.7-16.6,39.6-31.2c0,0,0,0,0.1,0c3.9,0,7.8,0,11.8,0c2,0,4.6-0.6,5.7-2.5
	c1-1.8-0.9-3.1-2.5-3.1c-3.8,0-7.6,0-11.5,0c10.7-17.4,19-37.5,29.9-53.5c11.9,12.9,24.3,29.2,39.2,40.1
	c-5.7,2.9-10.1,7.6-13.1,13.6c-0.8,1.6,3.1,1.4,3.6,1.3c1.7-0.3,4.2-0.9,5-2.6c1.9-3.7,4.6-7.5,8.2-9.7c8.8,5.7,18.5,9.4,29.5,9.4
	c0.7,0,1.5-0.2,2.3-0.6c-0.3,13.6,2.4,27.7,5.5,41.8c-0.7-0.2-1.8-0.1-3.2,0.3c-9,2.7-17.6,0.8-26.3-1.9c-2.1-0.7-9.9,2.6-7.1,3.5
	c11.4,3.6,22.6,4.9,34.2,1.4c1.4-0.4,2.3-0.9,2.8-1.4c5.9,26.4,12.8,52.7,2.8,75.1l11-2.4c7.1-16.8,4.7-36.7,0.3-56.8
	c0.1-0.1,0.2-0.3,0.3-0.4c9.6-19.7,24.9-41.2,21.5-62.2c0.1-1,0.2-1.9,0.2-2.6c0-1.6-1-3.5-2.7-5.8c-1.8-4.2-4.5-8.4-8.3-12.5
	c-8.9-9.7-19.5-16.9-27.7-27.4c-7.8-10.1-13-22.3-18.7-33.7c-9.9-19.8-21.6-39.7-44.8-44.4c-32.7-6.6-51.8,22.2-76.5,36.3
	c-14.8,8.4-35.5,5.4-51.8,9.6c-0.9,0.2-1.7,0.6-2.5,0.8c-29.5-22.6-66.8-15.6-85.6,18.5c-8.2,14.8-11,33.4-4.6,49.4
	c7.6,18.9,28.4,25.1,47,25.7c0.6,0,1.3-0.1,2-0.4c3.4,7.8,7.9,15.4,11.3,22.3c8.7,18.1,7.8,30.7,0.8,49.4c-2.8,7.5-5,15.2-5.1,22.8
	c-1.3,5.1-1,9.7,2.8,14.6c0.5,1.2,1.1,2.4,1.8,3.7c12.7,22.5,46,27.1,69.4,23.8c3.3-0.5,6.6-1.3,9.7-2.5c0.8,2.1,1.6,4.2,2.3,6.3
	l8.9-1.9C764.4,612.1,761.6,606,758,600.4z M778.5,481.9c-2.7,3.5-5.5,6.8-8.6,9.8C772.7,488.8,775.6,485.6,778.5,481.9z M647.9,472
	c2.5,0.2,5.4,0.9,8.9,2.4C653.6,473.8,650.6,473.1,647.9,472z"/>
<path class="st1" d="M1199.5,993.4c1.6,1.6,9.6-1.6,8.2-3c-1.7-1.7-3.4-3.4-5-5c-1.6-1.6-9.6,1.6-8.2,3
	C1196.1,990.1,1197.8,991.8,1199.5,993.4z"/>
<path class="st1" d="M1327.5,1318.7c-0.1-1.1-0.6-2-1.9-2h-229.1c-1.1,0-1.9,1.1-2.1,2.3c-1.1,0.6-1.8,1.5-1.8,2.5
	c0,28.6,0,57.1,0,85.7c0,1,1.2,1.4,2.7,1.3c0.3,0.1,0.6,0.2,0.9,0.2h224.3c1.5,1.6,8.4-0.1,8.4-3c0-28.6,0-57.1,0-85.7
	C1328.9,1319.3,1328.3,1318.9,1327.5,1318.7z M1320.2,1322.3c0,27,0,54,0,80.9h-218.9c0-27,0-54,0-81.1h218.9
	C1320.2,1322.2,1320.2,1322.3,1320.2,1322.3z"/>
<path class="st1" d="M620,1394c-32.2,8.2-66.6-0.9-93.3-19.8c-2.9-2-10.7,2-6.8,4.7c29.1,20.6,66.6,29.4,101.5,20.5
	C626.8,1398.1,625.3,1392.7,620,1394z"/>
<path class="st1" d="M636,1378.8c-16.7,7.2-42.4-1.7-55-13.3c-1.6-1.5-9.3,1.9-8.2,2.9c17,15.6,46.9,20.5,68.2,11.3
	C646.2,1377.4,637.9,1378,636,1378.8z"/>
<path class="st1" d="M1194.6,981.1c1.4-0.2,4.9-1.2,4.9-3.1c0-0.4,0-0.8,0-1.2c0,0,0-0.1,0-0.1c0.8-0.5,1.5-1.2,1.6-2
	c0.2-0.8-0.2-1.3-0.7-1.6c0.6-0.6,1.1-1.1,1.7-1.7c1.5-1.5,0.7-3.6-1.1-4.2c-2.2-0.8-4.6,0.1-6.1,1.6c-0.6,0.6-1.1,1.1-1.7,1.7
	c-1.1,1.1-0.9,2.5-0.1,3.5c-0.6,0.4-1.2,0.9-1.6,1.5c-0.7,1.1-0.8,2.3-0.8,3.6C1190.8,981,1193,981.3,1194.6,981.1z"/>
<path class="st1" d="M1327.5,1076.9c-0.1-1.1-0.6-2-1.9-2h-229.1c-1.1,0-1.9,1.1-2.1,2.3c-1.1,0.6-1.9,1.5-1.9,2.5
	c0,28.6,0,57.1,0,85.7c0,1,1.2,1.4,2.7,1.3c0.3,0.2,0.6,0.2,0.9,0.2h224.3c1.5,1.6,8.4-0.1,8.4-3c0-28.6,0-57.1,0-85.7
	C1328.9,1077.4,1328.3,1077,1327.5,1076.9z M1320.2,1080.4c0,27,0,54,0,80.9h-218.9c0-27,0-54,0-81.1h218.9
	C1320.2,1080.4,1320.2,1080.4,1320.2,1080.4z"/>
<path class="st1" d="M1401.7,999.1c-0.4-0.8-1.3-1.5-2.9-1.5h-178.6h-31.6h-172.8c-2.3,0-3.8,1.7-3.7,3.2c-2.2,1.1-3.8,2.6-1.7,3.3
	c6.5,2.4,9.9,25.7,12.5,31.8c1,2.4,2.4,4.9,5.1,5.5c1.1,0.2,2.2,0.4,3.3,0.5c0,127.6,0,255.2,0,382.8c0,2.7,8.7,1,8.7-2.3
	c0-126.6,0-253.3,0-379.9c8.3,0.1,17-0.9,24.5-0.8c53.5,0.3,106.9,1.1,160.4,1.8c51.9,0.7,103.9,1.3,155.8,1.4
	c0,126.6,0,253.3,0,379.9c0,2.7,8.7,1,8.7-2.3c0-126.3,0-252.6,0-378.9c2.8-1.9,3.9-5.7,5-9.3c2-6,5.3-29.4,9.3-31.8
	C1407.2,1000.4,1404.6,999.1,1401.7,999.1z M1391,1016.7c-1.6,5.4-3,10.9-4.6,16.3c-0.6,2.1-1.3,4.2-2,6.3
	c-0.9,2.4-9.7,0.5-13.8,0.5c-49.4-0.1-98.9-0.8-148.3-1.4c-49.5-0.7-99-1.3-148.5-1.7c-11.9-0.1-23.7-0.1-35.6-0.2
	c-7.8,0-8.1-6.3-10.3-12.8c-1.5-4.5-3.1-15.1-7-20.6h374.3C1392.9,1007.1,1392,1013.2,1391,1016.7z"/>
<path class="st1" d="M573.2,1421.6c-21.8,1-42.9-1.3-62.9-10.2c-13.2-5.9-24.3-15.3-35.7-24c-3.3-2.5-10.8,2.1-6.6,5.2
	c12.1,9.1,23.7,18.3,37.4,24.9c20.8,10.1,44.5,11.9,67.2,10.8C577.6,1428.1,579.1,1421.3,573.2,1421.6z"/>
<path class="st1" d="M1454.1,979.7c-9.5-1.5-16.9-7.4-15.7-17.6c0.3-2.7-3.2-3.1-5.9-2c-2.1-1.3-7.4,0-7.9,2.8
	c-1.4,7.9-4.9,15.7-12.6,19.1c-1.2,0.5-2.6,1.9-2.5,3.2c-1.3,0.4-2.4,1-3.1,2.2c-1,1.8,0.8,3.2,2.5,3.2c10.9,0.3,18.1,7.2,22.4,16.8
	c1.6,3.5,10.1,0.9,8.7-2.3c-0.5-1.1-1-2.1-1.6-3.2c0.8-0.4,1.4-0.9,1.5-1.4c1-4.6,3.7-12.4,9-12.5c1.9-0.1,4.4-0.8,5.8-2.1
	c0.6-0.6,0.5-1,0-1.2C1457.1,983,1458,980.3,1454.1,979.7z M1434,995.1c-4.2-4.8-9.5-8.2-15.9-9.6c5.8-3.2,9.9-8.1,12.5-14
	c2.4,7.1,9.2,11.4,17.1,13.3C1441.6,986.3,1436.9,989.9,1434,995.1z"/>
<path class="st1" d="M498,1440.8c-25.5-2.7-49.8-25.7-56-50.2c-1-3.8-9.7-1.5-8.7,2.3c6.8,27.1,33.7,51,61.6,53.9
	C498.9,1447.2,503.9,1441.4,498,1440.8z"/>
<path class="st1" d="M1080.9,896.6c-9.5-1.5-16.9-7.4-15.7-17.6c0.3-2.7-3.2-3.1-5.9-2c-2.1-1.3-7.4,0-7.9,2.8
	c-1.4,7.9-4.9,15.7-12.6,19.1c-1.2,0.5-2.6,1.9-2.5,3.2c-1.3,0.4-2.4,1-3.1,2.2c-1,1.8,0.8,3.2,2.5,3.2c10.9,0.3,18.1,7.2,22.4,16.8
	c1.6,3.5,10.1,0.9,8.7-2.3c-0.5-1.1-1-2.1-1.6-3.2c0.8-0.4,1.4-0.9,1.5-1.4c1-4.6,3.7-12.4,9-12.5c1.9-0.1,4.4-0.8,5.8-2.1
	c0.6-0.6,0.5-1,0-1.2C1083.8,899.9,1084.7,897.2,1080.9,896.6z M1060.7,912c-4.2-4.9-9.5-8.2-15.9-9.6c5.8-3.2,9.9-8.1,12.5-14
	c2.4,7.1,9.2,11.4,17.1,13.3C1068.4,903.2,1063.6,906.8,1060.7,912z"/>
<path class="st1" d="M383.8,1244.3c-9.5-1.5-16.9-7.4-15.7-17.6c0.3-2.7-3.2-3.1-5.9-2c-2.1-1.3-7.4,0-7.9,2.8
	c-1.4,7.9-4.9,15.7-12.6,19.1c-1.2,0.5-2.6,1.9-2.5,3.2c-1.3,0.4-2.4,1-3.1,2.2c-1,1.8,0.8,3.2,2.5,3.2c10.9,0.3,18.1,7.2,22.4,16.8
	c1.6,3.5,10.1,0.9,8.7-2.3c-0.5-1.1-1-2.1-1.6-3.2c0.8-0.4,1.4-0.9,1.5-1.4c1-4.6,3.7-12.4,9-12.5c1.9-0.1,4.4-0.8,5.8-2.1
	c0.6-0.6,0.5-1,0-1.2C386.8,1247.6,387.7,1244.9,383.8,1244.3z M363.7,1259.7c-4.2-4.8-9.5-8.2-15.9-9.6c5.8-3.2,9.9-8.1,12.5-14
	c2.4,7.1,9.2,11.4,17.1,13.3C371.3,1250.9,366.5,1254.5,363.7,1259.7z"/>
<path class="st1" d="M1300.8,873.7c-1.2,0.5-2.6,1.9-2.5,3.2c-1.3,0.4-2.4,1-3.1,2.2c-1,1.8,0.8,3.2,2.5,3.2
	c10.9,0.3,18.1,7.2,22.4,16.8c1.6,3.5,10.1,0.9,8.7-2.3c-0.5-1.1-1-2.1-1.6-3.2c0.8-0.4,1.4-0.9,1.5-1.4c1-4.6,3.7-12.4,9-12.5
	c1.9-0.1,4.4-0.8,5.8-2.1c0.6-0.6,0.5-1,0-1.2c2.2-1.5,3.1-4.2-0.7-4.8c-9.5-1.5-16.9-7.4-15.7-17.6c0.3-2.7-3.2-3.1-5.9-2
	c-2.1-1.3-7.4,0-7.9,2.8C1312,862.4,1308.5,870.3,1300.8,873.7z M1319.3,863.3c2.4,7.1,9.2,11.4,17.1,13.3c-6,1.4-10.7,5-13.6,10.3
	c-4.2-4.8-9.5-8.2-15.9-9.6C1312.6,874,1316.7,869.1,1319.3,863.3z"/>
<path class="st1" d="M1204.3,1254.2c9.2,1.7,18.1-1.9,22.1-10.7c3.7-8.4-0.7-16.5-9.3-18.8c-1.1-0.3-2.3-0.3-3.4,0
	c-0.5-0.9-1.5-1.4-2.6-1.5c-8.8-0.4-16.3,4.3-18.7,12.9C1189.9,1244.8,1195.9,1252.7,1204.3,1254.2z M1207.9,1229.3
	c0.8,0,1.6-0.1,2.5-0.3c0.2,0.6,0.7,1.1,1.6,1.4c5.3,1.4,7.6,5.4,6.6,10.7c-0.8,4.2-4.5,8.6-9.1,7.6c-5.2-1.1-8.7-4.4-8.8-9.9
	C1200.6,1234.5,1203,1229,1207.9,1229.3z"/>
<path class="st1" d="M844.7,587.5c8.6,1.9,17.3-0.4,24.6-5c1.5-1,0.9-2.3-0.7-2.5c-2.2-0.3-4.4,0.5-6.1,1.6
	c-3.9,2.4-7.9,2.7-12.3,1.7C848,582.9,840.1,586.5,844.7,587.5z"/>
<path class="st1" d="M1248.9,863.5c-0.6,0-1.1,0-1.7,0c-2,0-4.6,0.6-5.7,2.4c-1.2,1.7,1,2.6,2.4,2.6c0.6,0,1.1,0,1.7,0
	c2,0,4.6-0.6,5.7-2.4C1252.5,864.4,1250.3,863.5,1248.9,863.5z"/>
<path class="st1" d="M1007.3,1216.6c-9.5-1.5-16.9-7.4-15.7-17.6c0.3-2.7-3.2-3.1-5.9-2c-2.1-1.3-7.4,0-7.9,2.8
	c-1.4,7.9-4.9,15.7-12.6,19.1c-1.2,0.5-2.6,1.9-2.5,3.2c-1.3,0.4-2.4,1-3.1,2.2c-1,1.8,0.8,3.2,2.5,3.2c10.9,0.3,18.1,7.2,22.4,16.8
	c1.6,3.5,10.1,0.9,8.7-2.3c-0.5-1.1-1-2.1-1.6-3.2c0.8-0.4,1.4-0.9,1.5-1.4c1-4.6,3.7-12.4,9-12.5c1.9-0.1,4.4-0.8,5.8-2.1
	c0.6-0.6,0.5-1,0-1.2C1010.2,1219.8,1011.1,1217.2,1007.3,1216.6z M987.1,1232c-4.2-4.8-9.5-8.2-15.9-9.6c5.8-3.2,9.9-8.1,12.5-14
	c2.4,7.1,9.2,11.4,17.1,13.3C994.8,1223.1,990,1226.7,987.1,1232z"/>
<path class="st1" d="M1204.3,1373.9c9.2,1.7,18.1-1.9,22.1-10.7c3.7-8.4-0.7-16.5-9.3-18.8c-1.1-0.3-2.3-0.3-3.4,0
	c-0.5-0.9-1.5-1.4-2.6-1.5c-8.8-0.4-16.3,4.3-18.7,12.9C1189.9,1364.4,1195.9,1372.3,1204.3,1373.9z M1207.9,1348.9
	c0.8,0,1.6-0.1,2.5-0.3c0.2,0.6,0.7,1.1,1.6,1.4c5.3,1.4,7.6,5.4,6.6,10.7c-0.8,4.2-4.5,8.6-9.1,7.6c-5.2-1.1-8.7-4.4-8.8-9.9
	C1200.6,1354.1,1203,1348.7,1207.9,1348.9z"/>
<path class="st1" d="M739.3,563.1c-5.4-0.2-10.1,2.4-13.9,6c-1.4,1.3-0.9,3,0.9,3.4c2,0.5,4.6-0.2,6.1-1.6c0.7-0.7,2.8-2.6,3.3-2.5
	c2.3,0.3,3.9,3,4.8,4.8c1.7,3.2,10.2,0.4,8.7-2.3C747.2,566.9,744.1,563.2,739.3,563.1z"/>
<path class="st1" d="M786.8,533.5c14.9,3.3,32.8-1.2,39.8-15.9c0.8-1.6-7.5-0.9-8.6,1.5c-4.7,9.9-13.5,13.3-24.1,11
	c-2-0.4-4.3,0.2-6.1,1.1C787.1,531.4,784.8,533,786.8,533.5z"/>
<path class="st1" d="M1204.3,1134.6c9.2,1.7,18.1-1.9,22.1-10.7c3.7-8.4-0.7-16.5-9.3-18.8c-1.1-0.3-2.3-0.3-3.4,0
	c-0.5-0.9-1.5-1.4-2.6-1.5c-8.8-0.4-16.3,4.3-18.7,12.9C1189.9,1125.1,1195.9,1133,1204.3,1134.6z M1207.9,1109.6
	c0.8,0,1.6-0.1,2.5-0.3c0.3,0.6,0.7,1.1,1.6,1.4c5.3,1.4,7.6,5.4,6.6,10.7c-0.8,4.2-4.5,8.6-9.1,7.6c-5.2-1.1-8.7-4.4-8.8-9.9
	C1200.6,1114.8,1203,1109.3,1207.9,1109.6z"/>
<path class="st1" d="M1327.5,1195.3c-0.1-1.1-0.6-2-1.9-2h-229.1c-1.1,0-1.9,1.1-2.1,2.3c-1.1,0.6-1.8,1.5-1.8,2.5
	c0,28.6,0,57.1,0,85.7c0,1,1.2,1.4,2.7,1.3c0.3,0.1,0.6,0.2,0.9,0.2h224.3c1.5,1.6,8.4-0.1,8.4-3c0-28.6,0-57.1,0-85.7
	C1328.9,1195.8,1328.3,1195.4,1327.5,1195.3z M1320.2,1198.9c0,27,0,54,0,80.9h-218.9c0-27,0-54,0-81.1h218.9
	C1320.2,1198.8,1320.2,1198.8,1320.2,1198.9z"/>
<path class="st1" d="M879.9,545.3c-6.3,7.1-11.7,14.8-17.6,22.3c-3.4,4.3,4.9,5.1,7.2,2.2c6.7-8.5,12.7-17.4,20.2-25.2
	c1.9-2,0-3.7-2-4.1c-10.8-2.1-17.8-9.8-22.8-19.1c-1.7-3.1-10-0.1-8,3.7C862.2,535.1,869.7,542,879.9,545.3z"/>
<path class="st1" d="M1185.7,828.9c-2.2-2-4.6-2.7-7.5-2.7c-2.1,0-4.6,0.6-5.7,2.5c-1,1.8,0.8,3.2,2.5,3.2c1.2,0,1.7-0.2,2.6,0.6
	c1.6,1.5,4,1.3,5.8,0.4C1184.7,832.4,1187.3,830.3,1185.7,828.9z"/>
<path class="st1" d="M1185,898.5c1.9,0,4.5-0.7,5.8-2.3c1.3-1.7-1.1-2.3-2.3-2.3c-0.6,0-1.8-0.2-2.6-0.8c-1.1-0.8-1.4-1.8-1.5-3.1
	c-0.1-2.5-8.8-0.8-8.7,2.3c0,0.8,0.3,1.5,0.6,2.2c-0.6,0-1.2,0-1.8,0c-2.1,0-4.4,0.6-6.1,1.6c-0.3,0.2-1.2,0.7-1,1.2
	c0.1,0.5,1.2,0.5,1.5,0.5c1.1,0,2.2,0,3.4,0c1.9,0,4-0.5,5.8-1.5C1179.9,897.9,1182.7,898.4,1185,898.5z"/>
<path class="st1" d="M1169.9,914.7c1.4-0.8,1.2-1.8-0.5-1.8c-0.6,0-1.1,0-1.7,0c-2.1,0-4.4,0.6-6.1,1.6c-1.4,0.8-1.2,1.8,0.5,1.8
	c0.6,0,1.1,0,1.7,0C1165.9,916.4,1168.2,915.8,1169.9,914.7z"/>
<path class="st1" d="M1170.7,869.8c0,0.6,0,1.1,0,1.7c0,2,2.2,2.2,3.8,2c1.3-0.2,4.9-1.2,4.9-3.1c0-0.6,0-1.1,0-1.7
	c0-2-2.2-2.2-3.8-2C1174.2,866.9,1170.7,867.9,1170.7,869.8z"/>
<path class="st1" d="M1178.8,852.7c-1.9,0-4.5,1.4-4.8,3.5c-0.3,2.3,2.3,2.8,4,2.8c1.1,0,2.2,0,3.4,0c1.9,0,4.5-1.4,4.8-3.5
	c0.3-2.3-2.3-2.8-4-2.8C1181,852.7,1179.9,852.7,1178.8,852.7z"/>
<path class="st1" d="M1157.9,943.2c1.8-0.1,4.8-1.4,4.8-3.6c0-0.6,0-1.1,0-1.7c0-2.2-2.1-3.2-4.1-3c-1.8,0.1-4.8,1.4-4.8,3.6
	c0,0.6,0,1.1,0,1.7C1153.8,942.4,1155.9,943.3,1157.9,943.2z"/>
<path class="st1" d="M1161.9,889.5c-2,0-4.5,1.5-4.8,3.6c-0.2,2.3,2.3,3,4.1,3c0.6,0,1.1,0,1.7,0c2,0,4.5-1.5,4.8-3.6
	c0.2-2.3-2.3-3-4.1-3C1163.1,889.5,1162.5,889.5,1161.9,889.5z"/>
<path class="st1" d="M1155,859.4C1155,859.5,1155,859.5,1155,859.4c-1,0.4-1.9,0.8-2.5,1.6c-1.3,1.5,1.1,2.1,2.2,2
	c2-0.2,3.6-0.6,5.4-1.4c0.4-0.2,0.9-0.6,1.3-0.9c0,0,0,0,0,0c0.9-0.3,1.8-0.8,2.4-1.6c1.3-1.5-1.1-2.1-2.2-2c-2,0.2-3.6,0.6-5.4,1.4
	C1155.9,858.8,1155.4,859.1,1155,859.4z"/>
<path class="st1" d="M1161.7,835.3c-3.2-1.1-6.4-2.4-9.6-3.6c-1.3-0.5-2.5-1-3.8-1.4c-2-0.7-4.3-0.3-6.2,0.8c-1,0.6-2.8,2.7-0.8,3.4
	c0.3,0.1,0.5,0.2,0.8,0.3c0,2.3,0.4,4.3,2,6.1c1,1,2.9,1.1,4.8,0.6c1.8-0.5,3.5-1.6,3.7-2.7c0.7,0.3,1.4,0.6,2.2,0.8
	c2,0.7,4.3,0.3,6.2-0.8C1161.9,838.1,1163.7,836,1161.7,835.3z"/>
<path class="st1" d="M1160.9,912C1160.9,912,1160.9,912,1160.9,912C1160.9,912,1160.9,912,1160.9,912c0.5-0.3,1-0.6,1.3-1
	c1.4-1.4-1.2-1.7-2.1-1.6c-2.7,0.2-7.8,1.2-7.9,4.7C1152.2,915.7,1160.4,914.6,1160.9,912z"/>
<path class="st1" d="M1149.1,876c0.6,0.6,1.1,1.1,1.7,1.7c2,2,10.1-1.2,8.1-3.3c-0.6-0.6-1.1-1.1-1.7-1.7
	C1155.3,870.8,1147.1,874,1149.1,876z"/>
<path class="st1" d="M1200.9,846c1.1-1.7-0.9-2.9-2.4-2.9c-0.6,0-1.1,0-1.7,0c-2,0-4.6,0.6-5.7,2.5c-1.1,1.7,0.9,2.9,2.4,2.9
	c0.6,0,1.1,0,1.7,0C1197.2,848.5,1199.8,847.9,1200.9,846z"/>
<path class="st1" d="M1153.3,898.5c1.2-1.2,1.1-2.5-0.8-2.9c-1.9-0.3-4.7,0.2-6.2,1.6c-0.2,0.2-0.4,0.4-0.6,0.6
	c0-0.1,0.1-0.2,0.1-0.3c0.3-2.3-2.3-2.8-4-2.8c-1.4,0-2.7,0-4.1,0c-1.4,0-2.9,0-4.3,0c-1.9,0-4.5,1.4-4.8,3.5
	c-0.3,2.3,2.3,2.8,4,2.8c1.5,0,3,0,4.5,0c1.3,0,2.6,0,3.9,0c0.9,0,2-0.3,3-0.9c-0.2,0.8,0.2,1.5,1.5,1.7c1.9,0.3,4.7-0.2,6.2-1.6
	C1152.2,899.6,1152.7,899.1,1153.3,898.5z"/>
<path class="st1" d="M1196.3,798.7c-1.1,0-2.2,0-3.4,0c-2.1,0-4.4,0.5-6.1,1.6c-1.4,0.9-1.2,1.9,0.5,1.9c1.1,0,2.2,0,3.4,0
	c2.1,0,4.4-0.5,6.1-1.6C1198.2,799.7,1198,798.7,1196.3,798.7z"/>
<path class="st1" d="M1248.2,870.9c0.6,0.6,1.1,1.1,1.7,1.7c2,1.9,10.1-1.2,8.1-3.2c-0.6-0.6-1.1-1.1-1.7-1.7
	C1254.4,865.7,1246.2,868.9,1248.2,870.9z"/>
<path class="st1" d="M1151.7,969c1.3-0.7,3.5-2.4,2.2-4.1c-1.3-1.6-4.3-1.3-5.9-0.4c-1.7,0.9-3,2-4.2,3.2c-2,2-3.4,4.5-4.8,7.2
	c-0.9,1.9,0.8,3.1,2.5,3.2c1.3,0.1,2.9-0.2,4.1-1c0.7-0.4,1.2-0.9,1.6-1.6c0.7-1.4,1.4-2.7,2.2-4C1150,970.5,1151,969.4,1151.7,969z
	"/>
<path class="st1" d="M1138,994.2c3.7,0,7.4-0.8,10.2-3.4c1.3-1.2,1.1-2.5-0.7-2.8c-1.9-0.3-4.6,0.3-6.1,1.6c-1.9,0-4.4,0.7-5.7,2.3
	C1134.5,993.6,1136.8,994.2,1138,994.2z"/>
<path class="st1" d="M1192.8,937c0-1.1,0-2.2,0-3.4c0-2.1-8.7-0.7-8.7,2.3c0,1.1,0,2.2,0,3.4C1184.1,941.5,1192.8,940,1192.8,937z"
	/>
<path class="st1" d="M1181.9,996.7c2.1,0.1,4.7-0.6,5.7-2.6c0.9-1.8-0.8-3.4-2.5-3.5c-0.3-0.2-0.3-0.2-0.5-0.5
	c-0.9-1-1.5-2.2-2.1-3.4c-1-1.9-4.5-1.3-5.9-0.6c-1.8,0.8-3.1,2.4-2.1,4.4C1175.9,993.5,1178.2,996.5,1181.9,996.7z"/>
<path class="st1" d="M1108.5,946.1c0.6,2.1,3.4,2.7,5.2,2c6.6-2.3,12.2-6.2,17.2-11.1c0.2-0.2,0.3-0.4,0.5-0.5c0.2,0,0.3,0,0.5,0
	c2,0,4.1-0.6,5.9-1.5c0.1,0,0.2-0.1,0.3-0.1c0.3-0.2,1.2-0.7,1.1-1.2c-0.1-0.5-1.2-0.5-1.5-0.5c0,0,0,0,0,0c-1.7,0-3.3,0-5,0
	c-0.2,0-0.4,0-0.6,0c-1.1-1.9-4.7-2.7-6.9-0.6c-3.8,3.7-8,7.3-13,9.1C1110.2,942.3,1107.9,943.8,1108.5,946.1z"/>
<path class="st1" d="M1189.1,784.6c-1.3,0.2-4.9,1.1-4.9,3c0,1.7,0,3.4,0,5c0,1.9,2.2,2.1,3.8,1.9c1.3-0.2,4.9-1.1,4.9-3
	c0-1.7,0-3.4,0-5C1192.8,784.5,1190.6,784.4,1189.1,784.6z"/>
<path class="st1" d="M1159.1,802.3c-0.2-0.3-0.7-0.5-1.4-0.6c-0.2,0-0.3,0-0.5,0c0,0,0,0,0,0c-1-0.1-2.1,0.2-3.1,0.5
	c-0.3,0.1-0.6,0.2-0.8,0.3c0,0,0,0,0,0c-1,0.4-1.9,0.9-2.4,1.5c-0.3,0.3-0.4,0.6-0.3,0.9c0,0,0,0,0,0c0,0,0,0.1,0,0.1
	c0.2,3.3,3.4,5.6,6.6,5.8c1,0,2-0.1,3-0.3c0.8,0.3,1.6,0.7,2.3,1c0.8,0.3,1.5,0.6,2.3,0.9c1.9,0.6,4.4-0.1,6.1-1
	c0.9-0.5,2.9-2.1,0.9-2.8c-1.5-0.5-3-1.1-4.4-1.8C1164.5,805.6,1161.8,804.1,1159.1,802.3z"/>
<path class="st1" d="M1133.7,848.7c1.4,2.7,3.3,4.7,5.5,6.3c-0.4,0.2-0.8,0.4-1.1,0.6c-1.3,0.9-1.2,2.2,0.6,2.2
	c2.2,0.1,3.6,1.2,5.1,2.6c0.1,0.1,0.2,0.2,0.3,0.3c1.5,1.5,7.5-0.6,8.3-2.3c1.2-0.1,2.4-0.2,3.6-0.4c1.6-0.3,4.4-1,5-2.8
	c0.5-1.8-2.7-1.8-3.7-1.7c-4.2,0.7-8-0.3-11-2.7c-1.5-1.2-2.8-2.7-3.8-4.6C1140.9,843.5,1132.5,846.4,1133.7,848.7z"/>
<path class="st1" d="M1138.9,814.9c-0.9,0.4-2.9,1.9-1,2.5c5.6,1.8,11.2,3.2,16.8,5c0.3,0.1,0.6,0.1,0.8,0.1c0,0,0,0,0,0
	c-0.3,1.6,1.3,2.7,2.8,2.8c-0.3,0,0.3,0.1,0.5,0.2c0.3,0.2,1.1,1,0.4,0.3c1.6,1.5,4,1.4,5.9,0.5c1.2-0.6,3.7-2.8,2.1-4.3
	c-1.3-1.3-2.9-2.2-4.7-2.6c-0.1-0.2-0.3-0.5-0.8-0.6c-1.3-0.4-2.6-0.8-3.8-1.2c-4.3-1.3-8.7-2.5-13-3.9
	C1143.1,813.2,1140.5,814,1138.9,814.9z"/>
<path class="st1" d="M1115.6,857.7c5.5,5.3,11.8,8.5,18.6,10.7c-0.3,0.4-0.5,0.8-0.6,1.3c-0.3,2.2,2.4,2.6,3.9,2.6
	c1.2,0,2.4,0,3.5,0c1.1,0,2.1,0,3.2,0c1.8,0,4.5-1.4,4.8-3.4c0.1-0.6-0.1-1-0.3-1.4c0.4-1.2-0.1-2.4-2.5-2.9
	c-1.2-0.2-2.3-0.4-3.4-0.7c-7.2-1.7-13.9-4.7-19.3-9.9C1120.9,851.5,1112.7,855,1115.6,857.7z"/>
<path class="st1" d="M1128,966.8c3.5-1.2,7-2.7,10.2-4.6c1.5,0,3,0,4.5,0c0.1,0,0.2,0,0.3,0c1.9,0,4.5-0.7,5.8-2.2
	c1.3-1.6-1.2-2-2.2-2c-0.8,0-1.6,0-2.5,0c0.2-0.2,0.5-0.4,0.8-0.6c1.3-1.2,1.1-2.6-0.8-2.9c-0.8-0.2-1.8-0.1-2.8,0.1
	c-1.3,0.3-2.5,0.8-3.3,1.6c-0.7,0.7-1.5,1.3-2.4,1.9c-1.9,0-3.9,0-5.8,0c-1.9,0-4.5,0.7-5.8,2.2c-1.3,1.6,1.2,2,2.2,2
	c0.6,0,1.2,0,1.8,0c-1.1,0.5-2.2,0.9-3.3,1.3c-1,0.3-3.7,2-2.4,3.4C1123.7,968.1,1126.4,967.3,1128,966.8z"/>
<path class="st1" d="M1252.4,897.5c-1.1,0-2.2,0-3.4,0c-1.9,0-4.5,0.7-5.8,2.2c-1.4,1.5,1.2,1.9,2.2,1.9c1.1,0,2.2,0,3.4,0
	c1.9,0,4.5-0.7,5.8-2.2C1256,897.9,1253.4,897.5,1252.4,897.5z"/>
<path class="st1" d="M1263.2,849.7c-1.7-0.5-3.4-0.2-4.8,0.7c-0.4,0.2-0.7,0.5-1,0.7c-0.4,0-0.9,0-1.3,0.1c-1.1,0-2.5,0.5-3.5,1.3
	c-0.3,0-0.6,0-0.8,0c-2.1,0-4.4,0.6-6.1,1.6c-1.4,0.8-1.2,1.8,0.5,1.8c1.1,0,2.2,0,3.4,0c0.7,0,1.3-0.1,2-0.2
	c0.6,1.2,2.5,1.5,3.8,1.5c1.4,0,2.7-0.2,3.9-0.6c1.9-0.6,3.6-1.5,5.2-2.9C1265.8,852.3,1265,850.3,1263.2,849.7z"/>
<path class="st1" d="M1259.8,893.1c1.1-1.9-0.9-3-2.5-3.1c0.4,0,0.1-0.1-0.2-0.4c-0.2-0.2-0.3-0.5-0.3-0.7c0-0.2-0.1-0.4-0.1-0.6
	c0-0.2-0.1-0.4-0.2-0.6c0.2,0,0.3-0.1,0.5-0.1c1.1-0.4,2.1-0.9,2.7-1.6c1.4-1.5-1.2-1.9-2.2-1.9c0,0,0,0,0,0c-2.2,0-4.5,0-6.7,0
	c-1.9,0-4.5,0.7-5.8,2.2c-1.4,1.5,1.2,1.9,2.2,1.9c0.7,0,1.3,0,2,0c-0.7,0.6-1.2,1.5-1.1,2.5c0.3,3.1,3.3,4.8,6.1,5
	c0.5,0,1,0,1.5-0.1C1257.2,895.4,1259,894.5,1259.8,893.1z"/>
<path class="st1" d="M1266.5,876.4c0.7-1.4-0.2-2.7-1.5-3.2c0,0,0,0,0-0.1c-0.2-2.1-3.8-2-5.1-1.6c-0.4,0.1-0.8,0.2-1.1,0.4
	c-1.4,0.7-2.6,1.8-2.5,3.5c0.1,1.2,0.9,2.1,1.9,2.7c0.8,0.5,1.7,0.8,2.6,0.8C1262.9,879.1,1265.5,878.5,1266.5,876.4z"/>
<path class="st1" d="M1249.5,842.2c1.4-1.4-1.2-1.7-2.1-1.6c-1.9,0.1-4.4,0.7-5.8,2.1c-0.6,0.6-1.1,1.1-1.7,1.7
	c-1.4,1.4,1.2,1.7,2.1,1.6c1.9-0.1,4.4-0.7,5.8-2.1C1248.4,843.3,1249,842.8,1249.5,842.2z"/>
<path class="st1" d="M1238.8,838.2c-2,0-4.6,0.6-5.7,2.4c-1.1,1.7,0.9,2.7,2.4,2.7c0.6,0,1.1,0,1.7,0c2,0,4.6-0.6,5.7-2.4
	c1.1-1.7-0.9-2.7-2.4-2.7C1240,838.2,1239.4,838.2,1238.8,838.2z"/>
<path class="st1" d="M1241.7,859.1c-1.7,0-3.4,0-5,0c-0.3,0-0.6,0-0.9,0.1c-1.7-0.4-5.8,0.3-7.3,1.9c-1.4,0.3-2.7,0.9-3.5,1.8
	c-1.4,1.5,1.2,1.7,2.1,1.7c2.1,0,5.5-0.4,7.6-1.8c0.5,0,1,0,1.5,0c2.1,0,4.4-0.5,6.1-1.6C1243.5,860.2,1243.4,859.1,1241.7,859.1z"
	/>
<path class="st1" d="M1227.1,935.5c1.1,0,2.2,0,3.4,0c1.9,0,4.5-0.7,5.7-2.3c1.2-1.7-1-2.4-2.3-2.4c-1.1,0-2.2,0-3.4,0
	c-1.9,0-4.5,0.7-5.7,2.3C1223.5,934.8,1225.8,935.5,1227.1,935.5z"/>
<path class="st1" d="M1129,953.2c-1.1,1.7,0.9,2.7,2.4,2.7c3.5-0.1,6.7-0.8,9.9-1.8c1.8-0.6,3.6-1.3,5.3-2.2
	c1.1-0.5,3.7-2.1,2.3-3.6c-1.3-1.4-4.3-0.9-5.8-0.2c-0.9,0.5-1.8,0.9-2.7,1.3c-1.8,0.8-3.6,1.4-5.6,1.4
	C1132.7,950.8,1130.2,951.4,1129,953.2z"/>
<path class="st1" d="M1240.9,871.1c-2.2,0-4.5,0-6.7,0c-1.9,0-4.5,1.5-4.8,3.6c-0.3,2.3,2.3,2.9,4,2.9c2.2,0,4.5,0,6.7,0
	c1.9,0,4.5-1.5,4.8-3.6C1245.2,871.8,1242.6,871.1,1240.9,871.1z"/>
<path class="st1" d="M1230.3,856.2c2.2,0,4.5,0,6.7,0c1.9,0,4.5-0.8,5.8-2.2c1.4-1.5-1.2-1.8-2.1-1.8c-2.2,0-4.5,0-6.7,0
	c-1.9,0-4.5,0.8-5.8,2.2C1226.8,855.9,1229.4,856.2,1230.3,856.2z"/>
<path class="st1" d="M1224.4,894.8c0,2.2,2.1,3.1,4,3c1.8-0.1,4.8-1.4,4.8-3.6c0-1.1,0-2.2,0-3.4c0-2.2-2.1-3.1-4-3
	c-1.8,0.1-4.8,1.4-4.8,3.6C1224.4,892.6,1224.4,893.7,1224.4,894.8z"/>
<path class="st1" d="M1237.1,895.6c-0.1,0.1-0.1,0.1-0.2,0.2c-1.6,0.3-3.6,1.2-4,2.7c-0.5,1.9,2.7,1.8,3.7,1.7
	c2.7-0.2,5.5-1.5,7.4-3.3c1.3-1.2,1.1-2.6-0.8-2.9C1241.3,893.6,1238.5,894.2,1237.1,895.6z"/>
<path class="st1" d="M1220.3,828c-2-0.2-4.6,0.7-5.7,2.5c-1.1,1.8,0.9,2.8,2.4,2.9c-0.5,0,0.4,0.4,0.6,0.5c0.8,0.6,1.4,1.3,2.1,2
	c1.5,1.5,4.1,1,5.8,0.3c1.1-0.5,3.7-2.3,2.2-3.8C1225.6,830.1,1223.5,828.3,1220.3,828z"/>
<path class="st1" d="M1173.5,929.5c-1.1,0-2.2,0-3.4,0c-1.9,0-4.5,0.8-5.8,2.1c-1.4,1.5,1.2,1.7,2.1,1.7c1.1,0,2.2,0,3.4,0
	c1.9,0,4.5-0.8,5.8-2.1C1177.1,929.8,1174.4,929.5,1173.5,929.5z"/>
<path class="st1" d="M1143.7,914.5c1.4-1.5-1.2-1.7-2.1-1.7c-0.6,0-1.1,0-1.7,0c-0.4,0-0.8,0.1-1.3,0.1c0.6-0.9,0.3-1.8-1.2-2
	c-0.3,0-0.6,0-0.8,0c-1.8,0-4.1,0.5-5.3,1.7c-3.3,3.1-7.5,4.3-11.6,5.7c-0.8,0.3-3.8,1.9-2.4,3.1c1.4,1.3,4.2,0.4,5.7-0.1
	c3.9-1.3,7.9-2.7,11.5-4.9c0.6,0.2,1.4,0.3,1.9,0.3c0.1,0,0.2,0,0.3,0c0.5,0,0.9,0,1.4,0C1139.8,916.6,1142.4,915.8,1143.7,914.5z"
	/>
<path class="st1" d="M1190.8,944.4c0,0.6,0,1.1,0,1.7c0,1.9,8.7,0.5,8.7-2.3c0-0.6,0-1.1,0-1.7
	C1199.5,940.2,1190.8,941.6,1190.8,944.4z"/>
<path class="st1" d="M1128.7,927.6c0,0.6,0,1.1,0,1.7c0,1.3,6.6,0.5,8.3-1.4c0.2-0.3,0.4-0.6,0.4-0.9c0-0.6,0-1.1,0-1.7
	c0-0.2-0.2-0.4-0.6-0.5C1134.9,924.2,1128.7,925.4,1128.7,927.6z"/>
<path class="st1" d="M1145.9,879.3c-2.1,0.1-4.2,0.5-6.2,0.9c-1.8,0.4-3.7,0.7-5.6,0.8c-0.4,0-0.7,0.1-1.1,0.1
	c-2.1-0.8-4.2-2-6.1-3.4c-1.7-1.2-4-0.8-5.8-0.1c-0.8,0.3-4,2.3-2.3,3.5c6.2,4.5,12.9,6.5,19.8,5.3c2-0.4,4-0.9,6.1-1.9
	c1-0.5,3.7-2,2.3-3.5c-0.1-0.1-0.2-0.2-0.3-0.2C1147.6,880.1,1147.4,879.3,1145.9,879.3z"/>
<path class="st1" d="M1170.4,948.5c-1.7,0.1-4.8,1.3-4.8,3.5c0,0.6,0,1.1,0,1.7c0,2.2,2.1,2.9,4,2.8c1.7-0.1,4.8-1.3,4.8-3.5
	c0-0.6,0-1.1,0-1.7C1174.4,949.1,1172.3,948.3,1170.4,948.5z"/>
<path class="st1" d="M1213.4,915.2c-0.6,0.6-1.1,1.1-1.7,1.7c-1.4,1.4-0.8,3.3,1.1,3.9c2.1,0.7,4.6-0.1,6.1-1.6
	c0.6-0.6,1.1-1.1,1.7-1.7c1.4-1.4,0.8-3.3-1-3.9C1217.5,912.9,1215,913.7,1213.4,915.2z"/>
<path class="st1" d="M1222.8,901.4c1.1-1.7-1-2.6-2.4-2.6c-1.1,0-2.2,0-3.4,0c-2,0-4.6,0.6-5.7,2.4c-1.1,1.7,1,2.6,2.4,2.6
	c1.1,0,2.2,0,3.4,0C1219,903.8,1221.6,903.1,1222.8,901.4z"/>
<path class="st1" d="M1195.9,826.8c0,1.7,0,3.4,0,5c0,1.9,8.7,0.5,8.7-2.3c0-1.7,0-3.4,0-5C1204.6,822.6,1195.9,824,1195.9,826.8z"
	/>
<path class="st1" d="M1194,906.9c-1.5,0.1-4.9,1.2-4.9,3.2c0,1.3,0.1,2.6-0.9,3.6c-1.3,1.4-0.9,3.1,1,3.6c2,0.6,4.7-0.1,6.1-1.6
	c1.8-1.9,2.5-3.9,2.5-6.5C1197.9,907.1,1195.7,906.7,1194,906.9z"/>
<path class="st1" d="M1216.5,810.5c-0.6,0-1.1,0-1.7,0c-0.1,0-0.2,0-0.4,0c-0.7-1.2-2.5-1.5-3.8-1.5c-1.1,0-2.2,0-3.4,0
	c-1.9,0-4.5,1.4-4.8,3.5c-0.3,2.3,2.3,2.9,4,2.9c1.1,0,2.2,0,3.4,0c1.3,0,3-0.7,4-1.9c1.1-0.3,2.1-0.7,3.1-1.3
	C1218.4,811.5,1218.2,810.5,1216.5,810.5z"/>
</svg>
