<?xml version="1.0" encoding="utf-8"?>
<!-- Generator: Adobe Illustrator 26.5.0, SVG Export Plug-In . SVG Version: 6.00 Build 0)  -->
<svg version="1.1" id="Layer_1" xmlns="http://www.w3.org/2000/svg" xmlns:xlink="http://www.w3.org/1999/xlink" x="0px" y="0px"
	 viewBox="0 0 1785.8 1785.8" style="enable-background:new 0 0 1785.8 1785.8;" xml:space="preserve">
<style type="text/css">
	.st0{fill:#FFFD81;}
	.st1{fill:#9ECFCA;}
</style>
<path id="color_x5F_2" class="st0" d="M869.9,948.5c-0.9-0.1-1.9-0.1-3-0.2c0.8-0.2,1.6-0.3,2.4-0.5
	C869.4,948,869.6,948.3,869.9,948.5z M1091.2,896.7c-10.7-17.6-20-35.9-27.5-55c-8.3-21.1-15.9-43.8-29.9-61.9
	c-12.3-16-27.1-31.2-41.8-45c-15.1-14.2-30.8-25.5-50.7-31.9c-3.2-1-7.3-2.5-11.9-4c-16.6-3.4-30.7-4.1-42.1-2.9c0,0,0,0,0,0
	c-1.1,0.7-4.4,1.1-6.3,0.9c-28,9.1-43.9,46.8-55.1,71c-18.3,39.9-35.4,80.4-57.8,118.3c0,0.1,0.1,0.1,0.1,0.2
	c4.4,18.5,22.7,32.3,38.3,41.4c16.4,9.6,44.3,24.2,64.1,16.9c4.7-7.1,9.3-14.3,13.7-21.6c0.1-0.3,0.1-0.6,0.2-1
	c0.1-0.5,0.5-0.9,1.1-1.3c24.9-41.8,44.2-86.4,58.8-133c1.1-3.6,10-4.7,8.8-0.7c-15.1,48-34.8,93.9-60.6,136.8
	c-1.6,18.3,31.5,26.3,43.7,33.3c22.1,12.6,33,39.2,33.6,63.6c66.8,11.7,138.2,6.6,198.2-26.6c-12.9-15.8-25.3-31.7-37.6-47.8
	C1117.6,929.6,1102.2,915,1091.2,896.7z M785.6,734.7c-9.2,12.6-10.4,27.5-16.1,42c-5.7,14.4-12.8,28-20.4,41.4
	c-6.3,11.2-25.8,23.5-16.2,37.1c8,11.3,19.5,17.8,32.3,22.2c21.1-37.8,36.8-78.1,55.9-116.8C806.8,756.3,795.2,746.6,785.6,734.7z"
	/>
<path id="color_x5F_1" class="st1" d="M652.9,617.8c2.2,3.1,5,5.9,6.3,9.6c1.1,3.1-7.5,5.6-8.7,2.3c-1.2-3.2-3.8-5.7-5.7-8.4
	C642.7,618.2,651.1,615.2,652.9,617.8z M655.7,592.5c-6.9,0.1-14.4,2.6-18.8,8.2c-1.2,1.6,1.1,1.9,2.2,1.9c1.8-0.1,4.6-0.7,5.8-2.2
	c2-2.5,4.1-3.7,7.2-3.8c1.9,0,4.5-0.7,5.8-2.2C659.2,592.9,656.7,592.5,655.7,592.5z M1299.2,1335.4c1.2,3.8,6.7,6.6,0.3,10.4
	c-9,5.5-26.3,4.8-36.5,5.5c-32.6,2.5-65.2,1.7-97.9,1.6c-1.5,0-2.2-0.3-2.4-0.8c-0.1-0.1-0.2-0.3-0.2-0.5c-5-21.2,1.9-48.4-9.9-67.5
	c-9.7-15.8-24.6-9.1-40.2-11c-53-6.3-105.9-12.2-159.3-12.4c-2.3,0-2.7-0.7-2.2-1.5c-5.6,2.5-11.1,5.1-16.7,7.7
	c-4.7,2.1-9.5,4.3-14.2,6.4c-1.4,0.6-2.8,1.3-4.2,1.9c-2.1,1-1.4,0.9-0.6,0c-2.2,2.2-7.1,2.6-7.7-0.5c0,0,0,0,0,0
	c-0.2-1.3,0.4-2.6,1.4-3.3c17.5-11.7,40.5-18.5,59.6-27.4c37.9-17.6,75.7-35.5,112.6-55.3c33-17.7,72.3-36.5,90.6-71.1
	c16.9-31.9,23.3-83.4,2.4-116.3c-0.1-0.1-0.2-0.1-0.3-0.2c-0.6-0.7-1.1-1.4-1.7-2.1c-30.2,16.8-63.3,26.7-97.4,31.1
	c-1.9,0.2-3.9,0.5-5.8,0.7c-32.4,3.6-65.5,2.2-97.6-3.1c-43.2,46.1-94.4,83.9-138.8,128.7c-13.9,14-27.4,28.7-39.5,44.4
	c1.2,2.2-1.1,4.1-3.6,4.7c-6.7,9-13,18.3-18.5,28.1c-9.9,17.5-21.9,38.6-21.8,59.5c0.1,32.2,29.1,50.2,56.4,59.8
	c41.9,14.8,87.9,18.4,132.1,19.6c46.9,1.3,93.9-0.6,140.5-5.2c28.7-2.8,59.8-4.6,87.4-13.6c3.2-1,8.8-0.3,2.9,1.7
	c-27.6,9-58.2,11.4-86.9,14.4c-46.8,4.8-94,7.2-141,6.3c-43.4-0.9-88.2-3.6-130-15.9c-26-7.7-60.3-21.1-68.2-50.4
	c-4.5-16.5,0.3-32.8,6.9-48.1c9.1-21,21.1-40.4,34.9-58.6c-23.4-38.5-51.6-85.7-48.3-132.4c-4.2,1.9-8.4,3.8-12.6,5.5
	c-32.8,13.8-67.2,23.6-102.1,30.3c-18.5,3.6-37.2,6.5-55.9,8.8c-18,2.2-36.3,1.1-54,5.7c-0.1,0.3-0.3,0.6-0.6,1
	c-11.8,15.2-42.9,27.5-67.9,25.5c-4.1,11.3-10,21.8-15.4,32.5c-0.3,0.7-1.1,1.2-2.1,1.6c46.7-0.1,93.4-0.2,140.2-0.2
	c1.7,0,2.7,0.5,3.3,1.2c2.3-0.5,4.7-0.1,4.7,1.9c-0.1,14.5-0.7,29-0.8,43.5c0,0.7-0.6,1.4-1.4,2c0.1,1.8-1.7,3.8-4.5,3.8
	c-8.6,0-17.2,0-25.8,0c-0.3,4.3-2.6,9.8-3.1,12.1c-3.6,14.3-7.6,28.5-11.5,42.7c-4.1,14.9-8.4,29.8-12.5,44.7
	c-1.7,6.3-4.9,13.4-5.3,19.9c-0.1,2.4-3.3,3.7-5.8,3.5c-0.5,0.1-0.9,0.2-1.3,0.2c-58.7,0-117.4,0-176.1,0c-2.9,1.5-7.7,0.7-6.4-3
	c1.1-3-5.5-19.6-7-24.7c-4.3-14.3-8.6-28.5-13-42.8c-4.1-13.3-8.2-26.6-11.9-40c-0.9-3.2-3.7-9.2-1.9-12.7c-6.8,0-13.5,0-20.3,0
	c-1.9,0-3-0.7-3.5-1.6c-0.3-0.1-0.5-0.2-0.5-0.4c0-16,0-32,0-48c0-2.5,8.7-3.8,8.7-2.3c0,0.1,0,0.3,0,0.4c37.7,0,75.4-0.1,113.1-0.2
	c-13.6-20.3-24.4-41.4-32.6-63.2c-43.2,8.9-82.5-15.9-101.8-55.1c-0.6-1.2,4.7-2.5,5.2-2.6c29-5.7,63.6-2.9,83.9,15.9
	c-12.9-55.3-12-113.5-3.2-171.1c-0.1-0.1-0.2-0.2-0.1-0.3c0.2-0.5,0.3-0.9,0.4-1.4c0.1-0.8,0.2-1.5,0.4-2.3
	c-0.6,0.1-1.1,0.2-1.5,0.1c-49.8-7.7-57.4-60.1-46.2-101.7c0.5-1.8,6.9-3.1,8.4-2.2c23,13.4,41.1,34.6,48,58.9
	c5.6-24.5,12.3-48.7,19.8-72.4c-26.3-39.7,5.4-80.7,41.3-102c0.9-0.5,7.1-2.9,7.6-1.2c11.5,41.8-0.9,88.6-41.1,109.1
	c-0.3,0.2-1,0.3-1.8,0.5c-9.1,29.6-17,60.1-22.8,90.9c-0.3,6.6-1.4,13.3-3.4,20c-4.3,27.4-6.8,55-6.8,82.3
	c10.4-25.5,40.3-43,68.5-50.8c0.4-0.1,4.6-1.1,4.7,0c0.3,45.4-25.7,86-70.9,96.2c5.6,53.5,22.1,105.3,54.3,152.4
	c8.6,0,17.2,0,25.8,0c0-0.1,0-0.3,0.1-0.4c5.7-11.2,11.9-22.1,16-34c0.1-0.3,0.3-0.5,0.5-0.8c-9.2-2-17.2-6.4-22.2-13.9
	c-0.8-1.2-0.6-2.4,0.2-3.4c-10.2-4.2-18.4-12.1-22.6-23.4c-0.2-0.6,0.5-1.2,1.6-1.8c-5.6-4-9.4-9.2-10.1-16c-7.6-4.7-12-11.3-9.7-21
	c0.6-2.5,3.4-4.1,5.9-3.6c25.6,4.8,51.4,5.7,77.4,5.9c-8.8-13.6-31.7-46.7-10.2-48.1c3.7-0.2,7.4,0.1,11.1,0.9
	c-0.1-0.1-0.1-0.2-0.1-0.3c-0.6-11.6-0.5-23.2,0-34.7c-0.5-0.1-0.4-0.4,0-0.7c0.7-16.2,2.1-32.3,3.6-48.4
	c-43.9,0.8-76.9-33.2-87.4-74.4c-0.5-1.8,6.2-2.8,7.2-2.8c33.7,0.5,71.8,13.7,83.2,44c1.2-14.8,2-29.6,2-44.4
	c-38.4-25-27.9-74.2-4.6-108.1c1.1-1.6,7.2-3.7,8.6-2c27.7,32.7,36.3,79.8,9,115.2c-0.7,0.9-2.6,1.4-4.4,1.7
	c-0.5,22.5-2.7,45-4.8,67.6c0.6,0.1,0.5,0.4-0.1,0.7c-0.2,2.3-0.4,4.7-0.7,7.1c16.3-23.2,50.6-34.2,80.3-35.7c0.1,0,1.6,0,1.5,0.5
	c-9.2,42.6-41.4,76.4-84.8,79.7c-0.4,10.9-0.4,21.7,0.1,32.6c0.1,1.9-3,3.2-5.5,3.5c9.5,2.7,18.6,8.3,25.4,14.5
	c12.4,11.5,23.8,28.2,40.6,32c0.4-0.3,0.8-0.5,1.4-0.7c49-17.1,88.6-52.8,136.9-71.6c21.1-8.2,52.6-5.1,67.2-25.3
	c6.7-9.2,11.8-19.6,19.1-28.5c8-9.8,16.4-19,22.5-30.2c0.2-0.3,0.4-0.6,0.7-0.8c-6.7-6.8-11.8-14.6-13.9-23.6
	c-0.1-0.2,0-0.5,0.2-0.7c-0.3-0.4-0.3-0.8,0.1-1.5c0.5-0.9,1-1.7,1.5-2.6c-7.1-2.3-14.8-5.5-21.6-9.8c-9.7,18.8-17.6,43.1-33.8,55.9
	c-17.3,13.7-40.1,15.6-58.1,27.8c-29.4,20-57.1,46.1-90.9,57.8c-0.2,1.5-2.1,3.3-4.5,3.6c-3.3,0.4-6.5,0.5-9.8,0.4
	c-3.5,0.7-7,1.3-10.6,1.6c-4.5,0.5-0.8-1.8,2-2.8c-3.5-0.9-6.9-2.2-10.1-4.2c-8.1-5-15.4-12.4-25-14.5c-3-0.6-15.2-5.4-14.2,1.2
	c0.5,3.4,1.7,6.6,3.3,9.7c4.4,8.2,10.4,15.5,16.9,22.2c1.8,1.9-1.8,4.1-5,4.3c-1.4,0.9-3.4,1.5-4.9,1.5c-2,0-4,0-6,0
	c-1,0-3.5-0.3-2.2-1.8c1.3-1.4,3.9-2.2,5.8-2.2c0.8,0,1.7,0,2.5,0c-8.5-9.2-31.1-36.2-11.8-41.7c9.6-2.7,22.4,0.8,30.8,5.7
	c13.6,7.9,22.2,17.3,39.3,15.4c0.4,0,0.8-0.1,1.1-0.1c35.8-11.9,60.8-44.3,94.6-60.9c19.5-9.6,43.9-12.3,56.9-31.5
	c11-16.3,18.4-34.5,28.2-51.4c-3.8-3.1-7-6.8-9.3-10.9c-7-12.8-4.6-13,2.3-24c12.4-19.7,26-37.3,33.9-59.6
	c5.9-16.6,7.8-33.3,19.8-47c-5.1-7.1-9.7-14.8-13.9-22.4c-20.4-7.2-38.6-6-59.1,0.5c-9.8,3.1-20.7,6.9-31.1,4.4
	c-20.4-4.8-27.8-26.1-35.2-43.4c0-0.1,0-0.1-0.1-0.2c-1.4,0.5-3,0.8-4.4,0.8c-7.2-0.1-17.7-1.5-16.4-11c1-7,6.1-13.4,10.2-19
	c-9.9-14.9-15-32.4-22.4-48.5c-0.9-1.9,7.6-4.8,8.7-2.3c7.2,15.7,12.1,33,21.7,47.5c0.9,0.1,1.7,0.3,1.3,0.9
	c-0.1,0.2-0.2,0.3-0.4,0.5c0.4,0.6,0.7,1.2,1.1,1.7c1.1,1.5-2.3,3.2-5,3.6c-2.6,3.7-5,7.7-6.2,11.9c-2.4,9,5.4,11.1,12.9,11.2
	c0,0,0,0,0.1,0c2.2-1.5,6.4-1.9,7.5,0.6c10.3,24,20.2,47.1,50.9,37.4c21.4-6.7,40.4-9.9,61.3-5c-2.8-5.3-5.5-10.6-8-15.4
	c-20.5-39.4-42.1-82.3-47.8-126.8c-50.7,16.7-100.5,35.2-153.1,45.7c-11.7,5.7-38.9,14.4-48.6,4.7c-13.7-13.7,17.9-23.9,26.1-26.1
	c11.9-3.1,23.8-5.7,35.7-9c8.2-2.3,23.4-3.7,25.7-13.6c2.1-9,0-18.9-1.3-27.9c-4.6-30.2-5.7-57.1,21.7-75.9
	c27.1-18.6,62.8-30.5,94.4-38.6c29.2-7.5,61.7-9.2,86.4,11.1c12.5,10.3,21.6,22.9,28.4,37.5c3,6.4,7.2,18.2,15.3,19.7
	c1.4,0.3,2.9,0.3,4.6,0.3c3.3-1,6.7-2,10-3c1.7-0.5,9.4-3.9,6.1-1.6c1.2-0.9,3.1-1.1,4.7-0.8c5.8-2.3,11.3-5,15.1-7.1
	c3-1.7,47.8-24.8,42.4-4.6c-5.8,21.5-41.8,32.9-61.8,40.1c23.9,38.2,52.4,73.2,83.5,105.8c27.2,28.5,59.3,54.1,83.1,85.6
	c9.5,12.6,53,88.7,30.1,101c0.3,0.7,0.7,1.4,1.1,2.1c10.6,22.3,17.8,46.2,29.3,68c12.4,23.5,27.1,42.7,44,63
	c10.8,13,19.8,27.1,30.6,40c5.2,6.2,10.3,12.4,15.5,18.5c0.9,0.1,1.7,0.5,2.2,1.2c23.9,29.8,22.1,83.2,7.5,116.3
	c-16.7,37.7-49,57.8-83.5,77.1c-39.5,22-80.3,41.7-121.2,60.8c-7.7,3.6-15.5,7.1-23.2,10.6c29.4,0.1,58.7,1.8,87.9,4.5
	c27,2.5,55.5,9.2,82.6,8.3c11.2-0.4,22.1-1.9,29.6,6.9c0,0,0,0,0,0c20.6-14.2,37-10.4,51.7,9.5c9.8,13.4,19.3,25.6,35.6,31.5
	c17.3,6.4,35.6,8.9,52.3,16.9C1298.1,1334.1,1299,1334.5,1299.2,1335.4z M468.1,981.6c0.1,0.8-1.2,1.5-2.9,2.1c0,0,0,0,0,0
	c30.5-0.7,53.1-20.7,66.1-47.3c3.3-6.9,6.3-13.9,8.4-21.3c0.5-1.7,1-3.4,1.4-5.1C501.1,913.7,460.6,935.6,468.1,981.6z M462.5,819.7
	c-0.4-3,8.3-4.9,8.7-2.3c1.8,13.5,2.5,26.9,2.5,40.3c0.5,0.3,1,0.6,1.4,0.9c18.9-32.1,11.5-71.4-10.7-101c-18,30-25.3,69.1,0.5,93.2
	C464.6,840.5,463.9,830.1,462.5,819.7z M382.2,864.2c10.2,35.7,37.8,66.5,75.1,70C462.6,889,421.7,867.3,382.2,864.2z M366.7,772.8
	c1.9-5.8,3.9-11.7,5.9-17.4c0.7-2.1,9-2.9,8.5-1.6c-3.2,9.3-6.3,18.7-9.4,28.3c0.6,0.9,1.2,1.7,1.8,2.6c30.6-21.6,39.3-61.9,30.4-98
	C374.7,706.6,352.1,739.7,366.7,772.8z M335.2,897.5c0.8-4.7,1.6-9.5,2.5-14.2c1.1-31.4-17.3-60.3-43.9-78.4
	C285.8,842.6,293.5,887.7,335.2,897.5z M345.4,1023.6c0.4,1.1-4.8,3.1-7.4,2.9c0,0.1,0,0.3,0,0.4c0.3-0.1,0.6-0.2,0.9-0.2
	c40.6-8.6,61.3-51.1,61.6-89.9C362.4,949,328.5,981.1,345.4,1023.6z M348.9,1116.1c0,0,0-0.1,0-0.1c-1.8,0.3-3.4,0.3-3.4-0.3
	c-3.8-45.7-48.5-58.9-88-53.3C274.7,1096.1,310.2,1123.4,348.9,1116.1z M531.5,1233.7c-79.3,0-158.7,0-238,0c0,1-0.8,2-2.1,2.7
	c0.1,0,0.2,0,0.2,0c3-2.5,1.9,0.6,2.9,4.5c1.4,5,2.8,10,4.3,15c4.2,14,8.5,28.1,12.7,42.1c4,13.2,8.1,26.4,11.9,39.7
	c1,3.6,3.8,9.7,3.9,14.4c57.4,0,114.9,0,172.3,0c0.8-6.1,3.5-12.5,5.1-18.2c3.6-13,7.3-26,10.9-39.1c3.9-14,7.8-28.1,11.5-42.2
	c1.2-4.8,2.5-9.6,3.6-14.5C531.2,1236.3,531,1234.4,531.5,1233.7z M533.6,1233.9c-0.1,0-0.3-0.1-0.4-0.2c-0.3,0-0.6,0-0.8,0
	c0.1,0.1,0.2,0.1,0.4,0.2C533,1233.9,533.3,1233.9,533.6,1233.9z M390.2,1188c-1.4,0.3-2.6,0.4-3.3,0c-39.2,0.1-78.4,0.2-117.6,0.2
	c0,13.1,0,26.1,0,39.2c98.2,0,196.4,0,294.5,0c0.1-13.2,0.6-26.4,0.7-39.6C506.4,1187.7,448.3,1187.9,390.2,1188z M1053.3,795
	C1053.3,795,1053.3,795,1053.3,795c0,0,0,0,0-0.1C1053.3,794.9,1053.3,795,1053.3,795z M799.5,523.4c16.4-5.2,32.8-10.7,49-16.8
	c0-1.1,4.8-3.2,7.4-2.8c5.3-2.1,10.6-4.2,15.9-6.5c11.3-4.8,35.6-13.5,39.3-27.4c4-14.8-18.4-2.9-23.9,0.3c-5.2,3-10.4,5.1-16.1,7.3
	c-1.8,0.7-3.8,1.6-5.9,2.4c0.1,0.7-0.3,1.5-1.6,2.4c-7.6,5.3-21.1,6.7-29.8,9.3c-22.7,6.7-45.4,13.6-68.3,19.8
	c-44.2,12.1-87.8,25.7-131.1,40.9c-5.2,1.8-6.5-3.5-1.4-5.3c41.9-14.7,84.2-28.1,127.1-39.8c22.8-6.2,45.5-13,68.1-19.7
	c0.8-0.2,1.6-0.5,2.5-0.7c-11.7-3.8-15-17-20.5-27.1c-8.1-14.8-19.2-28.8-34.4-36.9c-41.1-22-91.7,0.7-131.1,17.7
	c-17.1,7.3-39.1,18.5-45.4,37.6c-7.1,21.7,1.1,43.4,2.2,65.2c1.4,26.8-26.2,29.9-47.5,34.8c-10.1,2.3-40.2,4.9-43.1,17
	c-3.7,15.8,22.4,10.3,34.5,5.9c0.9-0.8,2.4-1.7,3.9-2c49-9.3,95.7-25.4,142.8-41.6C727.8,544.9,763.8,534.7,799.5,523.4z
	 M850.2,509.4c-12,4.5-24.1,8.6-36.2,12.6l37-11.3C850.8,510.2,850.5,509.8,850.2,509.4z M765.1,877.4
	c21.1-37.8,36.8-78.1,55.9-116.8c-14.2-4.2-25.7-13.9-35.4-25.9c-9.2,12.6-10.4,27.5-16.1,42c-5.7,14.4-12.8,28-20.4,41.4
	c-6.3,11.2-25.8,23.5-16.2,37.1C740.8,866.5,752.3,873,765.1,877.4z M743.9,1063.1c19-9.4,37-21.1,50.3-37.2
	c19.8-24,42.9-46.9,55.1-76c0.1-0.3,0.3-0.5,0.6-0.8c-12.3-1-24.6-5.1-35.4-10.1c-11.3-5.2-24.6-12.4-35.5-21.6
	c-6.2,10.2-14.3,18.7-21.5,28.3c-7.8,10.4-13.7,22-22,32c-13.8,16.9-41.4,16.7-60.4,22.1c-49.6,14-89.1,51.2-136.6,70.8
	c1.4,1.3-1,4.1-4.2,4.3c-32.7,2.5-42-28.3-67.1-41.6c-3.3-1.7-23.5-11.1-22.2-4.4c1,4.9,3.1,9.4,5.5,13.7
	c4.9,8.9,10.7,17.4,15.5,26.4c1.1,0,2.1,0,3.2,0c5.9,0,4.4,6.7-0.7,6.7c-29.4,0-58.7-0.3-87.7-5.1c0.2,3.3,1.6,6,3.8,8.3
	c2.7-1.3,7.1-1.4,6.6,0.9c-0.3,1.3-0.4,2.5-0.4,3.6c15.5,8.2,44.8,8.5,55.5,9.6c5.9,0.6,1.5,7-2.9,6.6c-10-1-33.2-1.6-50.6-7.2
	c7.4,13.9,33.1,18,46.7,19.6c4.9,0.6-2.7,4.9-5.3,4.6c-8.7-1-21.5-3.1-32.3-7.6c7.3,13.1,21.2,20.8,36.8,19.5
	c5.7-0.5-1.4,3.4-3.7,3.6c-3.9,0.3-7.7,0.2-11.3-0.3c18.4,18.5,65.7,5,79.5-12.8c1.5-1.9,4.9-2.1,6.8-1.1c29.4-8.2,61.9-6.2,92-11.3
	c36.9-6.3,73.8-14.9,108.6-29c8.4-3.4,17-7,25.5-10.9c0-0.2,0-0.5,0.1-0.7C736.5,1063.3,741.6,1061.9,743.9,1063.1z M845.3,971.9
	c40.9,8.7,80.8,22.6,115.6,45.9c-2.3-27.3-17-50.3-42.5-62c-9.6-4.4-26.5-10.5-32.4-21c-2.6,4.1-5.2,8.2-7.9,12.2
	c-1.5,2.2-6.4,2.8-8.1,1.5c-0.3-0.2-0.5-0.4-0.6-0.8c-0.8,0.2-1.6,0.4-2.4,0.5c-3.1,0.6-6.2,1-9.4,1.1
	C854.1,957.3,850,964.8,845.3,971.9z M965.3,1026.7c-0.4-0.1-0.9-0.2-1.3-0.2c-1.6,0.6-3.5,0.8-4.7-0.1c-0.5-0.4-1.1-0.7-1.6-1.1
	c-1.1-0.2-2.2-0.4-3.3-0.7c-2.5-0.5-3-1.9-2.5-3.3c-33.6-21.8-71.8-35-110.9-43.2c-3.5,4.8-7.2,9.5-11.2,14.1
	c-11.1,13-21.4,27.5-33.5,39.6c-14.7,14.6-32.7,25.4-51.4,34.5c-4.7,45.2,22,91.5,44.9,129.3c5.3-6.6,10.8-13,16.5-19.2
	c18.6-20.3,38.8-39,59.3-57.3c-0.3-0.2-0.6-0.4-0.8-0.7c-6.2-10-7.9-23.2-16-32c-2.7-2.9,5.6-6.3,8-3.6c7.8,8.5,9.6,20.8,15.2,30.6
	c31.7-28,64-55.4,92.8-86.4C965.1,1026.9,965.2,1026.8,965.3,1026.7z M1168.2,994.2c-12.9-15.8-25.3-31.7-37.6-47.8
	c-12.9-16.8-28.3-31.4-39.4-49.7c-10.7-17.6-20-35.9-27.5-55c-8.3-21.1-15.9-43.8-29.9-61.9c-12.3-16-27.1-31.2-41.8-45
	c-15.1-14.2-30.8-25.5-50.7-31.9c-3.2-1-7.3-2.5-11.9-4c-16.6-3.4-30.7-4.1-42.1-2.9c0,0,0,0,0,0c-1.1,0.7-4.4,1.1-6.3,0.9
	c-28,9.1-43.9,46.8-55.1,71c-18.3,39.9-35.4,80.4-57.8,118.3c0,0.1,0.1,0.1,0.1,0.2c4.4,18.5,22.7,32.3,38.3,41.4
	c16.4,9.6,44.3,24.2,64.1,16.9c4.7-7.1,9.3-14.3,13.7-21.6c0.1-0.3,0.1-0.6,0.2-1c0.1-0.5,0.5-0.9,1.1-1.3
	c24.9-41.8,44.2-86.4,58.8-133c1.1-3.6,10-4.7,8.8-0.7c-15.1,48-34.8,93.9-60.6,136.8c-1.6,18.3,31.5,26.3,43.7,33.3
	c22.1,12.6,33,39.2,33.6,63.6C1036.8,1032.6,1108.2,1027.5,1168.2,994.2z M1290.7,1338.1c-23.7-11.6-54-11.1-73.8-30
	c-14.7-13.9-26.8-49-52.5-31.2c-0.9,0.6-3.4,1.1-5.4,1c0.2,0.3,0.4,0.6,0.6,0.9c12.7,20.6,6.4,46.3,11.4,69.2
	c23.9,0.1,47.9,0.7,71.9-0.3c12.7-0.5,25.5-1.3,38.1-3C1289.3,1343.6,1292.8,1345.1,1290.7,1338.1z M691.3,671.3
	c-0.6,0.3-3.9,1.7-2.5,2.8c1.3,1.1,4.3,0.3,5.7-0.3c10.6-4.5,16.9-12.6,14.8-24.4c-0.4-2.2-9.1-0.2-8.7,2.3
	C702,659.9,699.4,667.8,691.3,671.3z M1422.5,987.4c0-0.1,0.1-0.3,0.1-0.4c-0.3-0.1-0.6-0.1-0.9-0.2c-4.2,5.3-8.2,10.6-11.8,16.1
	c-0.2,0.2-0.4,0.4-0.7,0.6c0,18,0,35.9,0,53.9c36.9-0.3,73.9-0.5,110.8-0.6c1.1,0,1.9,0.2,2.5,0.5c2.3-0.5,4.7-0.1,4.7,1.9
	c0,27-0.7,54-0.8,81c0,2.5-6.4,4.2-8.2,2.3c-4.4,0-8.8,0-13.2,0c0.6,8.8-3.4,22.5-4.2,28.5c-3,24.6-6.3,49.2-9.6,73.7
	c-3.4,25.5-7,51.1-10.7,76.6c-1.3,8.7-0.5,25.2-5.4,32.9c-1.7,2.6-5.8,3.8-8.1,1.4c0,0,0,0,0,0c-0.1-0.1-0.1-0.1-0.1-0.2
	c-46.8,0-93.5,0-140.3,0c-0.4,0-0.7,0-1.1,0c-0.2,0-0.4,0-0.6,0c-2.4,0-2.8-0.8-2.2-1.8c-4.7-6.2-4.1-24.5-5-30.8
	c-3.5-24.7-6.8-49.4-10-74.1c-3.2-24.8-6.4-49.6-9.3-74.4c-0.8-6.6-6-24.6-3.1-31.9c-5.1,0-10.2,0-15.3,0c-1.9,0-3-0.7-3.5-1.6
	c-0.3-0.1-0.5-0.2-0.5-0.4c0-26.3,0.1-52.5,0.1-78.8c0-0.3,0.2-0.6,0.4-0.9c0.5-1.4,2.1-2.7,4.3-2.7c38,0,76.1-0.3,114.1-0.6
	c-17.9-12.7-33.8-27.7-47.3-44.6c-45.9,23.4-88.9-9.9-110.9-51.3c-0.7-1.3,5.7-2.6,6.3-2.7c29.6-4.5,60.9,2.2,82.6,20.9
	c-8-14.9-14.3-30.7-18.6-47.2c-0.6,0.1-1.1,0.1-1.5-0.1c-45.7-20.5-39-73.1-17.5-110c0.9-1.5,6.9-3.5,8.4-2.2
	c31.6,28.2,45.1,72.8,20.6,109.7c-0.2,0.3-0.6,0.6-1.1,0.9c12.8,48.6,43.1,91.4,84.5,121.7c0-33.2,0-66.3,0-99.5
	c-0.9,0.3-1.6,0.4-2,0.4c-52.1-2.2-66.4-57.2-61.8-101.2c0.2-2.2,6.8-3.3,8.5-2.6c25.2,11.1,46.1,31.2,55.3,55.7
	c0-27.4,0-54.8,0-82.2c-36.7-29.2-20.6-77.4,6.8-108.8c1.1-1.3,7.3-3.9,8.6-2c23.9,36,26.7,83.7-4.7,115.8c-0.3,0.3-1.1,0.7-1.9,0.9
	c0,54.3,0,108.7,0,163c6.8-9,14.4-17.8,21.5-26.8c1.7-2.8,3.7-5.3,5.8-7.6c8.4-11.5,15.5-23.6,19-37.4c1.8-7,3.2-14.1,4.5-21.2
	c-1.1,0-1.6-0.3-0.2-1c0.1-0.1,0.3-0.2,0.4-0.2c0.2-0.9,0.3-1.8,0.5-2.8c-29.6-40.9,3.1-83.2,40.1-104.6c0.8-0.5,7.2-3,7.6-1.2
	c10.8,40.8-1.1,86-38.9,107c-1.9,11.1-4.3,22.2-8.4,32.8c-2.1,5.4-4.7,10.6-7.6,15.5c24.1-12.7,57.3-12.6,83.7-6
	c0.3,0.1,1,0.2,0.7,0.8c-25.2,35.6-70,59.2-113.1,48.2C1423.5,987.7,1422.5,987.6,1422.5,987.4z M1462.9,881.8
	c2.9-17.6,6.3-35,13.9-51.4c1.2-2.6,9.9-3.6,8.1,0.2c-9,19.3-11.3,40.3-14.7,61c29.9-21.5,38.6-61.2,30.2-96.9
	C1470.6,814.7,1447.4,848.2,1462.9,881.8z M1431.4,984.3c31.1,8.4,60.2-4,83-26.3c5-4.9,9.8-10,13.9-15.6c1.4-1.8,1.7-0.7-2-1.4
	c-27.4-5.5-59-4.8-78.3,12.2c-3.7,5.4-7.7,10.6-11.8,15.7C1434,973.4,1432.4,978.5,1431.4,984.3z M1344.9,856.3
	c-2.3,38.2,9.6,85.4,50.6,92.8C1402.8,909.7,1378.9,874.6,1344.9,856.3z M1313.9,922.1c15.5-32.5,4.4-69.2-20.9-94.6
	c-16.9,33.2-21.2,76.1,12.3,97.4c-3.4-15.3-5-31.1-4.8-47.2c0-2.7,8.7-4,8.7-2.3C1309,891.3,1310.6,907,1313.9,922.1z
	 M1339.2,1013.8c-14.3-38.1-53.7-55.9-92.6-52.7C1264.3,993.2,1300.9,1030.4,1339.2,1013.8z M1495.2,1142.5c-63.6,0-127.2,0-190.8,0
	c-0.1,0.4-0.3,0.7-0.6,1c-1.8,6.4,3.4,28.4,4.2,35.2c2.8,23.6,5.8,47.1,8.9,70.6c3,23,6.1,46.1,9.3,69.1c1.1,7.7,2.2,15.4,3.4,23
	c0.4,2.4,2.7,9.8,0.9,8.2c0.4,0.3,0.6,0.7,0.8,1c45.6,0,91.3,0,136.9,0c2.8-7.8,2.9-23.3,4-30.9c3.4-23.8,6.7-47.7,10-71.5
	c3.3-24.1,6.5-48.2,9.4-72.3c1.1-8.5,2.1-17.1,3-25.7C1494.7,1148.8,1494.9,1144.8,1495.2,1142.5z M1284.9,1064.4
	c0,23.9-0.1,47.8-0.1,71.7c71.4,0,142.9,0,214.3,0c1.1-0.3,2.3-0.4,3.3,0c5.1,0,10.3,0,15.4,0c0.1-24.3,0.6-48.6,0.7-72.9
	C1440.6,1063.2,1362.8,1064.3,1284.9,1064.4z M1409.2,766.1c0,18.2,0,36.4,0,54.6c0.3,0.2,0.5,0.4,0.8,0.6
	c22.4-29.7,19-70,0.2-101.7c-21.3,27.9-32.9,65.9-9.7,92.8c0-15.1,0-30.3,0-45.4C1400.5,763.8,1409.2,762.1,1409.2,766.1z"/>
</svg>
