<?xml version="1.0" encoding="utf-8"?>
<!-- Generator: Adobe Illustrator 26.5.0, SVG Export Plug-In . SVG Version: 6.00 Build 0)  -->
<svg version="1.1" id="Layer_1" xmlns="http://www.w3.org/2000/svg" xmlns:xlink="http://www.w3.org/1999/xlink" x="0px" y="0px"
	 viewBox="0 0 1785.8 1785.8" style="enable-background:new 0 0 1785.8 1785.8;" xml:space="preserve">
<style type="text/css">
	.st0{fill:#FFFD81;}
	.st1{fill:#9ECFCA;}
</style>
<path id="color_x5F_2" class="st0" d="M985.8,1143.7c-5.5-26.2-9.8-52.6-12.6-79.1L985.8,1143.7z M990.7,1269.9
	c0.8-5.1-0.7-8.6-6.2-9c-3.5-0.2-6.8,1.5-9.9,4.2c2.1-1.2,4.4-2.2,7-3.1C988.4,1259.8,990.5,1264.3,990.7,1269.9z M928.7,1332
	c0.6-3.8,1.3-7.7,1.7-9.7C927,1324.3,927.2,1328.1,928.7,1332z M1020.2,1322c-5,1.8-9.9,3.9-14.7,6.3c0,0,0.1,0,0.1,0.1L1020.2,1322
	z M873.6,1424.9c7.4-18.8,19.3-35.5,26.8-54.3c-6.2-5.3-7.9-13.2-2.1-20.7c5.6-7.2,14.3-11.3,23.2-12.3c-7-15.2,1.8-20.4,16-20.9
	c0-0.3,0.1-0.6,0.2-0.9c7.6-18.7,24.2-66,51.3-60.8c16,3.1,10,21,4.9,30.9c-4,7.7-8.6,15-13.6,22c-2.1,2.9-4.1,5.8-6.3,8.6
	c-2.7,3.7-1.2,3.2-2.9,1.5c1,0.9,0.8,1.9,0,2.8c11,2.5,21.1,5.4,27.4,7.4c0.2-0.2,0.5-0.3,0.9-0.5c8.8-4.5,17.9-7.9,27.3-10.7
	c-0.1-0.1-0.1-0.2-0.2-0.3c-28.3-81.8-53.9-167.4-62.3-254.2c-12.5,33.3-40.9,59.8-77.4,70.1c-49.7,14.1-95.7-5.7-115.8-50.3
	c14.2,55.6,16.2,114.1,16.6,171.2c0.4,57-2.1,114-2.1,171.1c0,0.6-0.4,1.2-1,1.7c30,0,60,0,90.1,0
	C873.8,1426.1,873.3,1425.7,873.6,1424.9z M906.1,1352c4.9-3.3,12.3-6.4,17.1-8.8C916.5,1343.5,909.6,1347.2,906.1,1352z
	 M884.3,1420c2-1.2,3.9-2.8,5.7-4.5L884.3,1420z M1108.5,1424.8c-18.1-0.7-36.1-1.6-54.2-2.6c-0.2,0-0.4,0-0.6-0.1
	c-0.9,0.3-1.8,0.6-2.5,0.5c-5.9-0.6-11.2-2.2-16.1-4.5c-0.8,0.9-2.3,1.7-3.8,2c-34.6,4.7-100,15.1-122-16c-3.1,3.6-7.1,7-9,9
	c-6,6-13.1,12.1-21.8,13.3c83.2,0,166.4,0,249.7,0L1108.5,1424.8z"/>
<path id="color_x5F_1" class="st1" d="M876.7,825.5c2.7,2.1,9.7,5.7,9.5,9.2c-0.3,8.3-6.9,13.1-13.7,16.6c-1.7,0.9-4.2,1.7-6.1,1
	c-1.9-0.7-0.1-2.4,0.9-2.9c4.3-2.2,14.9-9.9,8-15.2c-5.4-4.1-10.5-9.4-16.9-11.9c-3.2-1.2,4.7-4.7,7-3.8
	C869.6,820,873.2,822.7,876.7,825.5z M875.6,889.5c1.1,2.3,9.5-0.7,8.7-2.3c-0.6-1.4-1-2.8-0.5-4.2c0.1-0.2,0.3-0.5,0.4-0.8
	c1.9-0.1,4.3-0.8,5.7-2.1c1.4-1.4-1.3-1.6-2.1-1.6C882,878.6,872,882,875.6,889.5z M873.4,799.4c3.8,2,9.9-3.5,4.9-6.2
	c-3.5-1.9-4.9-6.6-6.1-10.1c-1.4-4.2-10.1-1.8-8.7,2.3C865.5,791.2,867.9,796.4,873.4,799.4z M796.4,843.2
	c-3.5-1.9-4.9-6.6-6.1-10.1c-1.4-4.2-10.1-1.8-8.7,2.3c1.9,5.8,4.3,11,9.9,13.9C795.2,851.4,801.3,845.9,796.4,843.2z M833.9,759.5
	c2-0.2,4.2-0.8,5.8-2c4.8-3.6,8.9-4.1,14.7-3.1c2,0.3,4.3-0.4,6.1-1.2c0.6-0.3,3.1-1.7,1.1-2c-10.6-1.8-21.1,0.6-29.7,7.2
	C830.3,759.5,833.3,759.6,833.9,759.5z M769.6,801.5c1.6,7.4-2.2,12.9-7.2,18c-3.6,3.7,4.9,3.8,7,1.6c6-6.2,10.7-13,8.8-22
	C777.6,796,768.9,798.2,769.6,801.5z M1514.1,1430.3c-18.9,0-37.9,0-56.8,0c-396.4,0-792.8,0-1189.2,0c-5.8,0,1-4,3.6-4
	c19.8,0,39.7,0,59.5,0c90.6,0,181.3,0,271.9,0c-42.5-9.8-72.5-52.1-65-95.9c1-5.9,2.3-11.6,3.8-17.2c-0.6-0.3-0.9-0.9-0.7-1.6
	c7.4-31,13.9-62.6,21.7-93.8c-25-2.3-50.7-13-65.6-34.2c-19.2-27.4-19.2-62.5-10.3-93.8c10-35,26.8-62.1,57.1-82.7
	c24.1-16.4,53.3-29.5,55.4-62.3c0.1-1.1,1.1-2,2.4-2.6c-2.8-34.2-46.5-52.9-44.5-89.9c0.8-15.5,7.1-28.5,15.2-40.6
	c0-0.1,0.1-0.1,0.1-0.1l0.2-0.3c14-20.9,33.4-39.5,40.2-64.4c7.8-29,8.6-61.5,22.8-88.4c14-26.3,38.8-35.3,67.3-33.1
	c21.6-19.2,51.3-28.3,80.1-26.5c34.9,2.2,59.6,33,92.2,42.6c28.4,8.4,60.7,20.4,77.4,46.5c9.6,14.9,8.7,31.3,3.2,46.7
	c-4.2,33.1,30.2,49,56.3,59.1c28.3,11,67.5,17.9,89.5,40.4c25.7,26.3,26.7,58.3,8.1,88.5c-17.2,27.9-42.4,55.1-33.8,90.4
	c0.1,0.3-0.1,0.7-0.5,1c32.4,11,56.6,34.4,77.8,60.6c24.9,30.8,48.3,62,75.1,91.2c18.9,20.7,37.2,42,54.3,64.2
	c27.7,36.1,81.4,101.1,48.1,149.1c-26,37.4-80.6,44-122.2,45.7c-33.4,1.4-66.8,1-100.2-0.2c-18.1-0.7-36.1-1.6-54.2-2.6
	c-0.2,0-0.4,0-0.6-0.1c-0.9,0.3-1.8,0.6-2.5,0.5c-5.9-0.6-11.2-2.2-16.1-4.5c-0.8,0.9-2.3,1.7-3.8,2c-34.6,4.7-100,15.1-122-16
	c-3.1,3.6-7.1,7-9,9c-6,6-13.1,12.1-21.8,13.3c83.2,0,166.4,0,249.7,0c129.9,0,259.8,0,389.7,0
	C1523.6,1426.3,1516.7,1430.3,1514.1,1430.3z M803.2,1002.2c4.5-8.2,22.1-45.5,2.6-43.6c-1.3,0.6-2.9,0.9-4.1,0.7
	c-3.1,0.4-4.3-1.4-2.8-2.9c-3.1-4.5-7.6-6.4-13.1-3.9c-1.6,0.8-4.5,1.2-5.8-0.4c-1.3-1.6,0.7-3.3,2.1-4c0,0-0.1,0-0.1-0.1
	c-8.4-9.3-18.1-6.9-26.4,1.1c-0.3,0.2-0.6,0.5-1,0.6c-2.3,1.2-5.9,1.6-6.8-0.3c0,0-0.1-0.1-0.1-0.1c0,0,0-0.1-0.1-0.1
	c-12.1-31.2-25.7,19.4-29,30.8c-4.9,16.9-11.3,34.7-12.2,52.4c15.4,7.1,28.4,18.8,44.3,24.9c1.2-0.5,2.5-0.8,3.2-0.7
	C777.6,1060.7,794,1018.9,803.2,1002.2z M700.2,1016c0.1-0.6,0.2-1.1,0.4-1.7l-0.4,1.3l-0.8,0.3
	C699.7,1015.9,699.9,1015.9,700.2,1016z M1055.6,1008.1c-4.7-1.9-15.4-2.6-28-2.7c11,0.8,21.9,2.1,32.6,4.5
	C1058.9,1009.4,1057.4,1008.8,1055.6,1008.1z M772.1,1056.8c0.1,0.3,0.2,0.7,0.2,1.2c-0.1,1.1-0.2,2.2-0.3,3.3
	c0.7,0.2,1.3,0.5,1.5,1.1c13.5,51.2,59.7,82.5,112.2,66.3c43.2-13.4,72.8-50.3,76.4-93.6c-0.5-8.9-0.8-17.8-0.8-26.8
	c-34.2-13-62.3-31.1-62.5-69.6c-11.1,7.8-23.7,13.2-37.3,14.9c-5.9,0.8-4.2-6,0.7-6.7c42.2-5.4,85.2-61.7,71.1-104.3
	c-11.4-34.4-51.6-64.2-46-103c-25.9-5.1-56.5,7.3-83.1,9.7c-1.4,0.3-2.6,0.6-3.6,0.8c-2.3,0.5-4.8,0.2-7.4-0.5
	c-11.5-0.5-22-3.9-30.5-12.8c1.2,16.7,0.4,33.4-4.3,49.7c-3.2,11.2-7.4,22-12.3,32.6c-5,11-11.7,22.2-12.6,34.5
	c-1.3,18.1,9.6,29.3,20.4,42.2c10.2,12.2,16.9,24.7,18.1,40.7c6.3-0.1,12.5,2.3,17.7,8c0.4,0.4,0.5,0.8,0.4,1.2
	c6.8-0.7,13.4,1.6,17.2,8.2c26.3-2.6,12.7,32.6,3.6,48.3C801.4,1019.3,790.4,1045.9,772.1,1056.8z M874.5,1426.3
	c-0.7-0.2-1.3-0.6-0.9-1.4c7.4-18.8,19.3-35.5,26.8-54.3c-6.2-5.3-7.9-13.2-2.1-20.7c5.6-7.2,14.3-11.3,23.2-12.3
	c-7-15.2,1.8-20.4,16-20.9c0-0.3,0.1-0.6,0.2-0.9c7.6-18.7,24.2-66,51.3-60.8c16,3.1,10,21,4.9,30.9c-4,7.7-8.6,15-13.6,22
	c-2.1,2.9-4.1,5.8-6.3,8.6c-2.7,3.7-1.2,3.2-2.9,1.5c1,0.9,0.8,1.9,0,2.8c11,2.5,21.1,5.4,27.4,7.4c0.2-0.2,0.5-0.3,0.9-0.5
	c8.8-4.5,17.9-7.9,27.3-10.7c-0.1-0.1-0.1-0.2-0.2-0.3c-28.3-81.8-53.9-167.4-62.3-254.2c-12.5,33.3-40.9,59.8-77.4,70.1
	c-49.7,14.1-95.7-5.7-115.8-50.3c14.2,55.6,16.2,114.1,16.6,171.2c0.4,57-2.1,114-2.1,171.1c0,0.6-0.4,1.2-1,1.7
	C814.5,1426.3,844.5,1426.3,874.5,1426.3z M1030.9,1415.8c-24.8-15.4-35.3-52.8-33.7-80.9c-12.5-4.2-25.1-8.2-37.9-11
	c-8-1.7-16.9-3.8-25.1-2.8c-1.6,0.2-2.8,0.6-3.8,1.2c-3.4,1.9-3.2,5.8-1.7,9.7c0.8,2.2,2.1,4.5,3.2,6.5c1.7,2.8-3.2,5.3-6.2,4.7
	c-0.2,0-0.4,0-0.6,0c-0.6,0-1.3,0-1.9,0c-6.7,0.2-13.5,4-17.1,8.8c-3.9,5.3-3.7,11.9,5.2,16.7c2,1.1,1.1,2.7-0.7,3.8
	C907.1,1434.7,989.8,1421.5,1030.9,1415.8z M984.5,1261c-3.5-0.2-6.8,1.5-9.9,4.2c-8.1,7-14.6,21-17.8,27.5
	c-4,7.9-7.5,15.9-10.8,24.1c0,0.1-0.1,0.1-0.1,0.2c5.5,0.4,11.3,1.3,17.2,2.4c3.2-5.6,25.3-34.4,27.6-49.4
	C991.5,1264.8,990,1261.3,984.5,1261z M890.1,1415.5c2.9-2.8,5.5-5.9,7.4-8.2c1.9-2.2,7.4-7,7.6-10.2c0-0.2,0.1-0.3,0.1-0.5
	c-1.5-3.7-2.6-7.8-3.1-12.3c-6.2,12-13.2,23.6-18.5,36c0.2-0.1,0.4-0.3,0.7-0.4C886.3,1418.8,888.3,1417.2,890.1,1415.5z
	 M970,1007.9c0,0.2,0,0.5,0,0.8c0.1,0.1,0.2,0.3,0.2,0.5c1.1,8.2,1.2,16.3,0.6,24.1c0.6,10.5,1.4,20.9,2.4,31.3
	c2.7,26.5,7.1,52.9,12.6,79.1c12.2,58.1,30.2,115.4,49.4,170.7c0,0.1,0,0.2,0,0.2c22-5.8,45-8.7,67.2-13.2
	c42.4-8.6,83.6-16.9,127-10.7c2.2,0.3-5.2,3.6-7.2,3.3c-41.7-5.9-80.8,2.6-121.5,10.5c-26.7,5.2-54.8,8.2-80.6,17.5
	c-5,1.8-9.9,3.9-14.7,6.3c0,0,0.1,0,0.1,0.1c0.5,0.3,0.7,0.8,0.6,1.4c-3.4,32.7,11.7,84.6,50.3,88.3c1.5,0.1,1.8,0.7,1.4,1.3
	c0.9-0.2,1.6-0.4,2-0.4c20.3,1.2,40.7,2.1,61,2.8c29.9,0.9,60,1.5,89.9,0.2c28.1-1.2,54.3-3.5,79.9-16c29-14.2,46.5-40.2,39.9-73.5
	c-5.4-27.1-22-52.1-37.7-74.3c-37.4-53.2-84.4-97.9-123.7-149.4c-25.2-33-50.7-70-90.1-87C1044.5,1006.7,1007.2,1007.7,970,1007.9z
	 M1029.2,805.5l20.5,7.6c0,0,1.3,0.3,3.5,0.9C1045.2,810.9,1037.2,808.2,1029.2,805.5z M639.4,672.2c1.6-4,3.2-7.8,4.8-11.3
	C642.4,664.4,640.8,668.2,639.4,672.2z M560.1,1267.1c40.6-79,118.7-138.9,135.6-230.1c0.1-0.7,0.9-1.3,2-1.7c0-0.1-0.1-0.3-0.1-0.5
	c0.2-4.8,0.8-9.7,1.7-14.5c-0.3,0.1-0.5,0.2-0.8,0.3c-54.5,12-83.6,64.7-101.5,113.2C581,1177.1,570.4,1222.1,560.1,1267.1z
	 M667.2,1410.3c19.2-13.2,34.1-31,42.9-52.2c0,0,0-0.1,0-0.1c-0.5-1.3,0.2-2.5,1.4-3.3c0.6-1.5,1.1-3.1,1.6-4.6
	c0.1-0.3,0.3-0.6,0.6-0.8c1-3.5,2-6.9,2.9-10.4c2.5-9.6,4.8-19.3,7-29c5.4-23.5,10.4-47.1,15.1-70.8
	c10.4-52.4,18.1-104.3,22.9-157.3c0,0,0-0.1,0-0.1c-0.1-0.3,0-0.6,0.1-0.8c0.6-6.6,1.1-13.3,1.7-20c-3.7,1-7.6,1.4-11.8,1.1
	c-1.7,0.7-3.6,1.1-4.6,0.8c-15.8-5.1-28.7-16.3-43.3-23.9c-19.6,97.7-108.3,156.9-144.2,246.8c-17.5,43.9-22.3,90,19.2,121.5
	C605.7,1427.6,638.4,1430.1,667.2,1410.3z M640,1426.3c45.6,0,91.2,0,136.9,0c0.1-58.4,2.8-116.8,2.1-175.3
	c-0.6-47.6-2.2-96-11.3-142.9c-6.2,55.7-15.6,110.5-27.4,165.7c-5.3,24.6-10.4,49.4-17.3,73.7c-0.3,1.1-2,5.6-4.2,9.2
	C705,1389,674.8,1418.4,640,1426.3z M1171.6,495.5c-6.3-65.3,49.9-118.3,110-132.5c59.3-14,131.8-10.7,179.8,30.8
	c25.7,22.2,42.7,49.8,46.1,84.1c2.8,28.9-1.8,60.4-19.4,84.3c-16.1,21.8-39.5,32-63.6,42.7c-28.6,12.6-49.5,28.3-48.1,62.3
	c0,1.1-1.2,2-2.7,2.6c-0.9,0.7-2.1,1.3-3.3,1.5c-23.5,4.2-47.4,4.6-70.8,9.8c-4.6,1-5.9-1.6-2.2-3c-1.7,0.3-3.2,0.3-3.6-0.5
	c-6.6-17-11.7-37.6-3.2-55c6.2-12.7,17.1-22,28.9-29.3c27.8-17.3,68.8-30,79-65c10.9-37.5-10.2-68.6-47.6-77
	c-27.3-6.1-77.8-2.5-76.4,36c0.1,2.4-8.6,3.8-8.7,2.3c0-0.3,0-0.5,0-0.7c-0.9,0.6-2,1-3.1,0.9c-28.7-1.2-56.3,7.4-84.9,8
	c-1.6,0-2.7-0.5-3.2-1.2C1172.8,496.6,1171.6,496.3,1171.6,495.5z M1180.1,490.9c28.7-0.9,56.4-9.1,85.3-7.9c0.2,0,0.3,0,0.5,0.1
	c3.7-27.2,37.8-36.8,61.9-38c31.5-1.6,74.1,11.9,81.2,47.1c8.7,42.7-23.6,68.5-57.1,86.5c-16.9,9.1-37.6,18.2-48.7,34.7
	c-12.9,19.2-8.9,41.4-1,61.8c0.3,0.7-1.2,1.7-3,2.3c22.6-4.9,45.6-5.7,68.3-9.4c-1.1-52.4,48.4-59,85.1-81
	c52.3-31.3,60-109,29.2-158.3c-37.5-59.9-109.6-73.4-174.9-66.1C1241.6,370,1174.7,419.2,1180.1,490.9z M1299.6,763.6
	c0,0-0.1-0.1-0.1-0.1c0.1-19.3,1.9-38.6,2-58c0-0.8,1.1-1.5,2.5-2c1.9-1.2,5-2,6.3-1.2c0.1,0.1,9.8-0.9,12.7-1.1
	c7.4-0.6,14.8-1.2,22.3-1.9c2.5-0.2,14.1-2.6,20.6-2.1c1.7-2.9,8.5-3.3,8.5,0.8c0,20,0,40,0,60c0,0.5-0.2,1-0.4,1.4c0,0,0,0,0,0.1
	c-0.6,0.9-1.6,1.6-2.7,1.9c-1.1,0.5-2.3,0.9-3.1,0.9c-22.4,0.2-45.7,5.1-68,3C1298.3,765.1,1298.5,764.4,1299.6,763.6z
	 M1310.2,707.6c-0.3,17.9-1.8,35.7-1.9,53.5c0,0.1,0,0.2-0.1,0.4c18.8,1.3,38.4-2.1,57.3-3c0-18.6,0-37.2,0-55.8
	c-1.6,0.3-3.1,0.1-3.6-0.8c1.1,1.6,0.7,0.6-2.6,0.8c-2.9,0.2-5.9,0.4-8.8,0.7c-7.4,0.6-14.8,1.2-22.2,1.9
	C1324.1,705.7,1316.4,707.5,1310.2,707.6z"/>
</svg>
