<?xml version="1.0" encoding="utf-8"?>
<!-- Generator: Adobe Illustrator 26.5.0, SVG Export Plug-In . SVG Version: 6.00 Build 0)  -->
<svg version="1.1" id="Layer_1" xmlns="http://www.w3.org/2000/svg" xmlns:xlink="http://www.w3.org/1999/xlink" x="0px" y="0px"
	 viewBox="0 0 1785.8 1785.8" style="enable-background:new 0 0 1785.8 1785.8;" xml:space="preserve">
<style type="text/css">
	.st0{fill:#FFFD81;}
	.st1{fill:#9ECFCA;}
</style>
<path id="color_x5F_2" class="st0" d="M1297.8,712.1l-14.4,30.1c-7.4,12.1-15.3,23.9-21.1,36.9c-9.7-6.6-19.9-12.7-30-18.9
	l-43.2-30.2c-3.8-3.4-7.5-6.9-11-10.7c1.4-2.8,4.9-7.2,6.4-9.6c4.8-7.6,9.6-15.2,14.3-22.9c5.8-9.3,12.2-19.8,16.5-29.5
	c3,1.6,6.6,4,8.6,5.2c8.1,4.5,16.1,9.4,24,14.2C1265,687.3,1283,698.3,1297.8,712.1z M1208.7,652.7c0.1-0.3,0.3-0.5,0.5-0.8
	l-2.2-1.4l-19.1,40c0.4-0.6,0.8-1.3,1.2-1.9C1196.3,677,1203.9,665.4,1208.7,652.7z M167,1169.1c2.5-17.4,13.8-30.4,27.1-41.1
	c-0.4,0-0.8,0-1.2,0c-2.9,0-6.8-0.2-11-0.5l-25.9,1.1c-1.8,0.6-3.4,1.3-4.7,2.2c-1,0.8-3.5,1.1-5.4,1c-0.2,0.4-0.4,1.2-0.6,2.6
	c-0.3,2-0.5,4-0.7,6c-0.4,6.6-0.5,13.2-0.4,19.8c0.2,17.4,0.9,34.7,1.7,52c1.6,35.8,4.1,71.7,4.2,107.6c0.3,0.3,0.4,0.7,0.3,1.2
	c-0.4,1.5,4.6,2.2,5.4,2.1c6.5-0.9,10.6-9.5,12.3-14.9c6.8-21.3,3.3-44,9.9-65.3c3.8-12.3,9.6-24.1,17.3-33.5
	c-0.1,0-0.3-0.1-0.4-0.1C180.2,1201.4,164.3,1187.8,167,1169.1z M176.6,1160.3c0.4-1,0.8-1.9,1.4-2.8c4.7-7.8,8.6-14.1,11.7-19
	C183.8,1144.9,178.8,1152.3,176.6,1160.3z M186.6,1194.4c-4.7-6.4-9.4-14.4-10.8-22.3C176.6,1181.2,180.7,1188.5,186.6,1194.4z
	 M144.4,1131.5c-0.5,0.2-1.1,0.4-1.6,0.5v0.3c1.5,0.1,2.4-0.3,2.8-0.6C145.1,1131.7,144.7,1131.6,144.4,1131.5z M722.8,869.2
	c-5.5-27.7-11.1-54-20.9-80.6c-7.6-20.5-22.7-37.9-26-60c-0.1-0.5,0-0.9,0.2-1.3c-30.3-13.4-59.5-29.7-87-47.2
	c-38.5-24.5-84.9-54.9-105.2-97.5c-0.3-0.6-0.1-1.2,0.3-1.7c-0.1-0.1-0.2-0.2-0.3-0.3c-2.1-3.7-4.2-7.5-5.9-11.4
	c-4.1-9.7-6.8-21.1-4.5-30.6c0.6-2.4,1.5-4.6,2.8-6.7c2.5-4,6.3-7.4,12-9.6c19.4-7.7,41.5-1.5,58.8,8.6
	c34.3,20.1,55.6,55.1,84.9,81.2c8.8,7.9,18.1,14.9,27.7,21.4c-1.6-31.6-12.5-54.4-39.3-74.3c-14.7-10.9-31.4-23.8-49.2-34.4
	c-2.8,0.4-4.2-0.8-3.8-2.2c-24.9-14.2-51.8-23.2-78.6-15.8c-0.6,0.2-1.3,0.5-1.9,0.7c-0.2,0.1-0.4,0.3-0.7,0.4
	c-7.1,3.9-12.3,8.5-16.1,13.5c-2.7,3.6-4.7,7.4-6,11.3c-6,18.3,1.9,40.3,12.2,60.2c19.3,37.1,43.4,71.6,59.7,110.3
	c8.8,20.8,16,42.6,18,65.2c1,10.5,1.3,21.2,0.2,31.7c-0.8,7.5-0.8,18.5-5.2,25.1c-7.4,11-20.5,18-30.6,26.1
	c-24.8,19.9-45.1,43.7-62,70.7c-0.4,0.6-1.1,1.1-1.9,1.5c0,0,0.1,0.1,0.1,0.1c1.8-0.8,4-1,5.1-0.2c25.7,18.9,46.1,47.5,75.7,60.6
	c20.9,9.2,40.4,2.2,61.7-0.2c10.3-1.2,22.6-2.2,32,3.1c5.3,3,9.1,6.9,12,11.4c7.7-28.5,14.2-57.2,18.7-86.2c0.5-3.4,9.4-4.8,8.7-0.9
	c-5.1,32.7-13.1,65.1-22.3,97.1c2.5,6.1,4.3,12.6,6.8,18.7c5.8,8.2,13.2,17.5,20.3,23.7c7.5,3.7,15.6,4.2,23.4-1.5
	c4.8-3.5,9.1-7.4,13.8-11.1c6.3-4.9,12.7-8.9,20-11.7c2.6-12.9,4-26,4.6-39.2c-0.4-15.4-1-33.9-1.9-52.4
	C731,912.7,727.1,890.7,722.8,869.2z M601.9,679.4c-6.1-3.9-12.3-7.8-18.4-11.7c3.1,2,6.3,4,9.3,6
	C595.8,675.6,598.8,677.5,601.9,679.4z M557.3,546.7c-8.8-7.5-18.2-14.1-28.7-18.5C537.9,533.3,548,540,557.3,546.7z M704,1525.5
	C704,1525.5,704,1525.5,704,1525.5c-2.8-6.9-12.2-10.9-28.3-12.8c-8.4-0.5-16.6-0.2-21.7-0.7c-1.6-0.2-3.1-0.3-4.7-0.5
	c-5.3-0.1-10.7-1.2-16-2.9c-18-4.2-36.4-12-48-24.6c-9.7,12.6-21.6,22.4-38.2,24.6c-15.1,2-29.1-6.1-40.5-15.5
	c-5.6,13.3-11.7,26.2-18.3,38.5c-0.3,0.5-0.8,0.9-1.4,1.3c0.3,0.1,0.5,0.3,0.6,0.6c1.4,3.5,6.7,5.2,13.1,6.1
	c3.7,0.3,7.9,0.6,12.5,0.8c5.9,0,11.3-0.2,14-0.2c14.6,0.2,29.1-0.5,43.7-0.6c21.6-0.1,43.2,0,64.7,0c23.3,0,46.5-2.5,69.8-2.9
	c-1-2.5-0.2-6-0.9-9.2C704.4,1526.8,704.2,1526.2,704,1525.5z M707.3,1539.5c0.4,0,0.7,0,1.1,0c-0.2-0.1-0.4-0.2-0.5-0.2
	C707.6,1539.3,707.5,1539.4,707.3,1539.5z M712.8,1539.5c0.5,0,1,0,1.5,0c0,0-0.2-0.2-0.6-0.4
	C713.4,1539.2,713.1,1539.3,712.8,1539.5z"/>
<path id="color_x5F_1" class="st1" d="M558.1,381.3c2.2,2.5-6.1,5.6-8.1,3.4c-4.4-5-8.7-2.7-12.2,2.1c-1.6,2.3-10.4,3.1-8.1-0.1
	C535.8,378.1,549.9,372,558.1,381.3z M519.7,362.3c2,0.1,4.4-0.5,6.1-1.6c3.5-2.4,7.2-5,11.3-6.2c0.8-0.2,4.3-1.2,4-2.6
	c-0.4-1.4-3.9-0.6-4.7-0.3c-6.3,1.9-11.8,5.1-17.2,8.8C517.8,361.2,518.1,362.2,519.7,362.3z M546.2,426.6c2.8,2.7,6.6,3.5,10.3,4.3
	c2,0.4,4.6-0.4,6.1-1.6c1.5-1.1,1-2.3-0.7-2.6c-2.8-0.6-5.5-1.2-7.7-3.2C552.4,421.5,544.3,424.7,546.2,426.6z M1096.7,495.1
	c50.8,17.7,107.7,62.4,109.2,120.8c0.1,4.2,8.8,2.5,8.8-0.9c-1.6-60.8-59.7-106.8-112.8-125.2
	C1098.6,488.7,1091.6,493.4,1096.7,495.1z M1113.7,470.3c40.4,12,79.6,29.3,110.3,58.8c29.9,28.7,44.8,67.7,47.9,108.5
	c0.2,2.1,8.9,0.4,8.7-2.3c-3.1-40.5-17.7-77.3-45.9-106.8c-30.3-31.6-72.7-49.7-113.9-61.9C1118.6,466,1110.8,469.4,1113.7,470.3z
	 M1637.2,717.5c-11.2,20-24.6,38.7-38.6,56.8c-14.3,18.5-29.2,36.5-44,54.6c-8.5,10.4-19.9,21.5-25.2,34c-0.4,0.9-1.6,1.5-2.9,2
	c5,1.6,10,3.1,15,4.4c2.3-0.4,4.5-0.2,4.3,1c3.3,0,6.6,0,9.8,0c1.9,0,3,0.7,3.5,1.6c1.8-0.1,3.3,0.3,3.2,1.6
	c-4.3,68.1-27.9,135.8-50.2,199.7c-14.1,40.3-29.1,80.4-45.7,119.8c-1,2.3-8.1,3.3-8.7,1.8c-37,0-74.1,0.2-111.1,0.4
	c0.1,0.4,0.1,0.8,0.2,1.2c0.1,0.2,0,0.5-0.1,0.7c20.4,45.4,41.2,90.7,64,134.9c8.7,16.8,17.5,33.7,27.6,49.8
	c2.1,3.3,7.1,13,12.5,19.2c4.4-0.1,8.9,0.1,13.4,0.6c2.4,0.3,2.4,1.6,1.4,2.8c0.3,0.1,0.7,0.1,1.1,0.2l3.6,0.5c0,0,0.4,0.2,1.2,0.6
	c32.2,9,50.5,42.1,46.2,75.5c-4.9,37.7-36.1,62.3-74.2,56.3c-38.1-6-68.6-37.3-63.3-77.2c-83.3,0-166.6,0-249.9,0
	c-3.2,27.3-16.5,52.9-41.3,67.3c-35.8,20.7-89.3,11.3-118.4-17.1c-28.5-27.7-37.3-72.9-19.9-109c13.5-28.2,38.1-44.1,66.2-49.7
	c-0.7-4.5-2.1-9.3-2.6-12.8c-2.8-17.1-5.8-34.2-8.9-51.3c-5.4-30-10.9-59.9-16.5-89.8c-0.3,0-0.5,0-0.8,0c-5.4,0-4.4-5.4-0.4-6.3
	c-6.4-34-12.9-68-19.5-102c-2.4-0.8-2.4-3.2-0.9-4.8c-7.3-37.9-14.6-75.7-21.8-113.6c-0.1-0.4-0.1-0.8-0.2-1.2
	c-14.7-77.4-29-154.9-41.7-232.7c-6.9-2-12.9-6.1-16.4-12.4c-4,7.2-8.6,16.2-15.7,20c-14,7.4-32.3,9.9-47.9,10.8
	c-26.7,1.5-53.8,2.1-79.9-4.6c-19.7-5-39-11.7-58-19.6c4.9,21.3,19.4,39.7,27.1,60.1c10.3,27.5,15.3,56,20.6,84.8
	c8.3,44.7,14.7,91.2,8.2,136.5c0.8,0.4,1.3,1.2,1.2,2.3c-17.5,152.4-56.5,299.3-99.2,446.3c-0.9,3-6.6,4.2-8.4,2.6
	c-18-3.4-35.8-8.1-52.8-14.9c-0.6,10.1,2.1,19,7.3,26.7c0.5,0.2,0.7,0.5,0.7,1c5.4,7.6,13.3,13.8,22.5,18.2
	c23.3,11.2,46.4,10.8,71.4,13.7c8.8,1.1,22.6,3.2,27.5,12.1c1.3,2.4,1.2,13.7,3.3,14.2c3.2,0.8,1.3,2.8-1.2,4
	c-0.3,0.1-0.6,0.3-1,0.4c-1.1,0.4-2.3,0.6-3.1,0.4c-0.5-0.1-0.9-0.3-1.3-0.4c-0.2-0.1-0.4-0.2-0.5-0.2c-0.2,0.1-0.4,0.2-0.5,0.3
	c-1.1,0.5-2.4,0.9-3.1,0.9c-24.7,0.3-49.3,3-74.1,3c-23.2,0-46.5-0.5-69.8,0.2c-17.1,0.4-34.2,1-51.3,0c-6.7-0.4-26.8,0.6-30.1-7.6
	c-0.3-0.7,0.8-1.5,2.3-2.2c-1.1-0.4-1.7-1.2-1-2.6c18.9-35.5,34.3-76.2,43.7-115.3c0-0.2,0.1-0.4,0.2-0.5
	c-11.7-8.6-23.2-17.5-35.2-25.6c-0.9-0.6-1.3-1.6-0.7-2.6c42.6-72.6,73.1-153.6,101.6-232.5c17.3-47.7,34.6-96.4,48.4-145.8
	c-1.2-2.6-2.6-5.1-4.2-7.3c-4.9-6.6-10.8-10.3-17.5-12.1c-30.5,68.6-88.4,127.9-144.3,176.3c-58.8,50.9-129.1,101.7-207.5,115.1
	c-6,1-2.8-3.9,1.2-4.6c77.6-13.3,148.4-66.2,205.7-117.4c53.2-47.6,108.6-104.2,137.3-170.7c-23.8-2.2-54,11.8-76.3,2
	c-6.9-3.1-13.3-6.8-19.4-11c-27.2,42.1-71.9,74.5-114.8,98.6c-42.7,24-95,43.6-144.6,33.8c-4.9,25.5-6.6,51.9-5.9,77.9
	c1,0.5,0.8,1.2,0,2c0.8,26.9,3.3,55.6,15.7,79.9c1.5,3-7,5.7-8.7,2.3c-12.4-24.2-15.1-53.1-15.7-80c-31.4-3.5-49.1,29.5-54.6,56.3
	c-4.3,20.9,0.2,46.3-11.4,65.2c-4.5,7.3-11.8,13.4-20.9,13.1c-2.6-0.1-10.1-1.2-10.7-4.9c-0.1-0.1-0.2-0.3-0.2-0.5
	c-0.1-45.5-3.9-90.8-5.4-136.3c-0.3-7.7-7.9-62.3,10.3-58.8c9.7-5.9,21.8-5.1,32.9-4.8c21.3,0.5,42.5,0.1,63.8,1.4
	c0.8-5.5,1.8-11.1,2.9-16.6c0.6-2.7,4.7-3.6,7-3.1c51.5,12.8,107.2-10.4,150.7-36.6c39-23.5,79.4-53.7,103.6-93
	c0.1-0.1,0.2-0.2,0.3-0.3c-19.1-14.5-35.2-32.9-54.6-47.2c-2-1.4-0.4-3.2,1.8-4.1c1.8-0.8,4-1,5.1-0.2
	c25.7,18.9,46.1,47.5,75.7,60.6c20.9,9.2,40.4,2.2,61.7-0.2c10.3-1.2,22.6-2.2,32,3.1c5.3,3,9.1,6.9,12,11.4
	c7.7-28.5,14.2-57.2,18.7-86.2c0.5-3.4,9.4-4.8,8.7-0.9c-5.1,32.7-13.1,65.1-22.3,97.1c2.5,6.1,4.3,12.6,6.8,18.7
	c2.8,7.1,6.3,13.6,12.5,18.7c2.5,2,5.1,3.8,7.8,5.1c7.5,3.7,15.6,4.2,23.4-1.5c4.8-3.5,9.1-7.4,13.8-11.1c6.3-4.9,12.7-8.9,20-11.7
	c2.6-12.9,4-26,4.6-39.2c0.7-17.4-0.1-34.9-1.9-52.4c-2.3-22.1-6.2-44.1-10.4-65.6c-5.5-27.7-11.1-54-20.9-80.6
	c-7.6-20.5-22.7-37.9-26-60c-0.1-0.5,0-0.9,0.2-1.3c-30.3-13.4-59.5-29.7-87-47.2c-38.5-24.5-84.9-54.9-105.2-97.5
	c-0.3-0.6-0.1-1.2,0.3-1.7c-0.1-0.1-0.2-0.2-0.3-0.3c-2.1-3.7-4.2-7.5-5.9-11.4c-4.1-9.7-6.8-21.1-4.5-30.6c0.6-2.4,1.5-4.6,2.8-6.7
	c2.5-4,6.3-7.4,12-9.6c19.4-7.7,41.5-1.5,58.8,8.6c34.3,20.1,55.6,55.1,84.9,81.2c8.8,7.9,18.1,14.9,27.7,21.4
	c-1.6-31.6-12.5-54.4-39.3-74.3c-14.7-10.9-31.4-23.8-49.2-34.4c-2.8,0.4-4.2-0.8-3.8-2.2c-24.9-14.2-51.8-23.2-78.6-15.8
	c-0.5,0.1-1,0.3-1.5,0.5c-0.1,0.1-0.2,0.2-0.4,0.3c-0.2,0.1-0.4,0.3-0.7,0.4c-7.1,3.9-12.3,8.5-16.1,13.5c-2.7,3.6-4.7,7.4-6,11.3
	c-6,18.3,1.9,40.3,12.2,60.2c19.3,37.1,43.4,71.6,59.7,110.3c8.8,20.8,16,42.6,18,65.2c1,10.5,1.3,21.2,0.2,31.7
	c-0.8,7.5-0.8,18.5-5.2,25.1c-7.4,11-20.5,18-30.6,26.1c-24.8,19.9-45.1,43.7-62,70.7c-0.4,0.6-1.1,1.1-1.9,1.5
	c-3.2,1.5-8.4,0.8-6.4-2.4c15.7-25.2,34.3-48.3,57-67.4c7.9-6.6,16.2-12.7,24.4-19c4.1-3.2,10.6-7.1,12.2-12.4
	c5-16.1,6-32.8,4.4-49.6c-20,22.9-44.7,38.5-71.8,47.9c-4.9,1.8-10.1,3.4-15.6,4.7c-33.8,8.7-70.5,8.7-106,2.4
	c-43.2-7.8-92.1-21.9-128.3-48c-27-19.4-48-48.9-49.4-83.2c-0.1-2.1-0.1-4.2-0.1-6.3c-2.8-18.6,2.5-35.6,11-49.7
	c5.2-10.8,12.4-20.4,21.8-27.6c4-3,8.1-5.5,12.2-7.7c4.1-2.6,7.7-4.5,10.4-5.4c8.9-3,18.7-7.9,26.3-12.2c10.3-8.1,12.6-19.7,14-34.1
	c2.4-24,1.5-53.3,17.5-73.2c13.9-17.4,36.1-28.5,58.3-29.3c11.5-0.4,26.5,1.9,37-3.5c10.7-5.4,14.6-16.1,16.1-27.2
	c-1.6-41.6-4.5-87.6,34.6-113.3c18.1-11.9,43.9-15.1,57.2-33.4c9.9-13.7,20.4-29.7,39-31.7c33.8-3.8,64.2,34.8,47.3,66.5
	c-2.5,4.6-5.6,8.7-9.3,12.3c0.8,0.5,1.3,1.2,1.3,2.3c0.2,15.1,1.7,30.3,5.5,44.9c4,15.5,11.7,18.8,27.2,18.3
	c3.8-0.1,4.4,2.4,3.1,4.3c0.7,0.3,1,0.9,0.5,1.9c-5.1,9.4-12,12.6-11.8,24.8c0.2,7.7,0.8,15.3,0.8,23c0,10.2-5.5,19-14.3,24.1
	c-7.8,4.6-16,6.1-24.9,7.3c-15.2,2.1-20.9,11.1-24.1,24.1c57.1-21.2,114.9-40.8,173.6-57.4c100.4-28.3,209.1-54.5,314.3-47.5
	c20.1,1.3,43.6,3,61.6,13c3.6,2,8.4,5.1,9.4,9.4c2,8.6-10.3,10.5-21.3,10.5c2.7,1.4,5.3,3,7.7,4.8c8.4,6.1,21.2,19.6,16.3,31.2
	c-5.3,12.7-25.5,5-40.4-1.6c6.8,8.8,12.5,18.3,16.6,26.9c6.7,13.9,3.4,24.3-10.4,24.1c-2.1,1-5,1.5-6.1,0.5
	c-18.1-15.4-38.6-40.4-63.3-44.3c-35.6-5.7-25.2,33.9-33.3,54.1c-0.9,2.3-4.8,3.2-7,2.8c-25.2-4-33.2-26.3-46.5-44.7
	c-0.2,0-0.3,0-0.5,0c-109.8,0.3-217.1,20.4-323.5,46c11.2,6.6,22.2,14.1,33,21.6c15.7,10.8,33.5,22.2,43.8,38.7
	c10.5,16.7,12.5,35.7,12.7,55.1c0,0.3-0.1,0.5-0.3,0.8c17.7,11,36.7,19.8,56.9,26.5c19.8,6.6,40.4,12.1,61.2,14.1
	c10.5,1,21.3,1.7,31.9,0.3c8.6-1.1,15.2-6.1,22.3-10.6c23.6-15.1,47.5-32.8,76.2-35.6c16.4-1.6,31.4,5.9,40,19.9
	c3.8,6.3,6.7,13.2,8.7,20.3c0.8,2.9,3.6,8.5,1.4,9.6c0,0.1,0,0.2,0,0.2c2,0,1.5,0.7,0.2,1.5c1.4,14.3-8,26.7-23.1,24.8
	c2.9,19.1-14.3,29.1-31.2,28.5c6.8,40.9,14.5,81.7,22,122.4c0.6,3.1,1.2,6.2,1.7,9.3c0.3-0.1,0.7-0.1,1-0.1c7.7,0,15.4,0,23.2,0
	c4.5-13.1,11.3-25.5,20.3-36c26.7-31.1,66.1-42.2,105.8-34.7c0.7,0.1,1.2,0.4,1.4,0.6c37.5,5,70.6,34.2,87.9,70.1c33,0,66,0,99.1,0
	c1-0.2,2-0.2,2.9,0c10.7,0,21.4,0,32.2,0c3.2-13.7,6.4-27.4,9.7-41c4.3-17.7,6.8-38.4,14.6-55.1c0.4-0.9,1.6-1.5,3-2
	c1.8-0.7,3.9-1,4.8-0.6c19.9,10.5,39.4,21.8,59,33.1c16.1-36.3,42.7-71.6,69-100.5c14.9-16.3,47.1-51,71-28
	c15.3,14.7,6.5,40-4.4,60.5c18.1-23,37.3-45.4,59.1-64.5c8.7-7.7,19.7-17.4,31.9-18.2c10.4-0.6,21.3,7.5,22.7,18
	C1652.9,687.9,1644.7,704.2,1637.2,717.5z M155.9,1128.5c-1.8,0.6-3.4,1.3-4.7,2.2c-1,0.8-3.5,1.1-5.4,1c-0.2,0.4-0.4,1.2-0.6,2.6
	c-0.3,2-0.5,4-0.7,6c-0.4,6.6-0.5,13.2-0.4,19.8c0.2,17.4,0.9,34.7,1.7,52c1.6,35.8,4.1,71.7,4.2,107.6c0.3,0.3,0.4,0.7,0.3,1.2
	c-0.4,1.5,4.6,2.2,5.4,2.1c6.5-0.9,10.6-9.5,12.3-14.9c6.8-21.3,3.3-44,9.9-65.3c3.8-12.3,9.6-24.1,17.3-33.5
	c-0.1,0-0.3-0.1-0.4-0.1c-14.7-7.9-30.6-21.4-27.9-40.2c2.5-17.4,13.8-30.4,27.1-41.1c-0.4,0-0.8,0-1.2,0c-2.9,0-6.8-0.2-11-0.5
	C173.2,1126.9,162.9,1126.3,155.9,1128.5z M142.8,1132.3c1.5,0.1,2.4-0.3,2.8-0.6c-0.5,0-0.9-0.1-1.3-0.2c-0.5,0.2-1.1,0.4-1.6,0.5
	c-0.7,0.1-1.3,0.2-1.7,0.1C141.7,1132.2,142.3,1132.3,142.8,1132.3z M239.1,1188.3c-0.2-19.5,0.6-39.2,3.1-58.6
	c-13.7-1-27.5-1.6-41.2-1.7c-3.8,3.1-7.7,6.7-11.3,10.6c-5.9,6.4-10.9,13.8-13.1,21.8c-0.8,3.1-1.2,6.3-1.1,9.6
	c0,0.7,0.1,1.4,0.2,2.1c0.9,9.1,5,16.4,10.8,22.3c3.8,3.8,8.3,7.1,13.2,10C210,1194.1,223.1,1187.7,239.1,1188.3z M633.3,1508.6
	c-18-4.2-36.4-12-48-24.6c-9.7,12.6-21.6,22.4-38.2,24.6c-15.1,2-29.1-6.1-40.5-15.5c-5.6,13.3-11.7,26.2-18.3,38.5
	c-0.3,0.5-0.8,0.9-1.4,1.3c0.3,0.1,0.5,0.3,0.6,0.6c1.4,3.5,6.7,5.2,13.1,6.1c4,0.5,8.4,0.7,12.5,0.8c5.9,0,11.3-0.2,14-0.2
	c14.6,0.2,29.1-0.5,43.7-0.6c21.6-0.1,43.2,0,64.7,0c23.3,0,46.5-2.5,69.8-2.9c-1-2.5-0.2-6-0.9-9.2c-0.2-0.7-0.4-1.4-0.6-2
	c-3.5-9.5-16-12-28.3-12.8c-8.4-0.5-16.6-0.2-21.7-0.7c-1.6-0.2-3.1-0.3-4.7-0.5C644.1,1510.8,638.7,1509.9,633.3,1508.6z
	 M574.1,1445.6c-8.5-3.8-16.9-8-24.9-13c-6.2-3.8-12.1-7.9-18-12.1c-5.5,21.7-12.8,43.8-21.5,65.1c0.1,0.1,0.2,0.1,0.3,0.2
	c8.6,7.6,18.9,16.1,30.7,17.8c18.7,2.7,30.8-10.9,40.4-24.9C574.9,1469.9,572,1458.9,574.1,1445.6z M731.9,1032.2
	c-0.5-0.1-1-0.3-1.3-0.5c-17.7,8.8-33.1,32.9-55,26.7c-11.3-3.2-21-9.9-26.3-20.6c-2.7-5.4-4.5-11.4-6.5-17.4
	c-4.3,14.3-8.7,28.6-13.2,42.7c-18.7,58.5-39.5,116.3-62.4,173.2c-19.5,48.3-39.9,97-65.5,142.5c-4,7.1-4.4,7.2,2.5,12.1
	c5.4,3.9,10.7,7.8,16,11.8c9.8,7.4,19.7,14.9,30.1,21.6c26.5,16.9,55.2,27.4,85.8,33.5C676.6,1317.5,713.7,1177.3,731.9,1032.2z
	 M530.2,501.7c-0.3,0.4-0.7,0.7-1.3,1c15.4,2.8,30.1,9,44.3,17c107.4-26,215.9-46.6,326.8-47.6c0.6-2.1,6.9-4,8.3-2.2
	c13,16.4,20.1,39.3,41,46c3.7-13.4,1.2-28.2,7-40.8c4.5-9.6,17.3-13.8,26.9-15.4c28.5-4.6,54.9,25.3,74.7,43.1c0.3,0,0.7,0,1,0
	c16.1,2.9-5.8-29.6-9.4-34.3c-7.4-10-15.9-22.1-26.6-28.8c-3.8-2.4,4-6.3,6.8-4.6c5.1,3.2,10.1,7.4,14.7,12.3c0.5-0.1,1-0.1,1.4,0
	c8.7,2.6,16.8,6.9,25.3,10.1c2,0.8,13.6,6,14.5,1.4c0.9-4.5-1.5-10.7-3.9-14.6c-10.9-17.6-33-23.4-51.6-29c-3.3-1,4.5-4.7,7-4
	c5.9,1.8,12,3.5,18,5.6c0.9-0.4,1.9-0.6,2.8-0.5c4.7,0.7,24.5,1.3,24.5-0.8c-0.4-10.4-26.6-14.6-33.4-15.9
	c-33.2-6.4-67.9-5.6-101.5-3.1C804.4,407.4,663.8,451.7,530.2,501.7z M483.1,502.5c0,0.1-0.1,0.1-0.1,0.2
	C483,502.7,483.1,502.6,483.1,502.5C483.1,502.6,483.1,502.5,483.1,502.5z M522,501.7c4.9-25,16.5-31.7,40-35.5
	c23.2-3.7,24.3-19.9,23.8-39.6c-0.2-6.8-0.7-13.2,1.4-19.7c1.9-5.7,7.7-9.4,10.7-14.6c-10.8,0.2-21.4-1-27.6-11.1
	c-8.8-14.3-9.2-37.4-9.3-54.6c-16.3,11.5-38.7,16.2-58,16.3c0,21.7-1.3,42.4-19.8,55.7c5.2,1.1,10.1,4.7,13,11
	c0.6,1.3-7.8,4.3-8.7,2.3c-6.4-13.7-20.6-10-18.5,5.3c1,7.5,8,24.6,19.7,15.6c0.8-0.6,8.1-3.6,8.3-1.6c1.4,14.1,0.1,28.6-1.4,42.7
	c-0.8,7.9-0.3,19.3-3.9,26.6c-0.5,1.1-2.8,1.7-4.9,2c0.8,0.4,1.4,0.9,1.6,1.6C499.9,501.1,511.2,500.5,522,501.7z M884.1,715.4
	c0-0.3-0.1-0.5-0.1-0.8c-0.1-1.5,1-2.8,2.5-3.5c8.4-15.4,20.2-36.9,38.4-36c6.7,0.3,14.4,6.4,14.6,13.6c0.1,4.7,0,14.9,6.7,15.9
	c16.5,2.6,13.7-15.8,10.8-24c-0.1-0.3-0.1-0.7,0-1c-1.2-4.1-1.8-8.7-2.6-10.7c-5.7-14.7-16.1-29.6-33-31.7
	c-33.6-4.1-63,27.9-90.9,42.1c-19.2,9.8-48.8,4.8-68.9,0.9c-30.6-5.9-61.4-15.8-88.9-30.6c-33.2-17.9-60-43.7-84.8-71.6
	c-9.4-10.6-19.4-21.7-30.5-31.3c-8.8-7.5-18.2-14.1-28.7-18.5c-5.6-2.4-11.4-4.1-17.6-5.2c-40.2-6.7-30.8,33.1-18.4,55.2
	c0.1,0.2-0.2,0.6-0.9,1c0.4,0.2,0.7,0.5,0.9,1c17.6,37,56.4,65.1,90.8,87.4c3.1,2,6.3,4,9.3,6c3,1.9,6.1,3.8,9.1,5.7
	c40.6,25.1,84.1,47.5,129.6,61.6c21.5,6.7,41.6,9.8,64.1,9.9c20.7,0.1,42.2,0.2,62.1-6.3c13.7-4.5,18-14.7,24.9-26.7
	C883.1,717.1,883.6,716.3,884.1,715.4z M906.3,730.7c2.4-0.7,5.1-0.8,5.4,0.6c0.1,0.4,0.1,0.7,0.2,1.1c2.3,0.4,4.7,0.5,7.1,0.3
	c14.8-1.3,19.5-12.9,15-26.1c-0.1-0.4-0.1-0.7-0.1-1.1c-4.2-5.9-0.8-16.5-6.5-21.8c-11.3-10.4-26.6,15.9-34.4,30.4
	C894.3,721.9,899.5,727.7,906.3,730.7z M1408,808.5c17.5,10.1,35.1,20,53.1,29c12.5-20.8,29.7-39.6,43.1-59.7
	c10.4-15.7,20.6-31.8,28-49.1c4.8-11.4,10.9-26.1,7.4-38.7c-12.1-43.8-60.2,12.4-71.9,26.7C1445.2,744.3,1421.7,775.3,1408,808.5z
	 M1318.8,870.3c68.5,0,137.1,0,205.6,0c-22.4-6.8-43.7-15.8-64.5-26c-1.5,0-2.5-0.3-2.1-1.1c-39.7-19.7-77.6-43.8-116.7-64.8
	c-8.2,20.7-11.3,45.4-16.3,66.6C1322.7,853.4,1320.8,861.9,1318.8,870.3z M1386.1,1139.2c2.5,24.1,24.4,38.1,48.1,34.4
	c41-6.5,29.6-77.8-8.7-72.1c-3.2,0.5-3.8-0.7-3.1-2c-15.9-1.1-29,8.8-34.1,22.7c0.8,0.2,1.6,0.5,2.4,0.7c1.5,0.4-0.9,1.8-3.5,2.7
	C1386,1129.9,1385.6,1134.4,1386.1,1139.2z M1436,1092.5c-21.4-0.1-42.8-0.2-64.3-0.3c-1.9,7.2-3.8,14.4-5.6,21.7
	c5,2.3,10,4.3,15.1,6c8.5-19,28.3-28.5,49.8-24.9c1.3,0.2,1.7,0.7,1.6,1.3c0.6,0,1.2,0,1.8,0.1
	C1434.9,1095.1,1435.5,1093.8,1436,1092.5z M1345.8,1160.4c3.7-14.7,7.5-29.3,11.3-44c-14.3-6.6-28-15.2-41.2-24.6
	c-13.3-0.1-26.6-0.2-39.8-0.3c-0.8,32.6-1.4,65.2-1.4,97.8c21.1-0.2,42.2-0.4,63.3-0.5C1339.4,1179.1,1344,1167.9,1345.8,1160.4z
	 M1049.3,1191.1c13.2-0.1,26.4-0.1,39.5-0.2c-0.1-3.5-1.6-7.6-2.3-10.5c-2.2-9.2-4.6-18.3-7.1-27.4c-5.7-21-11.5-42-17.3-63
	c-13.5-0.1-27-0.1-40.4-0.2c3.1,10.6,6.1,21.3,9,32c4.6,17,9.1,34,13.7,51.1c1.5,5.7,3,11.3,4.5,17
	C1049,1190.2,1049.1,1190.7,1049.3,1191.1z M1019.8,1083.4c13.5,0,27,0.1,40.6,0.2c-1.1-3.8-2.1-7.6-3.2-11.5
	c-3.9-14.1-7.7-28.3-11.6-42.4c-6,1.8-12.1,3.7-18.1,5.7c-6.4,2.1-12.7,4.1-18.9,6.6c-1.1,0.4-2.2,0.9-3.3,1.4
	c5.3,7.3,7.6,18.1,10.2,26.4C1017,1074.2,1018.4,1078.8,1019.8,1083.4z M1052.8,1021.9c5.8-1.7,11.5-3.4,17.3-5
	c-5.6-0.3-11.1-0.8-16.5-1.5c-0.9-0.1-1.7-0.3-2.6-0.4C1051.6,1017.3,1052.2,1019.6,1052.8,1021.9z M980.3,966.4
	c16.4,0.1,32.8,0.2,49.2,0.4c-7.2-29.5-13.6-59.2-18.5-89.1c-0.1-0.3,0-0.7,0.2-1c-14.6,0-29.3,0-43.9,0c-0.7,2.5-1.3,5.1-1.8,7.8
	C959.9,912.7,964.7,942.9,980.3,966.4z M1294.2,978.7c-2.9,13.2-5.9,26.4-8.7,39.7c-2.3,10.9-3.9,22.5-7.5,33.1
	c12.9,11.3,26.7,23.1,41.4,34c15.3,0.1,30.5,0.2,45.8,0.3c0.7-2.7,1.4-5.4,2.1-8.1c8.3-32.2,16.8-64.5,24.5-97
	C1359.2,980.1,1326.7,979.4,1294.2,978.7z M1393.2,974.3c7.6-32.2,14.5-64.6,19.8-97.2c0-0.1,0.1-0.3,0.2-0.4c-32,0-63.9,0-95.9,0
	c-7,30.1-13.9,60.2-20.6,90.3c-0.4,1.7-0.8,3.5-1.2,5.3C1328.1,973,1360.7,973.7,1393.2,974.3z M1276.3,1085.1
	c10.3,0.1,20.6,0.2,30.9,0.2c-10.5-8-20.6-16.4-30.2-24.7C1276.7,1068.8,1276.5,1076.9,1276.3,1085.1z M1285.8,978.5
	c-2.2-0.1-4.5-0.1-6.7-0.2c-0.3,11.7-0.6,23.4-0.9,35C1280.7,1001.7,1283.2,990.1,1285.8,978.5z M1270.3,978.1
	c-32.4-0.8-64.8-1.6-97.2-2.3c-0.8,1.2-1.7,2.4-2.6,3.6c-2.6,3.3-5.4,6.2-8.3,9c0.2,1.6,0.5,3.3,0.7,4.9c15.3-3,30.7-5.2,46-6.2
	c1.4-1.3,7.5-3.4,8.4-1.7c16.8,31.2,24.3,65.7,33.5,99.5c5.5,0,11.1,0.1,16.6,0.1c0.2-8.1,0.4-16.2,0.6-24.2c-1.5,0-2.6-0.5-2.4-1.6
	c0.1-0.8,0.2-1.6,0.4-2.5c-0.1-1.7-0.1-3.6-0.1-5.6c0,0-0.1-0.1-0.1-0.1c-0.2-0.2-0.1-0.4,0.1-0.7c0.2-3,0.6-5.9,1.8-7.9
	c0.1-0.2,0.5-0.5,0.9-0.7C1269.2,1020.4,1269.8,999.3,1270.3,978.1z M1097.5,1190.6c30.8-4.5,61.3-12.9,91.6-21.5
	c-1.2-3.4-2.2-6.7-3.1-9.5c-7.2-22.5-12.1-45.7-16.4-68.9c-32.7-0.3-65.4-0.5-98.1-0.7c6.1,21.9,12.2,43.7,18,65.6
	C1092,1164.9,1098.9,1180.2,1097.5,1190.6z M1069.7,1083.6c32.9,0.2,65.8,0.4,98.7,0.6c-0.4-2-0.7-4-1.1-6
	c-4.6-25.9-8.6-51.9-12.4-77.9c-4.8,1-9.5,2.1-14.3,3.2c-15.2,7.8-32.5,11.9-50,13.1c-1.6,0.4-3.1,0.9-4.7,1.3
	c-10.6,2.9-21.2,5.9-31.8,9c4.2,15.5,8.4,31,12.7,46.4C1067.8,1076.8,1068.7,1080.2,1069.7,1083.6z M1161.1,980.7
	c1.3-1.7,2.6-3.4,3.8-5.1c-1.5,0-3-0.1-4.5-0.1C1160.6,977.2,1160.9,979,1161.1,980.7z M1163.7,998.6c3.4,23.2,6.9,46.5,11,69.6
	c0.9,5.3,1.9,10.7,2.9,16.1c21.3,0.2,42.6,0.3,64,0.5c-8.4-31.4-15.7-63.2-30.5-92.4C1195.2,993.3,1179.4,995.5,1163.7,998.6z
	 M1197.6,1166.6c22.2-6.3,44.3-12.6,66.5-17.2c-9.1-18.6-15.3-38.2-20.8-58.1c-21.5-0.2-43-0.4-64.5-0.5
	c3.8,20.7,8.2,41.3,14.4,61.3C1194.3,1155.9,1195.7,1161.2,1197.6,1166.6z M1267.3,1091.4c-4.9,0-9.8-0.1-14.7-0.1
	c3.9,14.1,8.3,28.1,13.9,41.7C1266.7,1119.2,1267,1105.3,1267.3,1091.4z M1168.8,969.3c15.5-27.7,13.6-62.2,0.5-92.6
	c-7.9,0-15.7,0-23.6,0c4.9,30.7,9.2,61.6,13.6,92.4C1162.6,969.1,1165.7,969.2,1168.8,969.3z M1136.9,877.6c-0.1-0.3,0-0.7,0.2-1
	c-39.1,0-78.2,0-117.3,0c5,30.3,11.6,60.3,18.8,90.2c37.2,0.5,74.5,1.2,111.7,2C1146.1,938.4,1141.8,908,1136.9,877.6z M985,972.8
	c6.6,8.3,14.6,15.5,24.2,21.2c8.9,5.3,19.3,9.7,30.4,12.9c-2.9-11.2-5.8-22.5-8.6-33.7C1015.6,973,1000.3,972.9,985,972.8z
	 M1049.5,1009.5c11.3,2.5,23.1,3.7,34.8,3.6c18.8-5.2,38.1-10.6,57.5-15.1c4.1-2.6,8-5.5,11.6-8.8c-0.7-4.6-1.3-9.2-2-13.8
	c-37-0.8-74.1-1.5-111.1-2C1043.2,985.4,1046.4,997.4,1049.5,1009.5z M1126.8,1190.6c24.5-0.2,49-0.4,73.5-0.6c-4-4.2-7-10.1-9.3-16
	C1169.7,1180,1148.3,1186,1126.8,1190.6z M1265.9,1189.4c0-11.6,0.1-23.2,0.2-34.9c-22.3,4.6-44.5,10.8-66.7,17.1
	c3,7.5,7,14.7,12.6,18.3C1230,1189.7,1247.9,1189.5,1265.9,1189.4z M1358.7,1110.3c1.6-6.1,3.2-12.1,4.7-18.2
	c-11.7-0.1-23.4-0.2-35.1-0.3C1338.1,1098.8,1348.3,1105,1358.7,1110.3z M1438.7,1086.1c12-27.5,27.7-53.8,40.9-80.6
	c3.9-7.8,7.7-15.7,11.5-23.5c-30.4-0.2-60.7-0.6-91.1-1.2c-7.4,30.7-15.3,61.3-23.2,91.8c-1.1,4.4-2.3,8.7-3.4,13.1
	C1395.1,1086,1416.9,1086.1,1438.7,1086.1z M1494.2,975.6c15.4-32.3,29.9-65.1,41.3-99c-38,0-75.9,0-113.9,0
	c-5.4,32.8-12.4,65.4-20,97.8C1432.4,975,1463.3,975.4,1494.2,975.6z M1308.9,876.7c-9.4,0-18.8,0-28.3,0
	c-0.1,31.7-0.6,63.5-1.4,95.2c2.7,0.1,5.3,0.1,8,0.2c2.7-11.9,5.3-23.8,8-35.7C1299.8,916.5,1304.3,896.6,1308.9,876.7z
	 M1179.2,876.7c12.8,30.4,14.3,64.6-2.1,92.8c31.1,0.7,62.2,1.5,93.3,2.2c0.8-31.7,1.3-63.3,1.4-95
	C1241,876.7,1210.1,876.7,1179.2,876.7z M969.2,870.3c65.8,0,131.5,0,197.3,0c-17.3-35.2-49.7-63.3-87.1-65.8
	c-1.5-0.1-2.2-0.5-2.4-1C1027.7,796.5,984.6,824.4,969.2,870.3z M954.6,966.3c5.1,0,10.2,0,15.3,0.1c-4.6-7.2-8.4-15.2-11-24.1
	c-6.2-21.1-6.1-44.2-0.1-65.6c-7,0-14,0-21,0C943.4,906.5,949,936.4,954.6,966.3z M976.5,1083.3c11.3,0,22.6,0,33.9,0.1
	c-1.6-5.2-3.2-10.4-4.9-15.6c-2-6-3.9-12.1-6.5-17.8c-0.6-1.4-3.8-4.7-3.5-6.2c1.1-5.8,17.9-9.2,22.1-10.6c8.8-3,17.7-5.8,26.6-8.5
	c-1-3.8-2-7.6-3-11.4c-26.5-6-50.8-19.4-66.8-40.4c-6.2,0-12.4-0.1-18.6-0.1C962.7,1009.6,969.6,1046.4,976.5,1083.3z M994.6,1179.6
	c0.7,3.9,1.4,7.7,2.2,11.6c14.1,0,28.2,0,42.4-0.1c-1.2-4.8-1.9-10.1-2.4-12c-4.9-18.4-9.7-36.8-14.7-55.1
	c-3.1-11.5-6.3-22.9-9.7-34.3c-11.5,0-23-0.1-34.6-0.1C983.4,1119.7,989,1149.6,994.6,1179.6z M1043.3,1410c-1.4-0.2-2-0.8-2-1.5
	c-4.9-0.3-9.3,0.1-13.2,1.1c-5.7,3.1-12.4,7.2-17.3,11.2c-5.5,7-7.9,16.1-7.4,25c0.8,5.3,2.3,10.7,4.6,15.7
	c5.1,9.1,14.3,16,27.8,17.4c8.7-0.1,16-2.3,21.8-5.3C1078.4,1458,1073.9,1415.2,1043.3,1410z M1078.3,1526.6
	c-3.1,1.2-6.3,2.4-9.4,3.5C1072.2,1529.2,1075.3,1528,1078.3,1526.6z M1431.7,1452.5c-11.6,13.7-5.5,40.5,18.6,41.8
	c1.4,0.1,2.8,0,4.1-0.1c2.7-0.5,5.2-1.3,7.3-2.3c16.9-9.3,14-42.4-8.1-46.1c-1.1-0.2-1.7-0.6-1.9-1.1c-3.3-0.2-6.3,0.2-9,0.9
	C1439.1,1447.5,1435,1449.9,1431.7,1452.5z M1336.1,1195.2c-82.8,0.6-165.5,1.6-248.3,2.1c-12.7,1.5-25.4,2.3-38.2,2.2
	c-1.6,1-4.1,1.3-5.5,1c-0.6-0.2-1.2-0.6-1.7-1.2c-1.3-0.3-1.7-0.9-1.6-1.7c-14.3,0.1-28.6,0.1-42.9,0.1c6.7,36,13.4,72,19.7,108.1
	c2.2,12.6,4.4,25.2,6.4,37.9c0.3,1.9,0.8,4.2,1.3,6.6c10.4-1.3,21.2-1.3,31.9,0c1.2,0.1,1.8,0.6,2,1.1l7.9,1.1
	c0,0,8.3,4.1,17.5,10.3c25.2,13.5,41.9,39.3,45.7,69.2c1,8.2,1.2,16.6,0.4,24.8c83.4,0,166.8,0,250.1,0c0-0.1,0-0.1,0-0.2
	c6-32.7,31-51.3,60.7-55.1c-2.1-2.6-3.8-5.4-5.4-7.7c-10.5-15.4-19.5-31.7-28.1-48.1C1382.1,1296.5,1358.9,1245.9,1336.1,1195.2z
	 M1496.9,1092.7c-17.6,0-35.2-0.1-52.8-0.1c-0.6,1.4-1.2,2.9-1.8,4.3c-0.1,0.3-0.4,0.6-0.8,0.9c15.8,5,26.7,21.4,27.5,38.8
	c1.1,25.8-18.1,42.4-43.4,42.3c-27.7-0.2-54.5-18.9-47.5-49.8c0.3-1.4,0.7-2.8,1.2-4.2c-4.9-1.5-9.8-3.3-14.7-5.2
	c-3.2,12.3-6.4,24.6-9.5,36.9c-2.1,8.3-7.7,21.5-8.7,32.1c37.7-0.3,75.5-0.4,113.2-0.4c0.2,0,0.3,0,0.4,0
	C1473.2,1156.8,1485.4,1124.8,1496.9,1092.7z M1533.5,982.2c-11.5,0-23-0.1-34.4-0.1c-4.2,8.7-8.4,17.3-12.7,25.9
	c-12.9,25.9-28.1,51.5-39.6,78.2c17.3,0.1,34.6,0.1,51.9,0.1c0.2,0,0.3,0,0.5,0c1.4-4,2.9-8,4.2-11.9
	C1513.9,1044.3,1524.6,1013.5,1533.5,982.2z M1553.5,876.7c-3.3,0-6.6,0-9.9,0c-11.5,33.9-25.9,66.7-41.4,99
	c11.1,0.1,22.1,0.1,33.2,0.1C1544.4,943.1,1551.2,910,1553.5,876.7z M1621.1,659.9c-16.4,8.7-29.7,23.9-42,37.5
	c-16.5,18.2-32.1,37.3-47.2,56.7c-13.5,17.3-26.6,34.9-39.4,52.7c-4.3,6-8.6,12-12.8,18c-1,1.5-3.7,5.8-4.4,6.2
	c0,0.2-0.1,0.5-0.3,0.8c-0.1,0.1-0.1,0.2-0.2,0.2c-0.5,0.5-1.8,1.2-3.4,1.8c-1.5,2.2-2.9,4.5-4.2,6.8c17.5,8.6,35.5,16.3,54.1,22.6
	c3.1-6.8,8.3-12.9,12.9-18.7c28.2-35.8,58.9-69.8,83.7-108.1c10.1-15.6,22.3-34.1,24.4-53.2C1643.3,672.6,1635.2,652.4,1621.1,659.9
	z M1254.6,672c17.1,10.6,34.8,21.5,49.7,35.2c2.5-0.1,4.8,1,3.8,3.7c-9.6,27.1-29.9,48.4-40,75.2c-1.1,3-7.2,3.6-8.4,1
	c0,0-0.1,0-0.1-0.1c-29.5-20.8-64-36.3-88.8-63.1c-1.5-0.1-2.5-0.7-2.1-2.4v0c-0.7-1.3,0-2.6,1.4-3.4c1.5-2.6,3.6-5.1,4.9-7.3
	c4.3-6.8,8.6-13.6,12.8-20.4c0.4-0.6,0.8-1.3,1.2-1.9c7.2-11.6,14.8-23.2,19.6-35.9c0.1-0.3,0.3-0.5,0.5-0.8
	c1.2-1.4,3.6-1.8,5.2-1.8c4,0,8.8,3.5,12.1,5.3C1236,660.7,1245.4,666.2,1254.6,672z M1298.6,712.9c-0.3-0.3-0.6-0.5-0.9-0.8
	c-14.8-13.8-32.8-24.8-49.9-35.4c-7.9-4.9-15.9-9.7-24-14.2c-2-1.1-5.5-3.6-8.6-5.2c-4.3,9.7-10.7,20.2-16.5,29.5
	c-4.7,7.7-9.5,15.3-14.3,22.9c-1.5,2.4-5,6.9-6.4,9.6c3.5,3.8,7.1,7.4,11,10.7c13.1,11.6,28.1,21,43.2,30.2
	c10.1,6.2,20.3,12.3,30,18.9c5.7-13,13.6-24.9,21.1-36.9C1289.1,732.8,1294.6,723.3,1298.6,712.9z M485.1,415.1
	c-0.4-0.4-1.7-0.3-2.2-0.2c-1.1,0.1-2.3,0.4-3.4,0.8c-0.6,0.2-3.6,1.3-2.6,2.3c1.6,1.7,2.1,4.3,2.8,6.5c0.6,1.9,9.2-0.6,8.7-2.3
	C487.5,419.6,486.9,417,485.1,415.1z"/>
</svg>
